<ttFont>
    <TTGlyph name=".notdef" xMin="180" yMin="0" xMax="570" yMax="701">
      <contour>
        <pt x="234" y="651" on="1"/>
        <pt x="234" y="50" on="1"/>
        <pt x="516" y="50" on="1"/>
        <pt x="516" y="651" on="1"/>
      </contour>
      <contour>
        <pt x="180" y="0" on="1"/>
        <pt x="180" y="701" on="1"/>
        <pt x="570" y="701" on="1"/>
        <pt x="570" y="0" on="1"/>
      </contour>
    </TTGlyph>
    <TTGlyph name="A" xMin="13" yMin="0" xMax="439" yMax="678">
      <contour>
        <pt x="347" y="0" on="1"/>
        <pt x="310" y="180" on="1"/>
        <pt x="142" y="180" on="1"/>
        <pt x="105" y="0" on="1"/>
        <pt x="13" y="0" on="1"/>
        <pt x="161" y="678" on="1"/>
        <pt x="293" y="678" on="1"/>
        <pt x="439" y="0" on="1"/>
      </contour>
      <contour>
        <pt x="158" y="261" on="1"/>
        <pt x="293" y="261" on="1"/>
        <pt x="225" y="590" on="1"/>
      </contour>
    </TTGlyph>
    <TTGlyph name="AE" xMin="6" yMin="0" xMax="659" yMax="678">
      <contour>
        <pt x="659" y="595" on="1"/>
        <pt x="444" y="595" on="1"/>
        <pt x="444" y="384" on="1"/>
        <pt x="631" y="384" on="1"/>
        <pt x="631" y="301" on="1"/>
        <pt x="444" y="301" on="1"/>
        <pt x="444" y="82" on="1"/>
        <pt x="659" y="82" on="1"/>
        <pt x="659" y="0" on="1"/>
        <pt x="354" y="0" on="1"/>
        <pt x="354" y="180" on="1"/>
        <pt x="175" y="180" on="1"/>
        <pt x="100" y="0" on="1"/>
        <pt x="6" y="0" on="1"/>
        <pt x="298" y="678" on="1"/>
        <pt x="659" y="678" on="1"/>
      </contour>
      <contour>
        <pt x="354" y="261" on="1"/>
        <pt x="354" y="613" on="1"/>
        <pt x="208" y="261" on="1"/>
      </contour>
    </TTGlyph>
    <TTGlyph name="Aacute" xMin="13" yMin="0" xMax="439" yMax="828">
      <contour>
        <pt x="347" y="0" on="1"/>
        <pt x="310" y="180" on="1"/>
        <pt x="142" y="180" on="1"/>
        <pt x="105" y="0" on="1"/>
        <pt x="13" y="0" on="1"/>
        <pt x="161" y="678" on="1"/>
        <pt x="293" y="678" on="1"/>
        <pt x="439" y="0" on="1"/>
      </contour>
      <contour>
        <pt x="158" y="261" on="1"/>
        <pt x="293" y="261" on="1"/>
        <pt x="225" y="590" on="1"/>
      </contour>
      <contour>
        <pt x="316" y="828" on="1"/>
        <pt x="252" y="719" on="1"/>
        <pt x="196" y="719" on="1"/>
        <pt x="236" y="828" on="1"/>
      </contour>
    </TTGlyph>
    <TTGlyph name="Abreve" xMin="13" yMin="0" xMax="439" yMax="828">
      <contour>
        <pt x="347" y="0" on="1"/>
        <pt x="310" y="180" on="1"/>
        <pt x="142" y="180" on="1"/>
        <pt x="105" y="0" on="1"/>
        <pt x="13" y="0" on="1"/>
        <pt x="161" y="678" on="1"/>
        <pt x="293" y="678" on="1"/>
        <pt x="439" y="0" on="1"/>
      </contour>
      <contour>
        <pt x="158" y="261" on="1"/>
        <pt x="293" y="261" on="1"/>
        <pt x="225" y="590" on="1"/>
      </contour>
      <contour>
        <pt x="276" y="719" on="0"/>
        <pt x="174" y="719" on="0"/>
        <pt x="113" y="780" on="0"/>
        <pt x="112" y="828" on="1"/>
        <pt x="170" y="828" on="1"/>
        <pt x="171" y="802" on="0"/>
        <pt x="199" y="771" on="0"/>
        <pt x="251" y="771" on="0"/>
        <pt x="279" y="802" on="0"/>
        <pt x="280" y="828" on="1"/>
        <pt x="338" y="828" on="1"/>
        <pt x="337" y="780" on="0"/>
      </contour>
    </TTGlyph>
    <TTGlyph name="Acircumflex" xMin="13" yMin="0" xMax="439" yMax="828">
      <contour>
        <pt x="347" y="0" on="1"/>
        <pt x="310" y="180" on="1"/>
        <pt x="142" y="180" on="1"/>
        <pt x="105" y="0" on="1"/>
        <pt x="13" y="0" on="1"/>
        <pt x="161" y="678" on="1"/>
        <pt x="293" y="678" on="1"/>
        <pt x="439" y="0" on="1"/>
      </contour>
      <contour>
        <pt x="158" y="261" on="1"/>
        <pt x="293" y="261" on="1"/>
        <pt x="225" y="590" on="1"/>
      </contour>
      <contour>
        <pt x="229" y="779" on="1"/>
        <pt x="191" y="719" on="1"/>
        <pt x="139" y="719" on="1"/>
        <pt x="192" y="828" on="1"/>
        <pt x="265" y="828" on="1"/>
        <pt x="318" y="719" on="1"/>
        <pt x="266" y="719" on="1"/>
      </contour>
    </TTGlyph>
    <TTGlyph name="Adieresis" xMin="13" yMin="0" xMax="439" yMax="815">
      <contour>
        <pt x="347" y="0" on="1"/>
        <pt x="310" y="180" on="1"/>
        <pt x="142" y="180" on="1"/>
        <pt x="105" y="0" on="1"/>
        <pt x="13" y="0" on="1"/>
        <pt x="161" y="678" on="1"/>
        <pt x="293" y="678" on="1"/>
        <pt x="439" y="0" on="1"/>
      </contour>
      <contour>
        <pt x="158" y="261" on="1"/>
        <pt x="293" y="261" on="1"/>
        <pt x="225" y="590" on="1"/>
      </contour>
      <contour>
        <pt x="196" y="730" on="0"/>
        <pt x="108" y="730" on="0"/>
        <pt x="108" y="815" on="0"/>
        <pt x="196" y="815" on="0"/>
      </contour>
      <contour>
        <pt x="342" y="730" on="0"/>
        <pt x="254" y="730" on="0"/>
        <pt x="254" y="815" on="0"/>
        <pt x="342" y="815" on="0"/>
      </contour>
    </TTGlyph>
    <TTGlyph name="Agrave" xMin="13" yMin="0" xMax="439" yMax="828">
      <contour>
        <pt x="347" y="0" on="1"/>
        <pt x="310" y="180" on="1"/>
        <pt x="142" y="180" on="1"/>
        <pt x="105" y="0" on="1"/>
        <pt x="13" y="0" on="1"/>
        <pt x="161" y="678" on="1"/>
        <pt x="293" y="678" on="1"/>
        <pt x="439" y="0" on="1"/>
      </contour>
      <contour>
        <pt x="158" y="261" on="1"/>
        <pt x="293" y="261" on="1"/>
        <pt x="225" y="590" on="1"/>
      </contour>
      <contour>
        <pt x="250" y="719" on="1"/>
        <pt x="194" y="719" on="1"/>
        <pt x="130" y="828" on="1"/>
        <pt x="210" y="828" on="1"/>
      </contour>
    </TTGlyph>
    <TTGlyph name="Amacron" xMin="13" yMin="0" xMax="439" yMax="801">
      <contour>
        <pt x="347" y="0" on="1"/>
        <pt x="310" y="180" on="1"/>
        <pt x="142" y="180" on="1"/>
        <pt x="105" y="0" on="1"/>
        <pt x="13" y="0" on="1"/>
        <pt x="161" y="678" on="1"/>
        <pt x="293" y="678" on="1"/>
        <pt x="439" y="0" on="1"/>
      </contour>
      <contour>
        <pt x="158" y="261" on="1"/>
        <pt x="293" y="261" on="1"/>
        <pt x="225" y="590" on="1"/>
      </contour>
      <contour>
        <pt x="342" y="801" on="1"/>
        <pt x="342" y="745" on="1"/>
        <pt x="107" y="745" on="1"/>
        <pt x="107" y="801" on="1"/>
      </contour>
    </TTGlyph>
    <TTGlyph name="Aogonek" xMin="13" yMin="-183" xMax="439" yMax="678">
      <contour>
        <pt x="392" y="-93" on="1"/>
        <pt x="392" y="-129" on="0"/>
        <pt x="426" y="-129" on="1"/>
        <pt x="438" y="-129" on="1"/>
        <pt x="438" y="-183" on="1"/>
        <pt x="421" y="-183" on="1"/>
        <pt x="335" y="-183" on="0"/>
        <pt x="335" y="-112" on="1"/>
        <pt x="335" y="-48" on="0"/>
        <pt x="397" y="0" on="1"/>
        <pt x="347" y="0" on="1"/>
        <pt x="310" y="180" on="1"/>
        <pt x="142" y="180" on="1"/>
        <pt x="105" y="0" on="1"/>
        <pt x="13" y="0" on="1"/>
        <pt x="161" y="678" on="1"/>
        <pt x="293" y="678" on="1"/>
        <pt x="439" y="0" on="1"/>
        <pt x="438" y="0" on="1"/>
        <pt x="392" y="-39" on="0"/>
      </contour>
      <contour>
        <pt x="158" y="261" on="1"/>
        <pt x="293" y="261" on="1"/>
        <pt x="225" y="590" on="1"/>
      </contour>
    </TTGlyph>
    <TTGlyph name="Aring" xMin="13" yMin="0" xMax="439" yMax="847">
      <contour>
        <pt x="347" y="0" on="1"/>
        <pt x="310" y="180" on="1"/>
        <pt x="142" y="180" on="1"/>
        <pt x="105" y="0" on="1"/>
        <pt x="13" y="0" on="1"/>
        <pt x="161" y="678" on="1"/>
        <pt x="293" y="678" on="1"/>
        <pt x="439" y="0" on="1"/>
      </contour>
      <contour>
        <pt x="158" y="261" on="1"/>
        <pt x="293" y="261" on="1"/>
        <pt x="225" y="590" on="1"/>
      </contour>
      <contour>
        <pt x="301" y="741" on="0"/>
        <pt x="261" y="698" on="0"/>
        <pt x="190" y="698" on="0"/>
        <pt x="149" y="741" on="0"/>
        <pt x="149" y="806" on="0"/>
        <pt x="189" y="847" on="0"/>
        <pt x="261" y="847" on="0"/>
        <pt x="301" y="806" on="0"/>
      </contour>
      <contour>
        <pt x="240" y="806" on="0"/>
        <pt x="210" y="806" on="0"/>
        <pt x="192" y="788" on="0"/>
        <pt x="192" y="758" on="0"/>
        <pt x="210" y="739" on="0"/>
        <pt x="240" y="739" on="0"/>
        <pt x="258" y="758" on="0"/>
        <pt x="258" y="788" on="0"/>
      </contour>
    </TTGlyph>
    <TTGlyph name="Atilde" xMin="13" yMin="0" xMax="439" yMax="821">
      <contour>
        <pt x="347" y="0" on="1"/>
        <pt x="310" y="180" on="1"/>
        <pt x="142" y="180" on="1"/>
        <pt x="105" y="0" on="1"/>
        <pt x="13" y="0" on="1"/>
        <pt x="161" y="678" on="1"/>
        <pt x="293" y="678" on="1"/>
        <pt x="439" y="0" on="1"/>
      </contour>
      <contour>
        <pt x="158" y="261" on="1"/>
        <pt x="293" y="261" on="1"/>
        <pt x="225" y="590" on="1"/>
      </contour>
      <contour>
        <pt x="156" y="734" on="1"/>
        <pt x="156" y="725" on="1"/>
        <pt x="97" y="725" on="1"/>
        <pt x="97" y="735" on="1"/>
        <pt x="99" y="819" on="0"/>
        <pt x="171" y="819" on="1"/>
        <pt x="199" y="819" on="0"/>
        <pt x="267" y="779" on="0"/>
        <pt x="277" y="779" on="1"/>
        <pt x="299" y="779" on="0"/>
        <pt x="299" y="812" on="1"/>
        <pt x="299" y="821" on="1"/>
        <pt x="358" y="821" on="1"/>
        <pt x="358" y="810" on="1"/>
        <pt x="356" y="727" on="0"/>
        <pt x="285" y="727" on="1"/>
        <pt x="259" y="727" on="0"/>
        <pt x="191" y="767" on="0"/>
        <pt x="178" y="767" on="1"/>
        <pt x="156" y="767" on="0"/>
      </contour>
    </TTGlyph>
    <TTGlyph name="B" xMin="62" yMin="0" xMax="423" yMax="678">
      <contour>
        <pt x="417" y="524" on="1"/>
        <pt x="417" y="465" on="1"/>
        <pt x="417" y="370" on="0"/>
        <pt x="345" y="343" on="1"/>
        <pt x="423" y="317" on="0"/>
        <pt x="423" y="217" on="1"/>
        <pt x="423" y="154" on="1"/>
        <pt x="423" y="79" on="0"/>
        <pt x="340" y="0" on="0"/>
        <pt x="259" y="0" on="1"/>
        <pt x="62" y="0" on="1"/>
        <pt x="62" y="678" on="1"/>
        <pt x="253" y="678" on="1"/>
        <pt x="334" y="678" on="0"/>
        <pt x="417" y="599" on="0"/>
      </contour>
      <contour>
        <pt x="242" y="597" on="1"/>
        <pt x="156" y="597" on="1"/>
        <pt x="156" y="383" on="1"/>
        <pt x="242" y="383" on="1"/>
        <pt x="324" y="383" on="0"/>
        <pt x="324" y="461" on="1"/>
        <pt x="324" y="520" on="1"/>
        <pt x="324" y="597" on="0"/>
      </contour>
      <contour>
        <pt x="330" y="158" on="1"/>
        <pt x="330" y="222" on="1"/>
        <pt x="330" y="299" on="0"/>
        <pt x="248" y="299" on="1"/>
        <pt x="156" y="299" on="1"/>
        <pt x="156" y="81" on="1"/>
        <pt x="248" y="81" on="1"/>
        <pt x="330" y="81" on="0"/>
      </contour>
    </TTGlyph>
    <TTGlyph name="C" xMin="52" yMin="-5" xMax="366" yMax="683">
      <contour>
        <pt x="52" y="533" on="1"/>
        <pt x="52" y="604" on="0"/>
        <pt x="148" y="683" on="0"/>
        <pt x="245" y="683" on="1"/>
        <pt x="309" y="683" on="0"/>
        <pt x="363" y="668" on="1"/>
        <pt x="363" y="581" on="1"/>
        <pt x="304" y="598" on="0"/>
        <pt x="190" y="598" on="0"/>
        <pt x="147" y="562" on="0"/>
        <pt x="147" y="526" on="1"/>
        <pt x="147" y="151" on="1"/>
        <pt x="147" y="116" on="0"/>
        <pt x="191" y="80" on="0"/>
        <pt x="309" y="80" on="0"/>
        <pt x="366" y="96" on="1"/>
        <pt x="366" y="11" on="1"/>
        <pt x="314" y="-5" on="0"/>
        <pt x="244" y="-5" on="1"/>
        <pt x="52" y="-5" on="0"/>
        <pt x="52" y="145" on="1"/>
      </contour>
    </TTGlyph>
    <TTGlyph name="Cacute" xMin="52" yMin="-5" xMax="366" yMax="828">
      <contour>
        <pt x="52" y="533" on="1"/>
        <pt x="52" y="604" on="0"/>
        <pt x="148" y="683" on="0"/>
        <pt x="245" y="683" on="1"/>
        <pt x="309" y="683" on="0"/>
        <pt x="363" y="668" on="1"/>
        <pt x="363" y="581" on="1"/>
        <pt x="304" y="598" on="0"/>
        <pt x="190" y="598" on="0"/>
        <pt x="147" y="562" on="0"/>
        <pt x="147" y="526" on="1"/>
        <pt x="147" y="151" on="1"/>
        <pt x="147" y="116" on="0"/>
        <pt x="191" y="80" on="0"/>
        <pt x="309" y="80" on="0"/>
        <pt x="366" y="96" on="1"/>
        <pt x="366" y="11" on="1"/>
        <pt x="314" y="-5" on="0"/>
        <pt x="244" y="-5" on="1"/>
        <pt x="52" y="-5" on="0"/>
        <pt x="52" y="145" on="1"/>
      </contour>
      <contour>
        <pt x="244" y="828" on="1"/>
        <pt x="324" y="828" on="1"/>
        <pt x="260" y="719" on="1"/>
        <pt x="204" y="719" on="1"/>
      </contour>
    </TTGlyph>
    <TTGlyph name="Ccaron" xMin="52" yMin="-5" xMax="366" yMax="828">
      <contour>
        <pt x="147" y="526" on="1"/>
        <pt x="147" y="151" on="1"/>
        <pt x="147" y="116" on="0"/>
        <pt x="191" y="80" on="0"/>
        <pt x="309" y="80" on="0"/>
        <pt x="366" y="96" on="1"/>
        <pt x="366" y="11" on="1"/>
        <pt x="314" y="-5" on="0"/>
        <pt x="244" y="-5" on="1"/>
        <pt x="52" y="-5" on="0"/>
        <pt x="52" y="145" on="1"/>
        <pt x="52" y="533" on="1"/>
        <pt x="52" y="604" on="0"/>
        <pt x="148" y="683" on="0"/>
        <pt x="245" y="683" on="1"/>
        <pt x="309" y="683" on="0"/>
        <pt x="363" y="668" on="1"/>
        <pt x="363" y="581" on="1"/>
        <pt x="304" y="598" on="0"/>
        <pt x="190" y="598" on="0"/>
        <pt x="147" y="562" on="0"/>
      </contour>
      <contour>
        <pt x="195" y="719" on="1"/>
        <pt x="142" y="828" on="1"/>
        <pt x="194" y="828" on="1"/>
        <pt x="232" y="768" on="1"/>
        <pt x="269" y="828" on="1"/>
        <pt x="321" y="828" on="1"/>
        <pt x="268" y="719" on="1"/>
      </contour>
    </TTGlyph>
    <TTGlyph name="Ccedilla" xMin="52" yMin="-184" xMax="366" yMax="683">
      <contour>
        <pt x="266" y="-42" on="0"/>
        <pt x="304" y="-75" on="0"/>
        <pt x="304" y="-144" on="0"/>
        <pt x="253" y="-184" on="0"/>
        <pt x="184" y="-184" on="0"/>
        <pt x="161" y="-178" on="1"/>
        <pt x="161" y="-130" on="1"/>
        <pt x="177" y="-137" on="0"/>
        <pt x="201" y="-137" on="1"/>
        <pt x="247" y="-137" on="0"/>
        <pt x="247" y="-104" on="1"/>
        <pt x="247" y="-73" on="0"/>
        <pt x="200" y="-71" on="1"/>
        <pt x="187" y="-71" on="1"/>
        <pt x="202" y="-3" on="1"/>
        <pt x="52" y="13" on="0"/>
        <pt x="52" y="145" on="1"/>
        <pt x="52" y="533" on="1"/>
        <pt x="52" y="604" on="0"/>
        <pt x="148" y="683" on="0"/>
        <pt x="245" y="683" on="1"/>
        <pt x="309" y="683" on="0"/>
        <pt x="363" y="668" on="1"/>
        <pt x="363" y="581" on="1"/>
        <pt x="304" y="598" on="0"/>
        <pt x="190" y="598" on="0"/>
        <pt x="147" y="562" on="0"/>
        <pt x="147" y="526" on="1"/>
        <pt x="147" y="151" on="1"/>
        <pt x="147" y="116" on="0"/>
        <pt x="191" y="80" on="0"/>
        <pt x="309" y="80" on="0"/>
        <pt x="366" y="96" on="1"/>
        <pt x="366" y="11" on="1"/>
        <pt x="316" y="-5" on="0"/>
        <pt x="247" y="-5" on="1"/>
        <pt x="239" y="-40" on="1"/>
      </contour>
    </TTGlyph>
    <TTGlyph name="D" xMin="62" yMin="0" xMax="422" yMax="678">
      <contour>
        <pt x="328" y="523" on="1"/>
        <pt x="328" y="599" on="0"/>
        <pt x="249" y="599" on="1"/>
        <pt x="156" y="599" on="1"/>
        <pt x="156" y="82" on="1"/>
        <pt x="249" y="82" on="1"/>
        <pt x="328" y="82" on="0"/>
        <pt x="328" y="161" on="1"/>
      </contour>
      <contour>
        <pt x="62" y="678" on="1"/>
        <pt x="258" y="678" on="1"/>
        <pt x="338" y="678" on="0"/>
        <pt x="422" y="598" on="0"/>
        <pt x="422" y="526" on="1"/>
        <pt x="422" y="156" on="1"/>
        <pt x="422" y="83" on="0"/>
        <pt x="343" y="0" on="0"/>
        <pt x="262" y="0" on="1"/>
        <pt x="62" y="0" on="1"/>
      </contour>
    </TTGlyph>
    <TTGlyph name="Dcaron" xMin="62" yMin="0" xMax="422" yMax="828">
      <contour>
        <pt x="62" y="678" on="1"/>
        <pt x="258" y="678" on="1"/>
        <pt x="338" y="678" on="0"/>
        <pt x="422" y="598" on="0"/>
        <pt x="422" y="526" on="1"/>
        <pt x="422" y="156" on="1"/>
        <pt x="422" y="83" on="0"/>
        <pt x="343" y="0" on="0"/>
        <pt x="262" y="0" on="1"/>
        <pt x="62" y="0" on="1"/>
      </contour>
      <contour>
        <pt x="328" y="161" on="1"/>
        <pt x="328" y="523" on="1"/>
        <pt x="328" y="599" on="0"/>
        <pt x="249" y="599" on="1"/>
        <pt x="156" y="599" on="1"/>
        <pt x="156" y="82" on="1"/>
        <pt x="249" y="82" on="1"/>
        <pt x="328" y="82" on="0"/>
      </contour>
      <contour>
        <pt x="191" y="719" on="1"/>
        <pt x="138" y="828" on="1"/>
        <pt x="190" y="828" on="1"/>
        <pt x="228" y="768" on="1"/>
        <pt x="265" y="828" on="1"/>
        <pt x="317" y="828" on="1"/>
        <pt x="264" y="719" on="1"/>
      </contour>
    </TTGlyph>
    <TTGlyph name="Dcroat" xMin="4" yMin="0" xMax="426" yMax="678">
      <contour>
        <pt x="66" y="678" on="1"/>
        <pt x="262" y="678" on="1"/>
        <pt x="342" y="678" on="0"/>
        <pt x="426" y="598" on="0"/>
        <pt x="426" y="526" on="1"/>
        <pt x="426" y="156" on="1"/>
        <pt x="426" y="83" on="0"/>
        <pt x="347" y="0" on="0"/>
        <pt x="266" y="0" on="1"/>
        <pt x="66" y="0" on="1"/>
        <pt x="66" y="297" on="1"/>
        <pt x="4" y="297" on="1"/>
        <pt x="4" y="377" on="1"/>
        <pt x="66" y="377" on="1"/>
      </contour>
      <contour>
        <pt x="332" y="161" on="1"/>
        <pt x="332" y="523" on="1"/>
        <pt x="332" y="599" on="0"/>
        <pt x="253" y="599" on="1"/>
        <pt x="160" y="599" on="1"/>
        <pt x="160" y="377" on="1"/>
        <pt x="248" y="377" on="1"/>
        <pt x="248" y="297" on="1"/>
        <pt x="160" y="297" on="1"/>
        <pt x="160" y="82" on="1"/>
        <pt x="253" y="82" on="1"/>
        <pt x="332" y="82" on="0"/>
      </contour>
    </TTGlyph>
    <TTGlyph name="E" xMin="62" yMin="0" xMax="371" yMax="678">
      <contour>
        <pt x="62" y="678" on="1"/>
        <pt x="371" y="678" on="1"/>
        <pt x="371" y="595" on="1"/>
        <pt x="156" y="595" on="1"/>
        <pt x="156" y="384" on="1"/>
        <pt x="343" y="384" on="1"/>
        <pt x="343" y="301" on="1"/>
        <pt x="156" y="301" on="1"/>
        <pt x="156" y="82" on="1"/>
        <pt x="371" y="82" on="1"/>
        <pt x="371" y="0" on="1"/>
        <pt x="62" y="0" on="1"/>
      </contour>
    </TTGlyph>
    <TTGlyph name="Eacute" xMin="62" yMin="0" xMax="371" yMax="828">
      <contour>
        <pt x="62" y="678" on="1"/>
        <pt x="371" y="678" on="1"/>
        <pt x="371" y="595" on="1"/>
        <pt x="156" y="595" on="1"/>
        <pt x="156" y="384" on="1"/>
        <pt x="343" y="384" on="1"/>
        <pt x="343" y="301" on="1"/>
        <pt x="156" y="301" on="1"/>
        <pt x="156" y="82" on="1"/>
        <pt x="371" y="82" on="1"/>
        <pt x="371" y="0" on="1"/>
        <pt x="62" y="0" on="1"/>
      </contour>
      <contour>
        <pt x="228" y="828" on="1"/>
        <pt x="308" y="828" on="1"/>
        <pt x="244" y="719" on="1"/>
        <pt x="188" y="719" on="1"/>
      </contour>
    </TTGlyph>
    <TTGlyph name="Ecaron" xMin="62" yMin="0" xMax="371" yMax="828">
      <contour>
        <pt x="371" y="595" on="1"/>
        <pt x="156" y="595" on="1"/>
        <pt x="156" y="384" on="1"/>
        <pt x="343" y="384" on="1"/>
        <pt x="343" y="301" on="1"/>
        <pt x="156" y="301" on="1"/>
        <pt x="156" y="82" on="1"/>
        <pt x="371" y="82" on="1"/>
        <pt x="371" y="0" on="1"/>
        <pt x="62" y="0" on="1"/>
        <pt x="62" y="678" on="1"/>
        <pt x="371" y="678" on="1"/>
      </contour>
      <contour>
        <pt x="179" y="719" on="1"/>
        <pt x="126" y="828" on="1"/>
        <pt x="178" y="828" on="1"/>
        <pt x="216" y="768" on="1"/>
        <pt x="253" y="828" on="1"/>
        <pt x="305" y="828" on="1"/>
        <pt x="252" y="719" on="1"/>
      </contour>
    </TTGlyph>
    <TTGlyph name="Ecircumflex" xMin="62" yMin="0" xMax="371" yMax="828">
      <contour>
        <pt x="371" y="595" on="1"/>
        <pt x="156" y="595" on="1"/>
        <pt x="156" y="384" on="1"/>
        <pt x="343" y="384" on="1"/>
        <pt x="343" y="301" on="1"/>
        <pt x="156" y="301" on="1"/>
        <pt x="156" y="82" on="1"/>
        <pt x="371" y="82" on="1"/>
        <pt x="371" y="0" on="1"/>
        <pt x="62" y="0" on="1"/>
        <pt x="62" y="678" on="1"/>
        <pt x="371" y="678" on="1"/>
      </contour>
      <contour>
        <pt x="211" y="779" on="1"/>
        <pt x="173" y="719" on="1"/>
        <pt x="121" y="719" on="1"/>
        <pt x="174" y="828" on="1"/>
        <pt x="247" y="828" on="1"/>
        <pt x="300" y="719" on="1"/>
        <pt x="248" y="719" on="1"/>
      </contour>
    </TTGlyph>
    <TTGlyph name="Edieresis" xMin="62" yMin="0" xMax="371" yMax="815">
      <contour>
        <pt x="62" y="678" on="1"/>
        <pt x="371" y="678" on="1"/>
        <pt x="371" y="595" on="1"/>
        <pt x="156" y="595" on="1"/>
        <pt x="156" y="384" on="1"/>
        <pt x="343" y="384" on="1"/>
        <pt x="343" y="301" on="1"/>
        <pt x="156" y="301" on="1"/>
        <pt x="156" y="82" on="1"/>
        <pt x="371" y="82" on="1"/>
        <pt x="371" y="0" on="1"/>
        <pt x="62" y="0" on="1"/>
      </contour>
      <contour>
        <pt x="335" y="730" on="0"/>
        <pt x="247" y="730" on="0"/>
        <pt x="247" y="815" on="0"/>
        <pt x="335" y="815" on="0"/>
      </contour>
      <contour>
        <pt x="189" y="730" on="0"/>
        <pt x="101" y="730" on="0"/>
        <pt x="101" y="815" on="0"/>
        <pt x="189" y="815" on="0"/>
      </contour>
    </TTGlyph>
    <TTGlyph name="Edotaccent" xMin="62" yMin="0" xMax="371" yMax="831">
      <contour>
        <pt x="264" y="746" on="0"/>
        <pt x="176" y="746" on="0"/>
        <pt x="176" y="831" on="0"/>
        <pt x="264" y="831" on="0"/>
      </contour>
      <contour>
        <pt x="62" y="678" on="1"/>
        <pt x="371" y="678" on="1"/>
        <pt x="371" y="595" on="1"/>
        <pt x="156" y="595" on="1"/>
        <pt x="156" y="384" on="1"/>
        <pt x="343" y="384" on="1"/>
        <pt x="343" y="301" on="1"/>
        <pt x="156" y="301" on="1"/>
        <pt x="156" y="82" on="1"/>
        <pt x="371" y="82" on="1"/>
        <pt x="371" y="0" on="1"/>
        <pt x="62" y="0" on="1"/>
      </contour>
    </TTGlyph>
    <TTGlyph name="Egrave" xMin="62" yMin="0" xMax="371" yMax="828">
      <contour>
        <pt x="126" y="828" on="1"/>
        <pt x="206" y="828" on="1"/>
        <pt x="246" y="719" on="1"/>
        <pt x="190" y="719" on="1"/>
      </contour>
      <contour>
        <pt x="62" y="678" on="1"/>
        <pt x="371" y="678" on="1"/>
        <pt x="371" y="595" on="1"/>
        <pt x="156" y="595" on="1"/>
        <pt x="156" y="384" on="1"/>
        <pt x="343" y="384" on="1"/>
        <pt x="343" y="301" on="1"/>
        <pt x="156" y="301" on="1"/>
        <pt x="156" y="82" on="1"/>
        <pt x="371" y="82" on="1"/>
        <pt x="371" y="0" on="1"/>
        <pt x="62" y="0" on="1"/>
      </contour>
    </TTGlyph>
    <TTGlyph name="Emacron" xMin="62" yMin="0" xMax="371" yMax="801">
      <contour>
        <pt x="97" y="801" on="1"/>
        <pt x="332" y="801" on="1"/>
        <pt x="332" y="745" on="1"/>
        <pt x="97" y="745" on="1"/>
      </contour>
      <contour>
        <pt x="62" y="678" on="1"/>
        <pt x="371" y="678" on="1"/>
        <pt x="371" y="595" on="1"/>
        <pt x="156" y="595" on="1"/>
        <pt x="156" y="384" on="1"/>
        <pt x="343" y="384" on="1"/>
        <pt x="343" y="301" on="1"/>
        <pt x="156" y="301" on="1"/>
        <pt x="156" y="82" on="1"/>
        <pt x="371" y="82" on="1"/>
        <pt x="371" y="0" on="1"/>
        <pt x="62" y="0" on="1"/>
      </contour>
    </TTGlyph>
    <TTGlyph name="Eogonek" xMin="62" yMin="-183" xMax="371" yMax="678">
      <contour>
        <pt x="371" y="595" on="1"/>
        <pt x="156" y="595" on="1"/>
        <pt x="156" y="384" on="1"/>
        <pt x="343" y="384" on="1"/>
        <pt x="343" y="301" on="1"/>
        <pt x="156" y="301" on="1"/>
        <pt x="156" y="82" on="1"/>
        <pt x="371" y="82" on="1"/>
        <pt x="371" y="0" on="1"/>
        <pt x="370" y="0" on="1"/>
        <pt x="324" y="-39" on="0"/>
        <pt x="324" y="-93" on="1"/>
        <pt x="324" y="-129" on="0"/>
        <pt x="358" y="-129" on="1"/>
        <pt x="370" y="-129" on="1"/>
        <pt x="370" y="-183" on="1"/>
        <pt x="353" y="-183" on="1"/>
        <pt x="267" y="-183" on="0"/>
        <pt x="267" y="-112" on="1"/>
        <pt x="267" y="-48" on="0"/>
        <pt x="329" y="0" on="1"/>
        <pt x="62" y="0" on="1"/>
        <pt x="62" y="678" on="1"/>
        <pt x="371" y="678" on="1"/>
      </contour>
    </TTGlyph>
    <TTGlyph name="Eth" xMin="-5" yMin="0" xMax="426" yMax="678">
      <contour>
        <pt x="66" y="678" on="1"/>
        <pt x="262" y="678" on="1"/>
        <pt x="342" y="678" on="0"/>
        <pt x="426" y="598" on="0"/>
        <pt x="426" y="526" on="1"/>
        <pt x="426" y="156" on="1"/>
        <pt x="426" y="83" on="0"/>
        <pt x="347" y="0" on="0"/>
        <pt x="266" y="0" on="1"/>
        <pt x="66" y="0" on="1"/>
        <pt x="66" y="293" on="1"/>
        <pt x="-5" y="293" on="1"/>
        <pt x="-5" y="373" on="1"/>
        <pt x="66" y="373" on="1"/>
      </contour>
      <contour>
        <pt x="332" y="161" on="1"/>
        <pt x="332" y="523" on="1"/>
        <pt x="332" y="599" on="0"/>
        <pt x="253" y="599" on="1"/>
        <pt x="160" y="599" on="1"/>
        <pt x="160" y="373" on="1"/>
        <pt x="253" y="373" on="1"/>
        <pt x="253" y="293" on="1"/>
        <pt x="160" y="293" on="1"/>
        <pt x="160" y="82" on="1"/>
        <pt x="253" y="82" on="1"/>
        <pt x="332" y="82" on="0"/>
      </contour>
    </TTGlyph>
    <TTGlyph name="Euro" xMin="16" yMin="-5" xMax="382" yMax="683">
      <contour>
        <pt x="163" y="243" on="1"/>
        <pt x="163" y="151" on="1"/>
        <pt x="163" y="116" on="0"/>
        <pt x="207" y="80" on="0"/>
        <pt x="325" y="80" on="0"/>
        <pt x="382" y="96" on="1"/>
        <pt x="382" y="11" on="1"/>
        <pt x="330" y="-5" on="0"/>
        <pt x="260" y="-5" on="1"/>
        <pt x="68" y="-5" on="0"/>
        <pt x="68" y="145" on="1"/>
        <pt x="68" y="243" on="1"/>
        <pt x="16" y="243" on="1"/>
        <pt x="16" y="309" on="1"/>
        <pt x="68" y="309" on="1"/>
        <pt x="68" y="378" on="1"/>
        <pt x="16" y="378" on="1"/>
        <pt x="16" y="443" on="1"/>
        <pt x="68" y="443" on="1"/>
        <pt x="68" y="533" on="1"/>
        <pt x="68" y="604" on="0"/>
        <pt x="164" y="683" on="0"/>
        <pt x="261" y="683" on="1"/>
        <pt x="325" y="683" on="0"/>
        <pt x="379" y="668" on="1"/>
        <pt x="379" y="581" on="1"/>
        <pt x="320" y="598" on="0"/>
        <pt x="206" y="598" on="0"/>
        <pt x="163" y="562" on="0"/>
        <pt x="163" y="526" on="1"/>
        <pt x="163" y="443" on="1"/>
        <pt x="302" y="443" on="1"/>
        <pt x="302" y="378" on="1"/>
        <pt x="163" y="378" on="1"/>
        <pt x="163" y="309" on="1"/>
        <pt x="302" y="309" on="1"/>
        <pt x="302" y="243" on="1"/>
      </contour>
    </TTGlyph>
    <TTGlyph name="F" xMin="62" yMin="0" xMax="362" yMax="678">
      <contour>
        <pt x="62" y="678" on="1"/>
        <pt x="362" y="678" on="1"/>
        <pt x="362" y="595" on="1"/>
        <pt x="157" y="595" on="1"/>
        <pt x="157" y="367" on="1"/>
        <pt x="351" y="367" on="1"/>
        <pt x="351" y="283" on="1"/>
        <pt x="157" y="283" on="1"/>
        <pt x="157" y="0" on="1"/>
        <pt x="62" y="0" on="1"/>
      </contour>
    </TTGlyph>
    <TTGlyph name="G" xMin="52" yMin="-5" xMax="402" yMax="683">
      <contour>
        <pt x="52" y="528" on="1"/>
        <pt x="52" y="601" on="0"/>
        <pt x="151" y="683" on="0"/>
        <pt x="252" y="683" on="1"/>
        <pt x="320" y="683" on="0"/>
        <pt x="379" y="666" on="1"/>
        <pt x="379" y="576" on="1"/>
        <pt x="319" y="596" on="0"/>
        <pt x="253" y="596" on="1"/>
        <pt x="147" y="596" on="0"/>
        <pt x="147" y="520" on="1"/>
        <pt x="147" y="152" on="1"/>
        <pt x="147" y="80" on="0"/>
        <pt x="235" y="80" on="1"/>
        <pt x="284" y="80" on="0"/>
        <pt x="309" y="97" on="1"/>
        <pt x="309" y="342" on="1"/>
        <pt x="402" y="342" on="1"/>
        <pt x="402" y="35" on="1"/>
        <pt x="329" y="-5" on="0"/>
        <pt x="148" y="-5" on="0"/>
        <pt x="52" y="70" on="0"/>
        <pt x="52" y="145" on="1"/>
      </contour>
    </TTGlyph>
    <TTGlyph name="Gbreve" xMin="52" yMin="-5" xMax="402" yMax="828">
      <contour>
        <pt x="286" y="719" on="0"/>
        <pt x="184" y="719" on="0"/>
        <pt x="123" y="780" on="0"/>
        <pt x="122" y="828" on="1"/>
        <pt x="180" y="828" on="1"/>
        <pt x="181" y="802" on="0"/>
        <pt x="209" y="771" on="0"/>
        <pt x="261" y="771" on="0"/>
        <pt x="289" y="802" on="0"/>
        <pt x="290" y="828" on="1"/>
        <pt x="348" y="828" on="1"/>
        <pt x="347" y="780" on="0"/>
      </contour>
      <contour>
        <pt x="52" y="528" on="1"/>
        <pt x="52" y="601" on="0"/>
        <pt x="151" y="683" on="0"/>
        <pt x="252" y="683" on="1"/>
        <pt x="320" y="683" on="0"/>
        <pt x="379" y="666" on="1"/>
        <pt x="379" y="576" on="1"/>
        <pt x="319" y="596" on="0"/>
        <pt x="253" y="596" on="1"/>
        <pt x="147" y="596" on="0"/>
        <pt x="147" y="520" on="1"/>
        <pt x="147" y="152" on="1"/>
        <pt x="147" y="80" on="0"/>
        <pt x="235" y="80" on="1"/>
        <pt x="284" y="80" on="0"/>
        <pt x="309" y="97" on="1"/>
        <pt x="309" y="342" on="1"/>
        <pt x="402" y="342" on="1"/>
        <pt x="402" y="35" on="1"/>
        <pt x="329" y="-5" on="0"/>
        <pt x="148" y="-5" on="0"/>
        <pt x="52" y="70" on="0"/>
        <pt x="52" y="145" on="1"/>
      </contour>
    </TTGlyph>
    <TTGlyph name="H" xMin="62" yMin="0" xMax="444" yMax="678">
      <contour>
        <pt x="348" y="678" on="1"/>
        <pt x="444" y="678" on="1"/>
        <pt x="444" y="0" on="1"/>
        <pt x="348" y="0" on="1"/>
        <pt x="348" y="291" on="1"/>
        <pt x="157" y="291" on="1"/>
        <pt x="157" y="0" on="1"/>
        <pt x="62" y="0" on="1"/>
        <pt x="62" y="678" on="1"/>
        <pt x="157" y="678" on="1"/>
        <pt x="157" y="375" on="1"/>
        <pt x="348" y="375" on="1"/>
      </contour>
    </TTGlyph>
    <TTGlyph name="I" xMin="62" yMin="0" xMax="157" yMax="678">
      <contour>
        <pt x="62" y="678" on="1"/>
        <pt x="157" y="678" on="1"/>
        <pt x="157" y="0" on="1"/>
        <pt x="62" y="0" on="1"/>
      </contour>
    </TTGlyph>
    <TTGlyph name="Iacute" xMin="62" yMin="0" xMax="371" yMax="828">
      <contour>
        <pt x="62" y="678" on="1"/>
        <pt x="371" y="678" on="1"/>
        <pt x="371" y="595" on="1"/>
        <pt x="156" y="595" on="1"/>
        <pt x="156" y="384" on="1"/>
        <pt x="343" y="384" on="1"/>
        <pt x="343" y="301" on="1"/>
        <pt x="156" y="301" on="1"/>
        <pt x="156" y="82" on="1"/>
        <pt x="371" y="82" on="1"/>
        <pt x="371" y="0" on="1"/>
        <pt x="62" y="0" on="1"/>
      </contour>
      <contour>
        <pt x="228" y="828" on="1"/>
        <pt x="308" y="828" on="1"/>
        <pt x="244" y="719" on="1"/>
        <pt x="188" y="719" on="1"/>
      </contour>
    </TTGlyph>
    <TTGlyph name="Icircumflex" xMin="23" yMin="0" xMax="202" yMax="828">
      <contour>
        <pt x="62" y="0" on="1"/>
        <pt x="62" y="678" on="1"/>
        <pt x="157" y="678" on="1"/>
        <pt x="157" y="0" on="1"/>
      </contour>
      <contour>
        <pt x="113" y="779" on="1"/>
        <pt x="75" y="719" on="1"/>
        <pt x="23" y="719" on="1"/>
        <pt x="76" y="828" on="1"/>
        <pt x="149" y="828" on="1"/>
        <pt x="202" y="719" on="1"/>
        <pt x="150" y="719" on="1"/>
      </contour>
    </TTGlyph>
    <TTGlyph name="Idieresis" xMin="-9" yMin="0" xMax="225" yMax="815">
      <contour>
        <pt x="225" y="730" on="0"/>
        <pt x="137" y="730" on="0"/>
        <pt x="137" y="815" on="0"/>
        <pt x="225" y="815" on="0"/>
      </contour>
      <contour>
        <pt x="79" y="730" on="0"/>
        <pt x="-9" y="730" on="0"/>
        <pt x="-9" y="815" on="0"/>
        <pt x="79" y="815" on="0"/>
      </contour>
      <contour>
        <pt x="62" y="678" on="1"/>
        <pt x="157" y="678" on="1"/>
        <pt x="157" y="0" on="1"/>
        <pt x="62" y="0" on="1"/>
      </contour>
    </TTGlyph>
    <TTGlyph name="Idotaccent" xMin="62" yMin="0" xMax="157" yMax="831">
      <contour>
        <pt x="151" y="746" on="0"/>
        <pt x="63" y="746" on="0"/>
        <pt x="63" y="831" on="0"/>
        <pt x="151" y="831" on="0"/>
      </contour>
      <contour>
        <pt x="62" y="678" on="1"/>
        <pt x="157" y="678" on="1"/>
        <pt x="157" y="0" on="1"/>
        <pt x="62" y="0" on="1"/>
      </contour>
    </TTGlyph>
    <TTGlyph name="Igrave" xMin="62" yMin="0" xMax="371" yMax="828">
      <contour>
        <pt x="125" y="828" on="1"/>
        <pt x="205" y="828" on="1"/>
        <pt x="245" y="719" on="1"/>
        <pt x="189" y="719" on="1"/>
      </contour>
      <contour>
        <pt x="62" y="678" on="1"/>
        <pt x="371" y="678" on="1"/>
        <pt x="371" y="595" on="1"/>
        <pt x="156" y="595" on="1"/>
        <pt x="156" y="384" on="1"/>
        <pt x="343" y="384" on="1"/>
        <pt x="343" y="301" on="1"/>
        <pt x="156" y="301" on="1"/>
        <pt x="156" y="82" on="1"/>
        <pt x="371" y="82" on="1"/>
        <pt x="371" y="0" on="1"/>
        <pt x="62" y="0" on="1"/>
      </contour>
    </TTGlyph>
    <TTGlyph name="Imacron" xMin="-6" yMin="0" xMax="229" yMax="801">
      <contour>
        <pt x="-6" y="801" on="1"/>
        <pt x="229" y="801" on="1"/>
        <pt x="229" y="745" on="1"/>
        <pt x="-6" y="745" on="1"/>
      </contour>
      <contour>
        <pt x="62" y="678" on="1"/>
        <pt x="157" y="678" on="1"/>
        <pt x="157" y="0" on="1"/>
        <pt x="62" y="0" on="1"/>
      </contour>
    </TTGlyph>
    <TTGlyph name="Iogonek" xMin="54" yMin="-183" xMax="157" yMax="678">
      <contour>
        <pt x="157" y="678" on="1"/>
        <pt x="157" y="0" on="1"/>
        <pt x="111" y="-39" on="0"/>
        <pt x="111" y="-93" on="1"/>
        <pt x="111" y="-129" on="0"/>
        <pt x="145" y="-129" on="1"/>
        <pt x="157" y="-129" on="1"/>
        <pt x="157" y="-183" on="1"/>
        <pt x="140" y="-183" on="1"/>
        <pt x="54" y="-183" on="0"/>
        <pt x="54" y="-112" on="1"/>
        <pt x="54" y="-48" on="0"/>
        <pt x="116" y="0" on="1"/>
        <pt x="62" y="0" on="1"/>
        <pt x="62" y="678" on="1"/>
      </contour>
    </TTGlyph>
    <TTGlyph name="J" xMin="-4" yMin="-149" xMax="159" yMax="678">
      <contour>
        <pt x="64" y="678" on="1"/>
        <pt x="159" y="678" on="1"/>
        <pt x="159" y="201" on="1"/>
        <pt x="159" y="72" on="0"/>
        <pt x="125" y="-45" on="1"/>
        <pt x="94" y="-149" on="1"/>
        <pt x="-4" y="-149" on="1"/>
        <pt x="26" y="-44" on="1"/>
        <pt x="64" y="87" on="0"/>
        <pt x="64" y="200" on="1"/>
      </contour>
    </TTGlyph>
    <TTGlyph name="K" xMin="62" yMin="0" xMax="435" yMax="678">
      <contour>
        <pt x="62" y="678" on="1"/>
        <pt x="156" y="678" on="1"/>
        <pt x="156" y="0" on="1"/>
        <pt x="62" y="0" on="1"/>
      </contour>
      <contour>
        <pt x="325" y="678" on="1"/>
        <pt x="426" y="678" on="1"/>
        <pt x="289" y="343" on="1"/>
        <pt x="435" y="0" on="1"/>
        <pt x="330" y="0" on="1"/>
        <pt x="189" y="341" on="1"/>
      </contour>
    </TTGlyph>
    <TTGlyph name="L" xMin="62" yMin="0" xMax="355" yMax="678">
      <contour>
        <pt x="62" y="678" on="1"/>
        <pt x="157" y="678" on="1"/>
        <pt x="157" y="81" on="1"/>
        <pt x="355" y="81" on="1"/>
        <pt x="355" y="0" on="1"/>
        <pt x="62" y="0" on="1"/>
      </contour>
    </TTGlyph>
    <TTGlyph name="Lacute" xMin="62" yMin="0" xMax="355" yMax="828">
      <contour>
        <pt x="62" y="678" on="1"/>
        <pt x="157" y="678" on="1"/>
        <pt x="157" y="81" on="1"/>
        <pt x="355" y="81" on="1"/>
        <pt x="355" y="0" on="1"/>
        <pt x="62" y="0" on="1"/>
      </contour>
      <contour>
        <pt x="118" y="828" on="1"/>
        <pt x="198" y="828" on="1"/>
        <pt x="134" y="719" on="1"/>
        <pt x="78" y="719" on="1"/>
      </contour>
    </TTGlyph>
    <TTGlyph name="Lcaron" xMin="18" yMin="0" xMax="355" yMax="828">
      <contour>
        <pt x="157" y="81" on="1"/>
        <pt x="355" y="81" on="1"/>
        <pt x="355" y="0" on="1"/>
        <pt x="62" y="0" on="1"/>
        <pt x="62" y="678" on="1"/>
        <pt x="157" y="678" on="1"/>
      </contour>
      <contour>
        <pt x="71" y="719" on="1"/>
        <pt x="18" y="828" on="1"/>
        <pt x="70" y="828" on="1"/>
        <pt x="108" y="768" on="1"/>
        <pt x="145" y="828" on="1"/>
        <pt x="197" y="828" on="1"/>
        <pt x="144" y="719" on="1"/>
      </contour>
    </TTGlyph>
    <TTGlyph name="Lslash" xMin="11" yMin="0" xMax="359" yMax="678">
      <contour>
        <pt x="161" y="81" on="1"/>
        <pt x="359" y="81" on="1"/>
        <pt x="359" y="0" on="1"/>
        <pt x="66" y="0" on="1"/>
        <pt x="66" y="274" on="1"/>
        <pt x="11" y="248" on="1"/>
        <pt x="11" y="317" on="1"/>
        <pt x="66" y="343" on="1"/>
        <pt x="66" y="678" on="1"/>
        <pt x="161" y="678" on="1"/>
        <pt x="161" y="389" on="1"/>
        <pt x="255" y="434" on="1"/>
        <pt x="255" y="364" on="1"/>
        <pt x="161" y="319" on="1"/>
      </contour>
    </TTGlyph>
    <TTGlyph name="M" xMin="62" yMin="0" xMax="560" yMax="678">
      <contour>
        <pt x="560" y="678" on="1"/>
        <pt x="560" y="0" on="1"/>
        <pt x="470" y="0" on="1"/>
        <pt x="470" y="321" on="1"/>
        <pt x="470" y="424" on="0"/>
        <pt x="480" y="522" on="1"/>
        <pt x="354" y="178" on="1"/>
        <pt x="267" y="178" on="1"/>
        <pt x="141" y="522" on="1"/>
        <pt x="151" y="429" on="0"/>
        <pt x="151" y="322" on="1"/>
        <pt x="151" y="0" on="1"/>
        <pt x="62" y="0" on="1"/>
        <pt x="62" y="678" on="1"/>
        <pt x="167" y="678" on="1"/>
        <pt x="311" y="276" on="1"/>
        <pt x="455" y="678" on="1"/>
      </contour>
    </TTGlyph>
    <TTGlyph name="N" xMin="62" yMin="0" xMax="447" yMax="678">
      <contour>
        <pt x="354" y="678" on="1"/>
        <pt x="447" y="678" on="1"/>
        <pt x="447" y="0" on="1"/>
        <pt x="347" y="0" on="1"/>
        <pt x="190" y="401" on="0"/>
        <pt x="142" y="532" on="1"/>
        <pt x="142" y="521" on="0"/>
        <pt x="146" y="486" on="1"/>
        <pt x="154" y="399" on="0"/>
        <pt x="154" y="293" on="1"/>
        <pt x="154" y="0" on="1"/>
        <pt x="62" y="0" on="1"/>
        <pt x="62" y="678" on="1"/>
        <pt x="163" y="678" on="1"/>
        <pt x="302" y="326" on="0"/>
        <pt x="362" y="158" on="0"/>
        <pt x="366" y="147" on="1"/>
        <pt x="366" y="156" on="0"/>
        <pt x="355" y="315" on="0"/>
        <pt x="354" y="389" on="1"/>
      </contour>
    </TTGlyph>
    <TTGlyph name="Nacute" xMin="62" yMin="0" xMax="447" yMax="828">
      <contour>
        <pt x="354" y="678" on="1"/>
        <pt x="447" y="678" on="1"/>
        <pt x="447" y="0" on="1"/>
        <pt x="347" y="0" on="1"/>
        <pt x="190" y="401" on="0"/>
        <pt x="142" y="532" on="1"/>
        <pt x="142" y="521" on="0"/>
        <pt x="146" y="486" on="1"/>
        <pt x="154" y="399" on="0"/>
        <pt x="154" y="293" on="1"/>
        <pt x="154" y="0" on="1"/>
        <pt x="62" y="0" on="1"/>
        <pt x="62" y="678" on="1"/>
        <pt x="163" y="678" on="1"/>
        <pt x="302" y="326" on="0"/>
        <pt x="362" y="158" on="0"/>
        <pt x="366" y="147" on="1"/>
        <pt x="366" y="156" on="0"/>
        <pt x="355" y="315" on="0"/>
        <pt x="354" y="389" on="1"/>
      </contour>
      <contour>
        <pt x="262" y="828" on="1"/>
        <pt x="342" y="828" on="1"/>
        <pt x="278" y="719" on="1"/>
        <pt x="222" y="719" on="1"/>
      </contour>
    </TTGlyph>
    <TTGlyph name="Ncaron" xMin="62" yMin="0" xMax="447" yMax="828">
      <contour>
        <pt x="354" y="678" on="1"/>
        <pt x="447" y="678" on="1"/>
        <pt x="447" y="0" on="1"/>
        <pt x="347" y="0" on="1"/>
        <pt x="190" y="401" on="0"/>
        <pt x="142" y="532" on="1"/>
        <pt x="142" y="521" on="0"/>
        <pt x="146" y="486" on="1"/>
        <pt x="154" y="399" on="0"/>
        <pt x="154" y="293" on="1"/>
        <pt x="154" y="0" on="1"/>
        <pt x="62" y="0" on="1"/>
        <pt x="62" y="678" on="1"/>
        <pt x="163" y="678" on="1"/>
        <pt x="302" y="326" on="0"/>
        <pt x="362" y="158" on="0"/>
        <pt x="366" y="147" on="1"/>
        <pt x="366" y="156" on="0"/>
        <pt x="355" y="315" on="0"/>
        <pt x="354" y="389" on="1"/>
      </contour>
      <contour>
        <pt x="216" y="719" on="1"/>
        <pt x="163" y="828" on="1"/>
        <pt x="215" y="828" on="1"/>
        <pt x="253" y="768" on="1"/>
        <pt x="290" y="828" on="1"/>
        <pt x="342" y="828" on="1"/>
        <pt x="289" y="719" on="1"/>
      </contour>
    </TTGlyph>
    <TTGlyph name="Ntilde" xMin="62" yMin="0" xMax="447" yMax="821">
      <contour>
        <pt x="333" y="821" on="1"/>
        <pt x="392" y="821" on="1"/>
        <pt x="392" y="810" on="1"/>
        <pt x="390" y="727" on="0"/>
        <pt x="319" y="727" on="1"/>
        <pt x="293" y="727" on="0"/>
        <pt x="225" y="767" on="0"/>
        <pt x="212" y="767" on="1"/>
        <pt x="190" y="767" on="0"/>
        <pt x="190" y="734" on="1"/>
        <pt x="190" y="725" on="1"/>
        <pt x="131" y="725" on="1"/>
        <pt x="131" y="735" on="1"/>
        <pt x="133" y="819" on="0"/>
        <pt x="205" y="819" on="1"/>
        <pt x="233" y="819" on="0"/>
        <pt x="301" y="779" on="0"/>
        <pt x="311" y="779" on="1"/>
        <pt x="333" y="779" on="0"/>
        <pt x="333" y="812" on="1"/>
      </contour>
      <contour>
        <pt x="354" y="678" on="1"/>
        <pt x="447" y="678" on="1"/>
        <pt x="447" y="0" on="1"/>
        <pt x="347" y="0" on="1"/>
        <pt x="190" y="401" on="0"/>
        <pt x="142" y="532" on="1"/>
        <pt x="142" y="521" on="0"/>
        <pt x="146" y="486" on="1"/>
        <pt x="154" y="399" on="0"/>
        <pt x="154" y="293" on="1"/>
        <pt x="154" y="0" on="1"/>
        <pt x="62" y="0" on="1"/>
        <pt x="62" y="678" on="1"/>
        <pt x="163" y="678" on="1"/>
        <pt x="302" y="326" on="0"/>
        <pt x="362" y="158" on="0"/>
        <pt x="366" y="147" on="1"/>
        <pt x="366" y="156" on="0"/>
        <pt x="355" y="315" on="0"/>
        <pt x="354" y="389" on="1"/>
      </contour>
    </TTGlyph>
    <TTGlyph name="O" xMin="52" yMin="-10" xMax="414" yMax="688">
      <contour>
        <pt x="320" y="520" on="1"/>
        <pt x="320" y="602" on="0"/>
        <pt x="146" y="602" on="0"/>
        <pt x="146" y="520" on="1"/>
        <pt x="146" y="158" on="1"/>
        <pt x="146" y="75" on="0"/>
        <pt x="320" y="75" on="0"/>
        <pt x="320" y="158" on="1"/>
      </contour>
      <contour>
        <pt x="52" y="523" on="1"/>
        <pt x="52" y="598" on="0"/>
        <pt x="143" y="688" on="0"/>
        <pt x="322" y="688" on="0"/>
        <pt x="414" y="597" on="0"/>
        <pt x="414" y="523" on="1"/>
        <pt x="414" y="154" on="1"/>
        <pt x="414" y="80" on="0"/>
        <pt x="322" y="-10" on="0"/>
        <pt x="144" y="-10" on="0"/>
        <pt x="52" y="80" on="0"/>
        <pt x="52" y="154" on="1"/>
      </contour>
    </TTGlyph>
    <TTGlyph name="OE" xMin="72" yMin="0" xMax="654" yMax="678">
      <contour>
        <pt x="654" y="595" on="1"/>
        <pt x="439" y="595" on="1"/>
        <pt x="439" y="384" on="1"/>
        <pt x="626" y="384" on="1"/>
        <pt x="626" y="301" on="1"/>
        <pt x="439" y="301" on="1"/>
        <pt x="439" y="82" on="1"/>
        <pt x="654" y="82" on="1"/>
        <pt x="654" y="0" on="1"/>
        <pt x="232" y="0" on="1"/>
        <pt x="150" y="0" on="0"/>
        <pt x="72" y="83" on="0"/>
        <pt x="72" y="156" on="1"/>
        <pt x="72" y="526" on="1"/>
        <pt x="72" y="598" on="0"/>
        <pt x="156" y="678" on="0"/>
        <pt x="236" y="678" on="1"/>
        <pt x="654" y="678" on="1"/>
      </contour>
      <contour>
        <pt x="245" y="82" on="1"/>
        <pt x="345" y="82" on="1"/>
        <pt x="345" y="599" on="1"/>
        <pt x="245" y="599" on="1"/>
        <pt x="166" y="599" on="0"/>
        <pt x="166" y="523" on="1"/>
        <pt x="166" y="161" on="1"/>
        <pt x="166" y="82" on="0"/>
      </contour>
    </TTGlyph>
    <TTGlyph name="Oacute" xMin="52" yMin="-10" xMax="414" yMax="828">
      <contour>
        <pt x="320" y="520" on="1"/>
        <pt x="320" y="602" on="0"/>
        <pt x="146" y="602" on="0"/>
        <pt x="146" y="520" on="1"/>
        <pt x="146" y="158" on="1"/>
        <pt x="146" y="75" on="0"/>
        <pt x="320" y="75" on="0"/>
        <pt x="320" y="158" on="1"/>
      </contour>
      <contour>
        <pt x="52" y="523" on="1"/>
        <pt x="52" y="598" on="0"/>
        <pt x="143" y="688" on="0"/>
        <pt x="322" y="688" on="0"/>
        <pt x="414" y="597" on="0"/>
        <pt x="414" y="523" on="1"/>
        <pt x="414" y="154" on="1"/>
        <pt x="414" y="80" on="0"/>
        <pt x="322" y="-10" on="0"/>
        <pt x="144" y="-10" on="0"/>
        <pt x="52" y="80" on="0"/>
        <pt x="52" y="154" on="1"/>
      </contour>
      <contour>
        <pt x="248" y="828" on="1"/>
        <pt x="328" y="828" on="1"/>
        <pt x="264" y="719" on="1"/>
        <pt x="208" y="719" on="1"/>
      </contour>
    </TTGlyph>
    <TTGlyph name="Ocircumflex" xMin="52" yMin="-10" xMax="414" yMax="828">
      <contour>
        <pt x="52" y="154" on="1"/>
        <pt x="52" y="523" on="1"/>
        <pt x="52" y="598" on="0"/>
        <pt x="143" y="688" on="0"/>
        <pt x="322" y="688" on="0"/>
        <pt x="414" y="597" on="0"/>
        <pt x="414" y="523" on="1"/>
        <pt x="414" y="154" on="1"/>
        <pt x="414" y="80" on="0"/>
        <pt x="322" y="-10" on="0"/>
        <pt x="144" y="-10" on="0"/>
        <pt x="52" y="80" on="0"/>
      </contour>
      <contour>
        <pt x="320" y="158" on="1"/>
        <pt x="320" y="520" on="1"/>
        <pt x="320" y="602" on="0"/>
        <pt x="146" y="602" on="0"/>
        <pt x="146" y="520" on="1"/>
        <pt x="146" y="158" on="1"/>
        <pt x="146" y="75" on="0"/>
        <pt x="320" y="75" on="0"/>
      </contour>
      <contour>
        <pt x="234" y="779" on="1"/>
        <pt x="196" y="719" on="1"/>
        <pt x="144" y="719" on="1"/>
        <pt x="197" y="828" on="1"/>
        <pt x="270" y="828" on="1"/>
        <pt x="323" y="719" on="1"/>
        <pt x="271" y="719" on="1"/>
      </contour>
    </TTGlyph>
    <TTGlyph name="Odieresis" xMin="52" yMin="-10" xMax="414" yMax="815">
      <contour>
        <pt x="320" y="520" on="1"/>
        <pt x="320" y="602" on="0"/>
        <pt x="146" y="602" on="0"/>
        <pt x="146" y="520" on="1"/>
        <pt x="146" y="158" on="1"/>
        <pt x="146" y="75" on="0"/>
        <pt x="320" y="75" on="0"/>
        <pt x="320" y="158" on="1"/>
      </contour>
      <contour>
        <pt x="52" y="523" on="1"/>
        <pt x="52" y="598" on="0"/>
        <pt x="143" y="688" on="0"/>
        <pt x="322" y="688" on="0"/>
        <pt x="414" y="597" on="0"/>
        <pt x="414" y="523" on="1"/>
        <pt x="414" y="154" on="1"/>
        <pt x="414" y="80" on="0"/>
        <pt x="322" y="-10" on="0"/>
        <pt x="144" y="-10" on="0"/>
        <pt x="52" y="80" on="0"/>
        <pt x="52" y="154" on="1"/>
      </contour>
      <contour>
        <pt x="350" y="730" on="0"/>
        <pt x="262" y="730" on="0"/>
        <pt x="262" y="815" on="0"/>
        <pt x="350" y="815" on="0"/>
      </contour>
      <contour>
        <pt x="204" y="730" on="0"/>
        <pt x="116" y="730" on="0"/>
        <pt x="116" y="815" on="0"/>
        <pt x="204" y="815" on="0"/>
      </contour>
    </TTGlyph>
    <TTGlyph name="Ograve" xMin="52" yMin="-10" xMax="414" yMax="828">
      <contour>
        <pt x="136" y="828" on="1"/>
        <pt x="216" y="828" on="1"/>
        <pt x="256" y="719" on="1"/>
        <pt x="200" y="719" on="1"/>
      </contour>
      <contour>
        <pt x="320" y="520" on="1"/>
        <pt x="320" y="602" on="0"/>
        <pt x="146" y="602" on="0"/>
        <pt x="146" y="520" on="1"/>
        <pt x="146" y="158" on="1"/>
        <pt x="146" y="75" on="0"/>
        <pt x="320" y="75" on="0"/>
        <pt x="320" y="158" on="1"/>
      </contour>
      <contour>
        <pt x="52" y="523" on="1"/>
        <pt x="52" y="598" on="0"/>
        <pt x="143" y="688" on="0"/>
        <pt x="322" y="688" on="0"/>
        <pt x="414" y="597" on="0"/>
        <pt x="414" y="523" on="1"/>
        <pt x="414" y="154" on="1"/>
        <pt x="414" y="80" on="0"/>
        <pt x="322" y="-10" on="0"/>
        <pt x="144" y="-10" on="0"/>
        <pt x="52" y="80" on="0"/>
        <pt x="52" y="154" on="1"/>
      </contour>
    </TTGlyph>
    <TTGlyph name="Ohungarumlaut" xMin="52" yMin="-10" xMax="414" yMax="828">
      <contour>
        <pt x="320" y="520" on="1"/>
        <pt x="320" y="602" on="0"/>
        <pt x="146" y="602" on="0"/>
        <pt x="146" y="520" on="1"/>
        <pt x="146" y="158" on="1"/>
        <pt x="146" y="75" on="0"/>
        <pt x="320" y="75" on="0"/>
        <pt x="320" y="158" on="1"/>
      </contour>
      <contour>
        <pt x="52" y="523" on="1"/>
        <pt x="52" y="598" on="0"/>
        <pt x="143" y="688" on="0"/>
        <pt x="322" y="688" on="0"/>
        <pt x="414" y="597" on="0"/>
        <pt x="414" y="523" on="1"/>
        <pt x="414" y="154" on="1"/>
        <pt x="414" y="80" on="0"/>
        <pt x="322" y="-10" on="0"/>
        <pt x="144" y="-10" on="0"/>
        <pt x="52" y="80" on="0"/>
        <pt x="52" y="154" on="1"/>
      </contour>
      <contour>
        <pt x="199" y="828" on="1"/>
        <pt x="273" y="828" on="1"/>
        <pt x="207" y="719" on="1"/>
        <pt x="157" y="719" on="1"/>
      </contour>
      <contour>
        <pt x="295" y="828" on="1"/>
        <pt x="368" y="828" on="1"/>
        <pt x="302" y="719" on="1"/>
        <pt x="252" y="719" on="1"/>
      </contour>
    </TTGlyph>
    <TTGlyph name="Omacron" xMin="52" yMin="-10" xMax="414" yMax="801">
      <contour>
        <pt x="320" y="520" on="1"/>
        <pt x="320" y="602" on="0"/>
        <pt x="146" y="602" on="0"/>
        <pt x="146" y="520" on="1"/>
        <pt x="146" y="158" on="1"/>
        <pt x="146" y="75" on="0"/>
        <pt x="320" y="75" on="0"/>
        <pt x="320" y="158" on="1"/>
      </contour>
      <contour>
        <pt x="52" y="523" on="1"/>
        <pt x="52" y="598" on="0"/>
        <pt x="143" y="688" on="0"/>
        <pt x="322" y="688" on="0"/>
        <pt x="414" y="597" on="0"/>
        <pt x="414" y="523" on="1"/>
        <pt x="414" y="154" on="1"/>
        <pt x="414" y="80" on="0"/>
        <pt x="322" y="-10" on="0"/>
        <pt x="144" y="-10" on="0"/>
        <pt x="52" y="80" on="0"/>
        <pt x="52" y="154" on="1"/>
      </contour>
      <contour>
        <pt x="116" y="801" on="1"/>
        <pt x="351" y="801" on="1"/>
        <pt x="351" y="745" on="1"/>
        <pt x="116" y="745" on="1"/>
      </contour>
    </TTGlyph>
    <TTGlyph name="Oslash" xMin="50" yMin="-10" xMax="416" yMax="688">
      <contour>
        <pt x="414" y="523" on="1"/>
        <pt x="414" y="154" on="1"/>
        <pt x="414" y="80" on="0"/>
        <pt x="322" y="-10" on="0"/>
        <pt x="233" y="-10" on="1"/>
        <pt x="166" y="-10" on="0"/>
        <pt x="122" y="17" on="1"/>
        <pt x="114" y="0" on="1"/>
        <pt x="50" y="0" on="1"/>
        <pt x="77" y="60" on="1"/>
        <pt x="52" y="98" on="0"/>
        <pt x="52" y="154" on="1"/>
        <pt x="52" y="523" on="1"/>
        <pt x="52" y="598" on="0"/>
        <pt x="143" y="688" on="0"/>
        <pt x="233" y="688" on="1"/>
        <pt x="300" y="688" on="0"/>
        <pt x="344" y="661" on="1"/>
        <pt x="352" y="678" on="1"/>
        <pt x="416" y="678" on="1"/>
        <pt x="389" y="617" on="1"/>
        <pt x="414" y="579" on="0"/>
      </contour>
      <contour>
        <pt x="146" y="520" on="1"/>
        <pt x="146" y="216" on="1"/>
        <pt x="305" y="573" on="1"/>
        <pt x="284" y="602" on="0"/>
        <pt x="233" y="602" on="1"/>
        <pt x="146" y="602" on="0"/>
      </contour>
      <contour>
        <pt x="320" y="158" on="1"/>
        <pt x="320" y="462" on="1"/>
        <pt x="161" y="105" on="1"/>
        <pt x="182" y="75" on="0"/>
        <pt x="233" y="75" on="1"/>
        <pt x="320" y="75" on="0"/>
      </contour>
    </TTGlyph>
    <TTGlyph name="Otilde" xMin="52" yMin="-10" xMax="414" yMax="821">
      <contour>
        <pt x="304" y="821" on="1"/>
        <pt x="363" y="821" on="1"/>
        <pt x="363" y="810" on="1"/>
        <pt x="361" y="727" on="0"/>
        <pt x="290" y="727" on="1"/>
        <pt x="264" y="727" on="0"/>
        <pt x="196" y="767" on="0"/>
        <pt x="183" y="767" on="1"/>
        <pt x="161" y="767" on="0"/>
        <pt x="161" y="734" on="1"/>
        <pt x="161" y="725" on="1"/>
        <pt x="102" y="725" on="1"/>
        <pt x="102" y="735" on="1"/>
        <pt x="104" y="819" on="0"/>
        <pt x="176" y="819" on="1"/>
        <pt x="204" y="819" on="0"/>
        <pt x="272" y="779" on="0"/>
        <pt x="282" y="779" on="1"/>
        <pt x="304" y="779" on="0"/>
        <pt x="304" y="812" on="1"/>
      </contour>
      <contour>
        <pt x="320" y="520" on="1"/>
        <pt x="320" y="602" on="0"/>
        <pt x="146" y="602" on="0"/>
        <pt x="146" y="520" on="1"/>
        <pt x="146" y="158" on="1"/>
        <pt x="146" y="75" on="0"/>
        <pt x="320" y="75" on="0"/>
        <pt x="320" y="158" on="1"/>
      </contour>
      <contour>
        <pt x="52" y="523" on="1"/>
        <pt x="52" y="598" on="0"/>
        <pt x="143" y="688" on="0"/>
        <pt x="322" y="688" on="0"/>
        <pt x="414" y="597" on="0"/>
        <pt x="414" y="523" on="1"/>
        <pt x="414" y="154" on="1"/>
        <pt x="414" y="80" on="0"/>
        <pt x="322" y="-10" on="0"/>
        <pt x="144" y="-10" on="0"/>
        <pt x="52" y="80" on="0"/>
        <pt x="52" y="154" on="1"/>
      </contour>
    </TTGlyph>
    <TTGlyph name="P" xMin="62" yMin="0" xMax="409" yMax="678">
      <contour>
        <pt x="315" y="518" on="1"/>
        <pt x="315" y="595" on="0"/>
        <pt x="235" y="595" on="1"/>
        <pt x="156" y="595" on="1"/>
        <pt x="156" y="304" on="1"/>
        <pt x="235" y="304" on="1"/>
        <pt x="315" y="304" on="0"/>
        <pt x="315" y="382" on="1"/>
      </contour>
      <contour>
        <pt x="62" y="678" on="1"/>
        <pt x="244" y="678" on="1"/>
        <pt x="324" y="678" on="0"/>
        <pt x="409" y="598" on="0"/>
        <pt x="409" y="526" on="1"/>
        <pt x="409" y="374" on="1"/>
        <pt x="409" y="302" on="0"/>
        <pt x="324" y="222" on="0"/>
        <pt x="244" y="222" on="1"/>
        <pt x="156" y="222" on="1"/>
        <pt x="156" y="0" on="1"/>
        <pt x="62" y="0" on="1"/>
      </contour>
    </TTGlyph>
    <TTGlyph name="Q" xMin="52" yMin="-97" xMax="463" yMax="688">
      <contour>
        <pt x="233" y="-10" on="1"/>
        <pt x="144" y="-10" on="0"/>
        <pt x="52" y="80" on="0"/>
        <pt x="52" y="154" on="1"/>
        <pt x="52" y="523" on="1"/>
        <pt x="52" y="598" on="0"/>
        <pt x="143" y="688" on="0"/>
        <pt x="322" y="688" on="0"/>
        <pt x="414" y="597" on="0"/>
        <pt x="414" y="523" on="1"/>
        <pt x="414" y="154" on="1"/>
        <pt x="414" y="65" on="0"/>
        <pt x="352" y="22" on="1"/>
        <pt x="463" y="-97" on="1"/>
        <pt x="348" y="-97" on="1"/>
        <pt x="266" y="-8" on="1"/>
        <pt x="246" y="-10" on="0"/>
      </contour>
      <contour>
        <pt x="146" y="520" on="1"/>
        <pt x="146" y="158" on="1"/>
        <pt x="146" y="75" on="0"/>
        <pt x="320" y="75" on="0"/>
        <pt x="320" y="158" on="1"/>
        <pt x="320" y="520" on="1"/>
        <pt x="320" y="602" on="0"/>
        <pt x="146" y="602" on="0"/>
      </contour>
    </TTGlyph>
    <TTGlyph name="R" xMin="62" yMin="0" xMax="432" yMax="678">
      <contour>
        <pt x="156" y="264" on="1"/>
        <pt x="156" y="0" on="1"/>
        <pt x="62" y="0" on="1"/>
        <pt x="62" y="678" on="1"/>
        <pt x="244" y="678" on="1"/>
        <pt x="324" y="678" on="0"/>
        <pt x="409" y="598" on="0"/>
        <pt x="409" y="527" on="1"/>
        <pt x="409" y="419" on="1"/>
        <pt x="409" y="308" on="0"/>
        <pt x="324" y="276" on="1"/>
        <pt x="432" y="0" on="1"/>
        <pt x="328" y="0" on="1"/>
        <pt x="231" y="264" on="1"/>
      </contour>
      <contour>
        <pt x="156" y="596" on="1"/>
        <pt x="156" y="343" on="1"/>
        <pt x="236" y="343" on="1"/>
        <pt x="278" y="343" on="0"/>
        <pt x="315" y="381" on="0"/>
        <pt x="315" y="420" on="1"/>
        <pt x="315" y="521" on="1"/>
        <pt x="315" y="596" on="0"/>
        <pt x="236" y="596" on="1"/>
      </contour>
    </TTGlyph>
    <TTGlyph name="Racute" xMin="62" yMin="0" xMax="432" yMax="828">
      <contour>
        <pt x="156" y="264" on="1"/>
        <pt x="156" y="0" on="1"/>
        <pt x="62" y="0" on="1"/>
        <pt x="62" y="678" on="1"/>
        <pt x="244" y="678" on="1"/>
        <pt x="324" y="678" on="0"/>
        <pt x="409" y="598" on="0"/>
        <pt x="409" y="527" on="1"/>
        <pt x="409" y="419" on="1"/>
        <pt x="409" y="308" on="0"/>
        <pt x="324" y="276" on="1"/>
        <pt x="432" y="0" on="1"/>
        <pt x="328" y="0" on="1"/>
        <pt x="231" y="264" on="1"/>
      </contour>
      <contour>
        <pt x="156" y="596" on="1"/>
        <pt x="156" y="343" on="1"/>
        <pt x="236" y="343" on="1"/>
        <pt x="278" y="343" on="0"/>
        <pt x="315" y="381" on="0"/>
        <pt x="315" y="420" on="1"/>
        <pt x="315" y="521" on="1"/>
        <pt x="315" y="596" on="0"/>
        <pt x="236" y="596" on="1"/>
      </contour>
      <contour>
        <pt x="318" y="828" on="1"/>
        <pt x="254" y="719" on="1"/>
        <pt x="198" y="719" on="1"/>
        <pt x="238" y="828" on="1"/>
      </contour>
    </TTGlyph>
    <TTGlyph name="Rcaron" xMin="62" yMin="0" xMax="432" yMax="828">
      <contour>
        <pt x="156" y="264" on="1"/>
        <pt x="156" y="0" on="1"/>
        <pt x="62" y="0" on="1"/>
        <pt x="62" y="678" on="1"/>
        <pt x="244" y="678" on="1"/>
        <pt x="324" y="678" on="0"/>
        <pt x="409" y="598" on="0"/>
        <pt x="409" y="527" on="1"/>
        <pt x="409" y="419" on="1"/>
        <pt x="409" y="308" on="0"/>
        <pt x="324" y="276" on="1"/>
        <pt x="432" y="0" on="1"/>
        <pt x="328" y="0" on="1"/>
        <pt x="231" y="264" on="1"/>
      </contour>
      <contour>
        <pt x="156" y="596" on="1"/>
        <pt x="156" y="343" on="1"/>
        <pt x="236" y="343" on="1"/>
        <pt x="278" y="343" on="0"/>
        <pt x="315" y="381" on="0"/>
        <pt x="315" y="420" on="1"/>
        <pt x="315" y="521" on="1"/>
        <pt x="315" y="596" on="0"/>
        <pt x="236" y="596" on="1"/>
      </contour>
      <contour>
        <pt x="187" y="719" on="1"/>
        <pt x="134" y="828" on="1"/>
        <pt x="186" y="828" on="1"/>
        <pt x="224" y="768" on="1"/>
        <pt x="261" y="828" on="1"/>
        <pt x="313" y="828" on="1"/>
        <pt x="260" y="719" on="1"/>
      </contour>
    </TTGlyph>
    <TTGlyph name="S" xMin="26" yMin="-5" xMax="375" yMax="683">
      <contour>
        <pt x="26" y="534" on="1"/>
        <pt x="26" y="605" on="0"/>
        <pt x="119" y="683" on="0"/>
        <pt x="291" y="683" on="0"/>
        <pt x="345" y="665" on="1"/>
        <pt x="345" y="575" on="1"/>
        <pt x="291" y="596" on="0"/>
        <pt x="214" y="596" on="1"/>
        <pt x="121" y="596" on="0"/>
        <pt x="121" y="527" on="1"/>
        <pt x="121" y="488" on="1"/>
        <pt x="121" y="456" on="0"/>
        <pt x="146" y="419" on="0"/>
        <pt x="178" y="401" on="1"/>
        <pt x="294" y="336" on="1"/>
        <pt x="375" y="292" on="0"/>
        <pt x="375" y="203" on="1"/>
        <pt x="375" y="147" on="1"/>
        <pt x="375" y="74" on="0"/>
        <pt x="273" y="-5" on="0"/>
        <pt x="88" y="-5" on="0"/>
        <pt x="32" y="16" on="1"/>
        <pt x="32" y="106" on="1"/>
        <pt x="98" y="82" on="0"/>
        <pt x="171" y="82" on="1"/>
        <pt x="280" y="82" on="0"/>
        <pt x="280" y="156" on="1"/>
        <pt x="280" y="190" on="1"/>
        <pt x="280" y="220" on="0"/>
        <pt x="258" y="253" on="0"/>
        <pt x="228" y="269" on="1"/>
        <pt x="115" y="331" on="1"/>
        <pt x="26" y="379" on="0"/>
        <pt x="26" y="474" on="1"/>
      </contour>
    </TTGlyph>
    <TTGlyph name="Sacute" xMin="26" yMin="-5" xMax="375" yMax="828">
      <contour>
        <pt x="26" y="534" on="1"/>
        <pt x="26" y="605" on="0"/>
        <pt x="119" y="683" on="0"/>
        <pt x="291" y="683" on="0"/>
        <pt x="345" y="665" on="1"/>
        <pt x="345" y="575" on="1"/>
        <pt x="291" y="596" on="0"/>
        <pt x="214" y="596" on="1"/>
        <pt x="121" y="596" on="0"/>
        <pt x="121" y="527" on="1"/>
        <pt x="121" y="488" on="1"/>
        <pt x="121" y="456" on="0"/>
        <pt x="146" y="419" on="0"/>
        <pt x="178" y="401" on="1"/>
        <pt x="294" y="336" on="1"/>
        <pt x="375" y="292" on="0"/>
        <pt x="375" y="203" on="1"/>
        <pt x="375" y="147" on="1"/>
        <pt x="375" y="74" on="0"/>
        <pt x="273" y="-5" on="0"/>
        <pt x="88" y="-5" on="0"/>
        <pt x="32" y="16" on="1"/>
        <pt x="32" y="106" on="1"/>
        <pt x="98" y="82" on="0"/>
        <pt x="171" y="82" on="1"/>
        <pt x="280" y="82" on="0"/>
        <pt x="280" y="156" on="1"/>
        <pt x="280" y="190" on="1"/>
        <pt x="280" y="220" on="0"/>
        <pt x="258" y="253" on="0"/>
        <pt x="228" y="269" on="1"/>
        <pt x="115" y="331" on="1"/>
        <pt x="26" y="379" on="0"/>
        <pt x="26" y="474" on="1"/>
      </contour>
      <contour>
        <pt x="214" y="828" on="1"/>
        <pt x="294" y="828" on="1"/>
        <pt x="230" y="719" on="1"/>
        <pt x="174" y="719" on="1"/>
      </contour>
    </TTGlyph>
    <TTGlyph name="Scaron" xMin="26" yMin="-5" xMax="375" yMax="828">
      <contour>
        <pt x="375" y="203" on="1"/>
        <pt x="375" y="147" on="1"/>
        <pt x="375" y="74" on="0"/>
        <pt x="273" y="-5" on="0"/>
        <pt x="88" y="-5" on="0"/>
        <pt x="32" y="16" on="1"/>
        <pt x="32" y="106" on="1"/>
        <pt x="98" y="82" on="0"/>
        <pt x="171" y="82" on="1"/>
        <pt x="280" y="82" on="0"/>
        <pt x="280" y="156" on="1"/>
        <pt x="280" y="190" on="1"/>
        <pt x="280" y="220" on="0"/>
        <pt x="258" y="253" on="0"/>
        <pt x="228" y="269" on="1"/>
        <pt x="115" y="331" on="1"/>
        <pt x="26" y="379" on="0"/>
        <pt x="26" y="474" on="1"/>
        <pt x="26" y="534" on="1"/>
        <pt x="26" y="605" on="0"/>
        <pt x="119" y="683" on="0"/>
        <pt x="291" y="683" on="0"/>
        <pt x="345" y="665" on="1"/>
        <pt x="345" y="575" on="1"/>
        <pt x="291" y="596" on="0"/>
        <pt x="214" y="596" on="1"/>
        <pt x="121" y="596" on="0"/>
        <pt x="121" y="527" on="1"/>
        <pt x="121" y="488" on="1"/>
        <pt x="121" y="456" on="0"/>
        <pt x="146" y="419" on="0"/>
        <pt x="178" y="401" on="1"/>
        <pt x="294" y="336" on="1"/>
        <pt x="375" y="292" on="0"/>
      </contour>
      <contour>
        <pt x="167" y="719" on="1"/>
        <pt x="114" y="828" on="1"/>
        <pt x="166" y="828" on="1"/>
        <pt x="204" y="768" on="1"/>
        <pt x="241" y="828" on="1"/>
        <pt x="293" y="828" on="1"/>
        <pt x="240" y="719" on="1"/>
      </contour>
    </TTGlyph>
    <TTGlyph name="T" xMin="8" yMin="0" xMax="361" yMax="678">
      <contour>
        <pt x="361" y="678" on="1"/>
        <pt x="361" y="595" on="1"/>
        <pt x="232" y="595" on="1"/>
        <pt x="232" y="0" on="1"/>
        <pt x="137" y="0" on="1"/>
        <pt x="137" y="595" on="1"/>
        <pt x="8" y="595" on="1"/>
        <pt x="8" y="678" on="1"/>
      </contour>
    </TTGlyph>
    <TTGlyph name="Tcaron" xMin="8" yMin="0" xMax="361" yMax="828">
      <contour>
        <pt x="361" y="678" on="1"/>
        <pt x="361" y="595" on="1"/>
        <pt x="232" y="595" on="1"/>
        <pt x="232" y="0" on="1"/>
        <pt x="137" y="0" on="1"/>
        <pt x="137" y="595" on="1"/>
        <pt x="8" y="595" on="1"/>
        <pt x="8" y="678" on="1"/>
      </contour>
      <contour>
        <pt x="146" y="719" on="1"/>
        <pt x="93" y="828" on="1"/>
        <pt x="145" y="828" on="1"/>
        <pt x="183" y="768" on="1"/>
        <pt x="220" y="828" on="1"/>
        <pt x="272" y="828" on="1"/>
        <pt x="219" y="719" on="1"/>
      </contour>
    </TTGlyph>
    <TTGlyph name="Thorn" xMin="72" yMin="0" xMax="414" yMax="678">
      <contour>
        <pt x="163" y="562" on="1"/>
        <pt x="248" y="562" on="1"/>
        <pt x="329" y="562" on="0"/>
        <pt x="414" y="482" on="0"/>
        <pt x="414" y="410" on="1"/>
        <pt x="414" y="268" on="1"/>
        <pt x="414" y="197" on="0"/>
        <pt x="328" y="116" on="0"/>
        <pt x="248" y="116" on="1"/>
        <pt x="163" y="116" on="1"/>
        <pt x="163" y="0" on="1"/>
        <pt x="72" y="0" on="1"/>
        <pt x="72" y="678" on="1"/>
        <pt x="163" y="678" on="1"/>
      </contour>
      <contour>
        <pt x="323" y="275" on="1"/>
        <pt x="323" y="403" on="1"/>
        <pt x="323" y="480" on="0"/>
        <pt x="243" y="480" on="1"/>
        <pt x="163" y="480" on="1"/>
        <pt x="163" y="199" on="1"/>
        <pt x="243" y="199" on="1"/>
        <pt x="323" y="199" on="0"/>
      </contour>
    </TTGlyph>
    <TTGlyph name="U" xMin="57" yMin="-10" xMax="417" yMax="678">
      <contour>
        <pt x="323" y="678" on="1"/>
        <pt x="417" y="678" on="1"/>
        <pt x="417" y="154" on="1"/>
        <pt x="417" y="80" on="0"/>
        <pt x="326" y="-10" on="0"/>
        <pt x="148" y="-10" on="0"/>
        <pt x="57" y="80" on="0"/>
        <pt x="57" y="154" on="1"/>
        <pt x="57" y="678" on="1"/>
        <pt x="151" y="678" on="1"/>
        <pt x="151" y="158" on="1"/>
        <pt x="151" y="75" on="0"/>
        <pt x="323" y="75" on="0"/>
        <pt x="323" y="158" on="1"/>
      </contour>
    </TTGlyph>
    <TTGlyph name="Uacute" xMin="57" yMin="-10" xMax="417" yMax="828">
      <contour>
        <pt x="323" y="678" on="1"/>
        <pt x="417" y="678" on="1"/>
        <pt x="417" y="154" on="1"/>
        <pt x="417" y="80" on="0"/>
        <pt x="326" y="-10" on="0"/>
        <pt x="148" y="-10" on="0"/>
        <pt x="57" y="80" on="0"/>
        <pt x="57" y="154" on="1"/>
        <pt x="57" y="678" on="1"/>
        <pt x="151" y="678" on="1"/>
        <pt x="151" y="158" on="1"/>
        <pt x="151" y="75" on="0"/>
        <pt x="323" y="75" on="0"/>
        <pt x="323" y="158" on="1"/>
      </contour>
      <contour>
        <pt x="249" y="828" on="1"/>
        <pt x="329" y="828" on="1"/>
        <pt x="265" y="719" on="1"/>
        <pt x="209" y="719" on="1"/>
      </contour>
    </TTGlyph>
    <TTGlyph name="Ucircumflex" xMin="57" yMin="-10" xMax="417" yMax="828">
      <contour>
        <pt x="323" y="678" on="1"/>
        <pt x="417" y="678" on="1"/>
        <pt x="417" y="154" on="1"/>
        <pt x="417" y="80" on="0"/>
        <pt x="326" y="-10" on="0"/>
        <pt x="148" y="-10" on="0"/>
        <pt x="57" y="80" on="0"/>
        <pt x="57" y="154" on="1"/>
        <pt x="57" y="678" on="1"/>
        <pt x="151" y="678" on="1"/>
        <pt x="151" y="158" on="1"/>
        <pt x="151" y="75" on="0"/>
        <pt x="323" y="75" on="0"/>
        <pt x="323" y="158" on="1"/>
      </contour>
      <contour>
        <pt x="237" y="779" on="1"/>
        <pt x="199" y="719" on="1"/>
        <pt x="147" y="719" on="1"/>
        <pt x="200" y="828" on="1"/>
        <pt x="273" y="828" on="1"/>
        <pt x="326" y="719" on="1"/>
        <pt x="274" y="719" on="1"/>
      </contour>
    </TTGlyph>
    <TTGlyph name="Udieresis" xMin="57" yMin="-10" xMax="417" yMax="815">
      <contour>
        <pt x="323" y="678" on="1"/>
        <pt x="417" y="678" on="1"/>
        <pt x="417" y="154" on="1"/>
        <pt x="417" y="80" on="0"/>
        <pt x="326" y="-10" on="0"/>
        <pt x="148" y="-10" on="0"/>
        <pt x="57" y="80" on="0"/>
        <pt x="57" y="154" on="1"/>
        <pt x="57" y="678" on="1"/>
        <pt x="151" y="678" on="1"/>
        <pt x="151" y="158" on="1"/>
        <pt x="151" y="75" on="0"/>
        <pt x="323" y="75" on="0"/>
        <pt x="323" y="158" on="1"/>
      </contour>
      <contour>
        <pt x="353" y="730" on="0"/>
        <pt x="265" y="730" on="0"/>
        <pt x="265" y="815" on="0"/>
        <pt x="353" y="815" on="0"/>
      </contour>
      <contour>
        <pt x="207" y="730" on="0"/>
        <pt x="119" y="730" on="0"/>
        <pt x="119" y="815" on="0"/>
        <pt x="207" y="815" on="0"/>
      </contour>
    </TTGlyph>
    <TTGlyph name="Ugrave" xMin="57" yMin="-10" xMax="417" yMax="828">
      <contour>
        <pt x="145" y="828" on="1"/>
        <pt x="225" y="828" on="1"/>
        <pt x="265" y="719" on="1"/>
        <pt x="209" y="719" on="1"/>
      </contour>
      <contour>
        <pt x="323" y="678" on="1"/>
        <pt x="417" y="678" on="1"/>
        <pt x="417" y="154" on="1"/>
        <pt x="417" y="80" on="0"/>
        <pt x="326" y="-10" on="0"/>
        <pt x="148" y="-10" on="0"/>
        <pt x="57" y="80" on="0"/>
        <pt x="57" y="154" on="1"/>
        <pt x="57" y="678" on="1"/>
        <pt x="151" y="678" on="1"/>
        <pt x="151" y="158" on="1"/>
        <pt x="151" y="75" on="0"/>
        <pt x="323" y="75" on="0"/>
        <pt x="323" y="158" on="1"/>
      </contour>
    </TTGlyph>
    <TTGlyph name="Uhungarumlaut" xMin="57" yMin="-10" xMax="417" yMax="828">
      <contour>
        <pt x="197" y="828" on="1"/>
        <pt x="271" y="828" on="1"/>
        <pt x="205" y="719" on="1"/>
        <pt x="155" y="719" on="1"/>
      </contour>
      <contour>
        <pt x="293" y="828" on="1"/>
        <pt x="366" y="828" on="1"/>
        <pt x="300" y="719" on="1"/>
        <pt x="250" y="719" on="1"/>
      </contour>
      <contour>
        <pt x="323" y="678" on="1"/>
        <pt x="417" y="678" on="1"/>
        <pt x="417" y="154" on="1"/>
        <pt x="417" y="80" on="0"/>
        <pt x="326" y="-10" on="0"/>
        <pt x="148" y="-10" on="0"/>
        <pt x="57" y="80" on="0"/>
        <pt x="57" y="154" on="1"/>
        <pt x="57" y="678" on="1"/>
        <pt x="151" y="678" on="1"/>
        <pt x="151" y="158" on="1"/>
        <pt x="151" y="75" on="0"/>
        <pt x="323" y="75" on="0"/>
        <pt x="323" y="158" on="1"/>
      </contour>
    </TTGlyph>
    <TTGlyph name="Umacron" xMin="57" yMin="-10" xMax="417" yMax="801">
      <contour>
        <pt x="119" y="801" on="1"/>
        <pt x="354" y="801" on="1"/>
        <pt x="354" y="745" on="1"/>
        <pt x="119" y="745" on="1"/>
      </contour>
      <contour>
        <pt x="323" y="678" on="1"/>
        <pt x="417" y="678" on="1"/>
        <pt x="417" y="154" on="1"/>
        <pt x="417" y="80" on="0"/>
        <pt x="326" y="-10" on="0"/>
        <pt x="148" y="-10" on="0"/>
        <pt x="57" y="80" on="0"/>
        <pt x="57" y="154" on="1"/>
        <pt x="57" y="678" on="1"/>
        <pt x="151" y="678" on="1"/>
        <pt x="151" y="158" on="1"/>
        <pt x="151" y="75" on="0"/>
        <pt x="323" y="75" on="0"/>
        <pt x="323" y="158" on="1"/>
      </contour>
    </TTGlyph>
    <TTGlyph name="Uogonek" xMin="57" yMin="-173" xMax="417" yMax="678">
      <contour>
        <pt x="323" y="678" on="1"/>
        <pt x="417" y="678" on="1"/>
        <pt x="417" y="154" on="1"/>
        <pt x="417" y="45" on="0"/>
        <pt x="328" y="7" on="1"/>
        <pt x="286" y="-32" on="0"/>
        <pt x="286" y="-83" on="1"/>
        <pt x="286" y="-119" on="0"/>
        <pt x="320" y="-119" on="1"/>
        <pt x="332" y="-119" on="1"/>
        <pt x="332" y="-173" on="1"/>
        <pt x="315" y="-173" on="1"/>
        <pt x="229" y="-173" on="0"/>
        <pt x="229" y="-102" on="1"/>
        <pt x="229" y="-53" on="0"/>
        <pt x="271" y="-8" on="1"/>
        <pt x="249" y="-10" on="0"/>
        <pt x="237" y="-10" on="1"/>
        <pt x="148" y="-10" on="0"/>
        <pt x="57" y="80" on="0"/>
        <pt x="57" y="154" on="1"/>
        <pt x="57" y="678" on="1"/>
        <pt x="151" y="678" on="1"/>
        <pt x="151" y="158" on="1"/>
        <pt x="151" y="75" on="0"/>
        <pt x="323" y="75" on="0"/>
        <pt x="323" y="158" on="1"/>
      </contour>
    </TTGlyph>
    <TTGlyph name="Uring" xMin="57" yMin="-10" xMax="417" yMax="847">
      <contour>
        <pt x="323" y="678" on="1"/>
        <pt x="417" y="678" on="1"/>
        <pt x="417" y="154" on="1"/>
        <pt x="417" y="80" on="0"/>
        <pt x="326" y="-10" on="0"/>
        <pt x="148" y="-10" on="0"/>
        <pt x="57" y="80" on="0"/>
        <pt x="57" y="154" on="1"/>
        <pt x="57" y="678" on="1"/>
        <pt x="151" y="678" on="1"/>
        <pt x="151" y="158" on="1"/>
        <pt x="151" y="75" on="0"/>
        <pt x="323" y="75" on="0"/>
        <pt x="323" y="158" on="1"/>
      </contour>
      <contour>
        <pt x="272" y="758" on="0"/>
        <pt x="272" y="788" on="0"/>
        <pt x="254" y="806" on="0"/>
        <pt x="224" y="806" on="0"/>
        <pt x="206" y="788" on="0"/>
        <pt x="206" y="758" on="0"/>
        <pt x="224" y="739" on="0"/>
        <pt x="254" y="739" on="0"/>
      </contour>
      <contour>
        <pt x="204" y="698" on="0"/>
        <pt x="163" y="741" on="0"/>
        <pt x="163" y="806" on="0"/>
        <pt x="203" y="847" on="0"/>
        <pt x="275" y="847" on="0"/>
        <pt x="315" y="806" on="0"/>
        <pt x="315" y="741" on="0"/>
        <pt x="275" y="698" on="0"/>
      </contour>
    </TTGlyph>
    <TTGlyph name="V" xMin="11" yMin="0" xMax="428" yMax="678">
      <contour>
        <pt x="330" y="678" on="1"/>
        <pt x="428" y="678" on="1"/>
        <pt x="286" y="0" on="1"/>
        <pt x="154" y="0" on="1"/>
        <pt x="11" y="678" on="1"/>
        <pt x="107" y="678" on="1"/>
        <pt x="181" y="309" on="0"/>
        <pt x="216" y="108" on="0"/>
        <pt x="220" y="87" on="1"/>
        <pt x="229" y="128" on="0"/>
        <pt x="261" y="323" on="0"/>
        <pt x="267" y="356" on="1"/>
      </contour>
    </TTGlyph>
    <TTGlyph name="W" xMin="16" yMin="0" xMax="588" yMax="678">
      <contour>
        <pt x="502" y="678" on="1"/>
        <pt x="588" y="678" on="1"/>
        <pt x="483" y="0" on="1"/>
        <pt x="383" y="0" on="1"/>
        <pt x="315" y="417" on="0"/>
        <pt x="303" y="533" on="1"/>
        <pt x="294" y="423" on="0"/>
        <pt x="276" y="318" on="1"/>
        <pt x="224" y="0" on="1"/>
        <pt x="120" y="0" on="1"/>
        <pt x="16" y="678" on="1"/>
        <pt x="103" y="678" on="1"/>
        <pt x="158" y="328" on="1"/>
        <pt x="181" y="146" on="1"/>
        <pt x="192" y="238" on="0"/>
        <pt x="205" y="328" on="1"/>
        <pt x="259" y="678" on="1"/>
        <pt x="347" y="678" on="1"/>
        <pt x="400" y="328" on="1"/>
        <pt x="424" y="149" on="1"/>
        <pt x="435" y="253" on="0"/>
        <pt x="446" y="328" on="1"/>
      </contour>
    </TTGlyph>
    <TTGlyph name="X" xMin="11" yMin="0" xMax="404" yMax="678">
      <contour>
        <pt x="302" y="678" on="1"/>
        <pt x="404" y="678" on="1"/>
        <pt x="256" y="338" on="1"/>
        <pt x="404" y="0" on="1"/>
        <pt x="301" y="0" on="1"/>
        <pt x="208" y="235" on="1"/>
        <pt x="113" y="0" on="1"/>
        <pt x="11" y="0" on="1"/>
        <pt x="157" y="338" on="1"/>
        <pt x="11" y="678" on="1"/>
        <pt x="113" y="678" on="1"/>
        <pt x="208" y="441" on="1"/>
      </contour>
    </TTGlyph>
    <TTGlyph name="Y" xMin="3" yMin="0" xMax="428" yMax="678">
      <contour>
        <pt x="263" y="0" on="1"/>
        <pt x="168" y="0" on="1"/>
        <pt x="168" y="223" on="1"/>
        <pt x="3" y="678" on="1"/>
        <pt x="100" y="678" on="1"/>
        <pt x="157" y="518" on="1"/>
        <pt x="188" y="428" on="0"/>
        <pt x="217" y="327" on="1"/>
        <pt x="245" y="425" on="0"/>
        <pt x="276" y="518" on="1"/>
        <pt x="333" y="678" on="1"/>
        <pt x="428" y="678" on="1"/>
        <pt x="263" y="223" on="1"/>
      </contour>
    </TTGlyph>
    <TTGlyph name="Yacute" xMin="3" yMin="0" xMax="428" yMax="828">
      <contour>
        <pt x="225" y="828" on="1"/>
        <pt x="305" y="828" on="1"/>
        <pt x="241" y="719" on="1"/>
        <pt x="185" y="719" on="1"/>
      </contour>
      <contour>
        <pt x="263" y="0" on="1"/>
        <pt x="168" y="0" on="1"/>
        <pt x="168" y="223" on="1"/>
        <pt x="3" y="678" on="1"/>
        <pt x="100" y="678" on="1"/>
        <pt x="157" y="518" on="1"/>
        <pt x="188" y="428" on="0"/>
        <pt x="217" y="327" on="1"/>
        <pt x="245" y="425" on="0"/>
        <pt x="276" y="518" on="1"/>
        <pt x="333" y="678" on="1"/>
        <pt x="428" y="678" on="1"/>
        <pt x="263" y="223" on="1"/>
      </contour>
    </TTGlyph>
    <TTGlyph name="Ydieresis" xMin="3" yMin="0" xMax="428" yMax="815">
      <contour>
        <pt x="263" y="0" on="1"/>
        <pt x="168" y="0" on="1"/>
        <pt x="168" y="223" on="1"/>
        <pt x="3" y="678" on="1"/>
        <pt x="100" y="678" on="1"/>
        <pt x="157" y="518" on="1"/>
        <pt x="188" y="428" on="0"/>
        <pt x="217" y="327" on="1"/>
        <pt x="245" y="425" on="0"/>
        <pt x="276" y="518" on="1"/>
        <pt x="333" y="678" on="1"/>
        <pt x="428" y="678" on="1"/>
        <pt x="263" y="223" on="1"/>
      </contour>
      <contour>
        <pt x="330" y="730" on="0"/>
        <pt x="242" y="730" on="0"/>
        <pt x="242" y="815" on="0"/>
        <pt x="330" y="815" on="0"/>
      </contour>
      <contour>
        <pt x="184" y="730" on="0"/>
        <pt x="96" y="730" on="0"/>
        <pt x="96" y="815" on="0"/>
        <pt x="184" y="815" on="0"/>
      </contour>
    </TTGlyph>
    <TTGlyph name="Z" xMin="26" yMin="0" xMax="367" yMax="678">
      <contour>
        <pt x="31" y="678" on="1"/>
        <pt x="367" y="678" on="1"/>
        <pt x="367" y="599" on="1"/>
        <pt x="124" y="81" on="1"/>
        <pt x="366" y="81" on="1"/>
        <pt x="366" y="0" on="1"/>
        <pt x="26" y="0" on="1"/>
        <pt x="26" y="81" on="1"/>
        <pt x="266" y="597" on="1"/>
        <pt x="31" y="597" on="1"/>
      </contour>
    </TTGlyph>
    <TTGlyph name="Zacute" xMin="26" yMin="0" xMax="367" yMax="828">
      <contour>
        <pt x="31" y="678" on="1"/>
        <pt x="367" y="678" on="1"/>
        <pt x="367" y="599" on="1"/>
        <pt x="124" y="81" on="1"/>
        <pt x="366" y="81" on="1"/>
        <pt x="366" y="0" on="1"/>
        <pt x="26" y="0" on="1"/>
        <pt x="26" y="81" on="1"/>
        <pt x="266" y="597" on="1"/>
        <pt x="31" y="597" on="1"/>
      </contour>
      <contour>
        <pt x="207" y="828" on="1"/>
        <pt x="287" y="828" on="1"/>
        <pt x="223" y="719" on="1"/>
        <pt x="167" y="719" on="1"/>
      </contour>
    </TTGlyph>
    <TTGlyph name="Zcaron" xMin="26" yMin="0" xMax="367" yMax="828">
      <contour>
        <pt x="367" y="678" on="1"/>
        <pt x="367" y="599" on="1"/>
        <pt x="124" y="81" on="1"/>
        <pt x="366" y="81" on="1"/>
        <pt x="366" y="0" on="1"/>
        <pt x="26" y="0" on="1"/>
        <pt x="26" y="81" on="1"/>
        <pt x="266" y="597" on="1"/>
        <pt x="31" y="597" on="1"/>
        <pt x="31" y="678" on="1"/>
      </contour>
      <contour>
        <pt x="161" y="719" on="1"/>
        <pt x="108" y="828" on="1"/>
        <pt x="160" y="828" on="1"/>
        <pt x="198" y="768" on="1"/>
        <pt x="235" y="828" on="1"/>
        <pt x="287" y="828" on="1"/>
        <pt x="234" y="719" on="1"/>
      </contour>
    </TTGlyph>
    <TTGlyph name="Zdotaccent" xMin="26" yMin="0" xMax="367" yMax="831">
      <contour>
        <pt x="241" y="746" on="0"/>
        <pt x="153" y="746" on="0"/>
        <pt x="153" y="831" on="0"/>
        <pt x="241" y="831" on="0"/>
      </contour>
      <contour>
        <pt x="31" y="678" on="1"/>
        <pt x="367" y="678" on="1"/>
        <pt x="367" y="599" on="1"/>
        <pt x="124" y="81" on="1"/>
        <pt x="366" y="81" on="1"/>
        <pt x="366" y="0" on="1"/>
        <pt x="26" y="0" on="1"/>
        <pt x="26" y="81" on="1"/>
        <pt x="266" y="597" on="1"/>
        <pt x="31" y="597" on="1"/>
      </contour>
    </TTGlyph>
    <TTGlyph name="a" xMin="28" yMin="-3" xMax="372" yMax="580">
      <contour>
        <pt x="121" y="165" on="1"/>
        <pt x="121" y="135" on="1"/>
        <pt x="121" y="102" on="0"/>
        <pt x="152" y="70" on="0"/>
        <pt x="243" y="70" on="0"/>
        <pt x="281" y="101" on="1"/>
        <pt x="281" y="268" on="1"/>
        <pt x="186" y="242" on="1"/>
        <pt x="147" y="231" on="0"/>
        <pt x="121" y="198" on="0"/>
      </contour>
      <contour>
        <pt x="56" y="561" on="1"/>
        <pt x="113" y="580" on="0"/>
        <pt x="201" y="580" on="1"/>
        <pt x="372" y="580" on="0"/>
        <pt x="372" y="425" on="1"/>
        <pt x="372" y="0" on="1"/>
        <pt x="282" y="0" on="1"/>
        <pt x="282" y="41" on="1"/>
        <pt x="238" y="-3" on="0"/>
        <pt x="166" y="-3" on="1"/>
        <pt x="28" y="-3" on="0"/>
        <pt x="28" y="136" on="1"/>
        <pt x="28" y="169" on="1"/>
        <pt x="28" y="225" on="0"/>
        <pt x="86" y="294" on="0"/>
        <pt x="150" y="312" on="1"/>
        <pt x="281" y="348" on="1"/>
        <pt x="281" y="425" on="1"/>
        <pt x="281" y="462" on="0"/>
        <pt x="241" y="495" on="0"/>
        <pt x="112" y="495" on="0"/>
        <pt x="56" y="475" on="1"/>
      </contour>
    </TTGlyph>
    <TTGlyph name="aacute" xMin="28" yMin="-3" xMax="372" yMax="728">
      <contour>
        <pt x="217" y="728" on="1"/>
        <pt x="297" y="728" on="1"/>
        <pt x="233" y="619" on="1"/>
        <pt x="177" y="619" on="1"/>
      </contour>
      <contour>
        <pt x="121" y="165" on="1"/>
        <pt x="121" y="135" on="1"/>
        <pt x="121" y="102" on="0"/>
        <pt x="152" y="70" on="0"/>
        <pt x="243" y="70" on="0"/>
        <pt x="281" y="101" on="1"/>
        <pt x="281" y="268" on="1"/>
        <pt x="186" y="242" on="1"/>
        <pt x="147" y="231" on="0"/>
        <pt x="121" y="198" on="0"/>
      </contour>
      <contour>
        <pt x="56" y="561" on="1"/>
        <pt x="113" y="580" on="0"/>
        <pt x="201" y="580" on="1"/>
        <pt x="372" y="580" on="0"/>
        <pt x="372" y="425" on="1"/>
        <pt x="372" y="0" on="1"/>
        <pt x="282" y="0" on="1"/>
        <pt x="282" y="41" on="1"/>
        <pt x="238" y="-3" on="0"/>
        <pt x="166" y="-3" on="1"/>
        <pt x="28" y="-3" on="0"/>
        <pt x="28" y="136" on="1"/>
        <pt x="28" y="169" on="1"/>
        <pt x="28" y="225" on="0"/>
        <pt x="86" y="294" on="0"/>
        <pt x="150" y="312" on="1"/>
        <pt x="281" y="348" on="1"/>
        <pt x="281" y="425" on="1"/>
        <pt x="281" y="462" on="0"/>
        <pt x="241" y="495" on="0"/>
        <pt x="112" y="495" on="0"/>
        <pt x="56" y="475" on="1"/>
      </contour>
    </TTGlyph>
    <TTGlyph name="abreve" xMin="28" yMin="-3" xMax="372" yMax="728">
      <contour>
        <pt x="263" y="619" on="0"/>
        <pt x="161" y="619" on="0"/>
        <pt x="100" y="680" on="0"/>
        <pt x="99" y="728" on="1"/>
        <pt x="157" y="728" on="1"/>
        <pt x="158" y="702" on="0"/>
        <pt x="186" y="671" on="0"/>
        <pt x="238" y="671" on="0"/>
        <pt x="266" y="702" on="0"/>
        <pt x="267" y="728" on="1"/>
        <pt x="325" y="728" on="1"/>
        <pt x="324" y="680" on="0"/>
      </contour>
      <contour>
        <pt x="121" y="165" on="1"/>
        <pt x="121" y="135" on="1"/>
        <pt x="121" y="102" on="0"/>
        <pt x="152" y="70" on="0"/>
        <pt x="243" y="70" on="0"/>
        <pt x="281" y="101" on="1"/>
        <pt x="281" y="268" on="1"/>
        <pt x="186" y="242" on="1"/>
        <pt x="147" y="231" on="0"/>
        <pt x="121" y="198" on="0"/>
      </contour>
      <contour>
        <pt x="56" y="561" on="1"/>
        <pt x="113" y="580" on="0"/>
        <pt x="201" y="580" on="1"/>
        <pt x="372" y="580" on="0"/>
        <pt x="372" y="425" on="1"/>
        <pt x="372" y="0" on="1"/>
        <pt x="282" y="0" on="1"/>
        <pt x="282" y="41" on="1"/>
        <pt x="238" y="-3" on="0"/>
        <pt x="166" y="-3" on="1"/>
        <pt x="28" y="-3" on="0"/>
        <pt x="28" y="136" on="1"/>
        <pt x="28" y="169" on="1"/>
        <pt x="28" y="225" on="0"/>
        <pt x="86" y="294" on="0"/>
        <pt x="150" y="312" on="1"/>
        <pt x="281" y="348" on="1"/>
        <pt x="281" y="425" on="1"/>
        <pt x="281" y="462" on="0"/>
        <pt x="241" y="495" on="0"/>
        <pt x="112" y="495" on="0"/>
        <pt x="56" y="475" on="1"/>
      </contour>
    </TTGlyph>
    <TTGlyph name="acircumflex" xMin="28" yMin="-3" xMax="372" yMax="728">
      <contour>
        <pt x="56" y="561" on="1"/>
        <pt x="113" y="580" on="0"/>
        <pt x="201" y="580" on="1"/>
        <pt x="372" y="580" on="0"/>
        <pt x="372" y="425" on="1"/>
        <pt x="372" y="0" on="1"/>
        <pt x="282" y="0" on="1"/>
        <pt x="282" y="41" on="1"/>
        <pt x="238" y="-3" on="0"/>
        <pt x="166" y="-3" on="1"/>
        <pt x="28" y="-3" on="0"/>
        <pt x="28" y="136" on="1"/>
        <pt x="28" y="169" on="1"/>
        <pt x="28" y="225" on="0"/>
        <pt x="86" y="294" on="0"/>
        <pt x="150" y="312" on="1"/>
        <pt x="281" y="348" on="1"/>
        <pt x="281" y="425" on="1"/>
        <pt x="281" y="462" on="0"/>
        <pt x="241" y="495" on="0"/>
        <pt x="112" y="495" on="0"/>
        <pt x="56" y="475" on="1"/>
      </contour>
      <contour>
        <pt x="121" y="165" on="1"/>
        <pt x="121" y="135" on="1"/>
        <pt x="121" y="102" on="0"/>
        <pt x="152" y="70" on="0"/>
        <pt x="243" y="70" on="0"/>
        <pt x="281" y="101" on="1"/>
        <pt x="281" y="268" on="1"/>
        <pt x="186" y="242" on="1"/>
        <pt x="147" y="231" on="0"/>
        <pt x="121" y="198" on="0"/>
      </contour>
      <contour>
        <pt x="215" y="679" on="1"/>
        <pt x="177" y="619" on="1"/>
        <pt x="125" y="619" on="1"/>
        <pt x="178" y="728" on="1"/>
        <pt x="251" y="728" on="1"/>
        <pt x="304" y="619" on="1"/>
        <pt x="252" y="619" on="1"/>
      </contour>
    </TTGlyph>
    <TTGlyph name="acute" xMin="115" yMin="619" xMax="235" yMax="728">
      <contour>
        <pt x="155" y="728" on="1"/>
        <pt x="235" y="728" on="1"/>
        <pt x="171" y="619" on="1"/>
        <pt x="115" y="619" on="1"/>
      </contour>
    </TTGlyph>
    <TTGlyph name="adieresis" xMin="28" yMin="-3" xMax="372" yMax="715">
      <contour>
        <pt x="327" y="630" on="0"/>
        <pt x="239" y="630" on="0"/>
        <pt x="239" y="715" on="0"/>
        <pt x="327" y="715" on="0"/>
      </contour>
      <contour>
        <pt x="181" y="630" on="0"/>
        <pt x="93" y="630" on="0"/>
        <pt x="93" y="715" on="0"/>
        <pt x="181" y="715" on="0"/>
      </contour>
      <contour>
        <pt x="121" y="165" on="1"/>
        <pt x="121" y="135" on="1"/>
        <pt x="121" y="102" on="0"/>
        <pt x="152" y="70" on="0"/>
        <pt x="243" y="70" on="0"/>
        <pt x="281" y="101" on="1"/>
        <pt x="281" y="268" on="1"/>
        <pt x="186" y="242" on="1"/>
        <pt x="147" y="231" on="0"/>
        <pt x="121" y="198" on="0"/>
      </contour>
      <contour>
        <pt x="56" y="561" on="1"/>
        <pt x="113" y="580" on="0"/>
        <pt x="201" y="580" on="1"/>
        <pt x="372" y="580" on="0"/>
        <pt x="372" y="425" on="1"/>
        <pt x="372" y="0" on="1"/>
        <pt x="282" y="0" on="1"/>
        <pt x="282" y="41" on="1"/>
        <pt x="238" y="-3" on="0"/>
        <pt x="166" y="-3" on="1"/>
        <pt x="28" y="-3" on="0"/>
        <pt x="28" y="136" on="1"/>
        <pt x="28" y="169" on="1"/>
        <pt x="28" y="225" on="0"/>
        <pt x="86" y="294" on="0"/>
        <pt x="150" y="312" on="1"/>
        <pt x="281" y="348" on="1"/>
        <pt x="281" y="425" on="1"/>
        <pt x="281" y="462" on="0"/>
        <pt x="241" y="495" on="0"/>
        <pt x="112" y="495" on="0"/>
        <pt x="56" y="475" on="1"/>
      </contour>
    </TTGlyph>
    <TTGlyph name="ae" xMin="30" yMin="-5" xMax="620" yMax="585">
      <contour>
        <pt x="531" y="427" on="1"/>
        <pt x="531" y="505" on="0"/>
        <pt x="371" y="505" on="0"/>
        <pt x="371" y="427" on="1"/>
        <pt x="371" y="321" on="1"/>
        <pt x="531" y="321" on="1"/>
      </contour>
      <contour>
        <pt x="121" y="165" on="1"/>
        <pt x="121" y="135" on="1"/>
        <pt x="121" y="70" on="0"/>
        <pt x="189" y="70" on="1"/>
        <pt x="245" y="70" on="0"/>
        <pt x="282" y="99" on="1"/>
        <pt x="282" y="269" on="1"/>
        <pt x="186" y="243" on="1"/>
        <pt x="148" y="232" on="0"/>
        <pt x="121" y="198" on="0"/>
      </contour>
      <contour>
        <pt x="325" y="539" on="1"/>
        <pt x="373" y="585" on="0"/>
        <pt x="538" y="585" on="0"/>
        <pt x="620" y="500" on="0"/>
        <pt x="620" y="428" on="1"/>
        <pt x="620" y="245" on="1"/>
        <pt x="371" y="245" on="1"/>
        <pt x="371" y="157" on="1"/>
        <pt x="371" y="116" on="0"/>
        <pt x="424" y="79" on="0"/>
        <pt x="546" y="79" on="0"/>
        <pt x="604" y="97" on="1"/>
        <pt x="604" y="11" on="1"/>
        <pt x="544" y="-5" on="0"/>
        <pt x="476" y="-5" on="1"/>
        <pt x="373" y="-5" on="0"/>
        <pt x="327" y="38" on="1"/>
        <pt x="274" y="-4" on="0"/>
        <pt x="175" y="-4" on="1"/>
        <pt x="30" y="-4" on="0"/>
        <pt x="30" y="135" on="1"/>
        <pt x="30" y="169" on="1"/>
        <pt x="30" y="225" on="0"/>
        <pt x="87" y="294" on="0"/>
        <pt x="150" y="313" on="1"/>
        <pt x="281" y="351" on="1"/>
        <pt x="280" y="429" on="1"/>
        <pt x="280" y="462" on="0"/>
        <pt x="241" y="495" on="0"/>
        <pt x="109" y="495" on="0"/>
        <pt x="56" y="474" on="1"/>
        <pt x="56" y="561" on="1"/>
        <pt x="115" y="580" on="0"/>
        <pt x="284" y="580" on="0"/>
      </contour>
    </TTGlyph>
    <TTGlyph name="agrave" xMin="28" yMin="-3" xMax="372" yMax="728">
      <contour>
        <pt x="117" y="728" on="1"/>
        <pt x="197" y="728" on="1"/>
        <pt x="237" y="619" on="1"/>
        <pt x="181" y="619" on="1"/>
      </contour>
      <contour>
        <pt x="121" y="165" on="1"/>
        <pt x="121" y="135" on="1"/>
        <pt x="121" y="102" on="0"/>
        <pt x="152" y="70" on="0"/>
        <pt x="243" y="70" on="0"/>
        <pt x="281" y="101" on="1"/>
        <pt x="281" y="268" on="1"/>
        <pt x="186" y="242" on="1"/>
        <pt x="147" y="231" on="0"/>
        <pt x="121" y="198" on="0"/>
      </contour>
      <contour>
        <pt x="56" y="561" on="1"/>
        <pt x="113" y="580" on="0"/>
        <pt x="201" y="580" on="1"/>
        <pt x="372" y="580" on="0"/>
        <pt x="372" y="425" on="1"/>
        <pt x="372" y="0" on="1"/>
        <pt x="282" y="0" on="1"/>
        <pt x="282" y="41" on="1"/>
        <pt x="238" y="-3" on="0"/>
        <pt x="166" y="-3" on="1"/>
        <pt x="28" y="-3" on="0"/>
        <pt x="28" y="136" on="1"/>
        <pt x="28" y="169" on="1"/>
        <pt x="28" y="225" on="0"/>
        <pt x="86" y="294" on="0"/>
        <pt x="150" y="312" on="1"/>
        <pt x="281" y="348" on="1"/>
        <pt x="281" y="425" on="1"/>
        <pt x="281" y="462" on="0"/>
        <pt x="241" y="495" on="0"/>
        <pt x="112" y="495" on="0"/>
        <pt x="56" y="475" on="1"/>
      </contour>
    </TTGlyph>
    <TTGlyph name="amacron" xMin="28" yMin="-3" xMax="372" yMax="701">
      <contour>
        <pt x="94" y="701" on="1"/>
        <pt x="329" y="701" on="1"/>
        <pt x="329" y="645" on="1"/>
        <pt x="94" y="645" on="1"/>
      </contour>
      <contour>
        <pt x="121" y="165" on="1"/>
        <pt x="121" y="135" on="1"/>
        <pt x="121" y="102" on="0"/>
        <pt x="152" y="70" on="0"/>
        <pt x="243" y="70" on="0"/>
        <pt x="281" y="101" on="1"/>
        <pt x="281" y="268" on="1"/>
        <pt x="186" y="242" on="1"/>
        <pt x="147" y="231" on="0"/>
        <pt x="121" y="198" on="0"/>
      </contour>
      <contour>
        <pt x="56" y="561" on="1"/>
        <pt x="113" y="580" on="0"/>
        <pt x="201" y="580" on="1"/>
        <pt x="372" y="580" on="0"/>
        <pt x="372" y="425" on="1"/>
        <pt x="372" y="0" on="1"/>
        <pt x="282" y="0" on="1"/>
        <pt x="282" y="41" on="1"/>
        <pt x="238" y="-3" on="0"/>
        <pt x="166" y="-3" on="1"/>
        <pt x="28" y="-3" on="0"/>
        <pt x="28" y="136" on="1"/>
        <pt x="28" y="169" on="1"/>
        <pt x="28" y="225" on="0"/>
        <pt x="86" y="294" on="0"/>
        <pt x="150" y="312" on="1"/>
        <pt x="281" y="348" on="1"/>
        <pt x="281" y="425" on="1"/>
        <pt x="281" y="462" on="0"/>
        <pt x="241" y="495" on="0"/>
        <pt x="112" y="495" on="0"/>
        <pt x="56" y="475" on="1"/>
      </contour>
    </TTGlyph>
    <TTGlyph name="ampersand" xMin="53" yMin="-8" xMax="458" yMax="683">
      <contour>
        <pt x="458" y="390" on="1"/>
        <pt x="458" y="309" on="1"/>
        <pt x="414" y="309" on="1"/>
        <pt x="414" y="156" on="1"/>
        <pt x="414" y="81" on="0"/>
        <pt x="324" y="-8" on="0"/>
        <pt x="146" y="-8" on="0"/>
        <pt x="53" y="82" on="0"/>
        <pt x="53" y="156" on="1"/>
        <pt x="53" y="232" on="1"/>
        <pt x="53" y="325" on="0"/>
        <pt x="129" y="352" on="1"/>
        <pt x="54" y="379" on="0"/>
        <pt x="54" y="472" on="1"/>
        <pt x="54" y="529" on="1"/>
        <pt x="54" y="601" on="0"/>
        <pt x="153" y="683" on="0"/>
        <pt x="330" y="683" on="0"/>
        <pt x="380" y="667" on="1"/>
        <pt x="380" y="577" on="1"/>
        <pt x="329" y="596" on="0"/>
        <pt x="196" y="596" on="0"/>
        <pt x="148" y="557" on="0"/>
        <pt x="148" y="521" on="1"/>
        <pt x="148" y="473" on="1"/>
        <pt x="148" y="390" on="0"/>
        <pt x="225" y="390" on="1"/>
        <pt x="323" y="390" on="1"/>
        <pt x="323" y="451" on="1"/>
        <pt x="414" y="451" on="1"/>
        <pt x="414" y="390" on="1"/>
      </contour>
      <contour>
        <pt x="323" y="158" on="1"/>
        <pt x="323" y="309" on="1"/>
        <pt x="227" y="309" on="1"/>
        <pt x="147" y="309" on="0"/>
        <pt x="147" y="227" on="1"/>
        <pt x="147" y="158" on="1"/>
        <pt x="147" y="75" on="0"/>
        <pt x="323" y="75" on="0"/>
      </contour>
    </TTGlyph>
    <TTGlyph name="aogonek" xMin="28" yMin="-183" xMax="372" yMax="580">
      <contour>
        <pt x="56" y="561" on="1"/>
        <pt x="113" y="580" on="0"/>
        <pt x="201" y="580" on="1"/>
        <pt x="372" y="580" on="0"/>
        <pt x="372" y="425" on="1"/>
        <pt x="372" y="0" on="1"/>
        <pt x="371" y="0" on="1"/>
        <pt x="325" y="-39" on="0"/>
        <pt x="325" y="-93" on="1"/>
        <pt x="325" y="-129" on="0"/>
        <pt x="359" y="-129" on="1"/>
        <pt x="371" y="-129" on="1"/>
        <pt x="371" y="-183" on="1"/>
        <pt x="354" y="-183" on="1"/>
        <pt x="268" y="-183" on="0"/>
        <pt x="268" y="-112" on="1"/>
        <pt x="268" y="-48" on="0"/>
        <pt x="330" y="0" on="1"/>
        <pt x="282" y="0" on="1"/>
        <pt x="282" y="41" on="1"/>
        <pt x="238" y="-3" on="0"/>
        <pt x="166" y="-3" on="1"/>
        <pt x="28" y="-3" on="0"/>
        <pt x="28" y="136" on="1"/>
        <pt x="28" y="169" on="1"/>
        <pt x="28" y="225" on="0"/>
        <pt x="86" y="294" on="0"/>
        <pt x="150" y="312" on="1"/>
        <pt x="281" y="348" on="1"/>
        <pt x="281" y="425" on="1"/>
        <pt x="281" y="462" on="0"/>
        <pt x="241" y="495" on="0"/>
        <pt x="112" y="495" on="0"/>
        <pt x="56" y="475" on="1"/>
      </contour>
      <contour>
        <pt x="121" y="165" on="1"/>
        <pt x="121" y="135" on="1"/>
        <pt x="121" y="102" on="0"/>
        <pt x="152" y="70" on="0"/>
        <pt x="243" y="70" on="0"/>
        <pt x="281" y="101" on="1"/>
        <pt x="281" y="268" on="1"/>
        <pt x="186" y="242" on="1"/>
        <pt x="147" y="231" on="0"/>
        <pt x="121" y="198" on="0"/>
      </contour>
    </TTGlyph>
    <TTGlyph name="approxequal" xMin="37" yMin="182" xMax="473" yMax="489">
      <contour>
        <pt x="473" y="451" on="1"/>
        <pt x="473" y="380" on="0"/>
        <pt x="367" y="333" on="0"/>
        <pt x="305" y="361" on="1"/>
        <pt x="201" y="402" on="1"/>
        <pt x="165" y="420" on="0"/>
        <pt x="114" y="398" on="0"/>
        <pt x="121" y="357" on="1"/>
        <pt x="41" y="357" on="1"/>
        <pt x="37" y="375" on="0"/>
        <pt x="37" y="395" on="1"/>
        <pt x="37" y="442" on="0"/>
        <pt x="62" y="470" on="1"/>
        <pt x="108" y="519" on="0"/>
        <pt x="205" y="485" on="1"/>
        <pt x="309" y="444" on="1"/>
        <pt x="348" y="425" on="0"/>
        <pt x="397" y="448" on="0"/>
        <pt x="390" y="489" on="1"/>
        <pt x="469" y="489" on="1"/>
        <pt x="473" y="472" on="0"/>
      </contour>
      <contour>
        <pt x="473" y="277" on="1"/>
        <pt x="473" y="206" on="0"/>
        <pt x="367" y="159" on="0"/>
        <pt x="305" y="187" on="1"/>
        <pt x="201" y="228" on="1"/>
        <pt x="165" y="246" on="0"/>
        <pt x="114" y="224" on="0"/>
        <pt x="121" y="183" on="1"/>
        <pt x="41" y="183" on="1"/>
        <pt x="37" y="201" on="0"/>
        <pt x="37" y="221" on="1"/>
        <pt x="37" y="268" on="0"/>
        <pt x="62" y="296" on="1"/>
        <pt x="108" y="345" on="0"/>
        <pt x="205" y="311" on="1"/>
        <pt x="309" y="270" on="1"/>
        <pt x="348" y="251" on="0"/>
        <pt x="397" y="274" on="0"/>
        <pt x="390" y="315" on="1"/>
        <pt x="469" y="315" on="1"/>
        <pt x="473" y="298" on="0"/>
      </contour>
    </TTGlyph>
    <TTGlyph name="aring" xMin="28" yMin="-3" xMax="372" yMax="747">
      <contour>
        <pt x="242" y="658" on="0"/>
        <pt x="242" y="688" on="0"/>
        <pt x="224" y="706" on="0"/>
        <pt x="194" y="706" on="0"/>
        <pt x="176" y="688" on="0"/>
        <pt x="176" y="658" on="0"/>
        <pt x="194" y="639" on="0"/>
        <pt x="224" y="639" on="0"/>
      </contour>
      <contour>
        <pt x="174" y="598" on="0"/>
        <pt x="133" y="641" on="0"/>
        <pt x="133" y="706" on="0"/>
        <pt x="173" y="747" on="0"/>
        <pt x="245" y="747" on="0"/>
        <pt x="285" y="706" on="0"/>
        <pt x="285" y="641" on="0"/>
        <pt x="245" y="598" on="0"/>
      </contour>
      <contour>
        <pt x="121" y="165" on="1"/>
        <pt x="121" y="135" on="1"/>
        <pt x="121" y="102" on="0"/>
        <pt x="152" y="70" on="0"/>
        <pt x="243" y="70" on="0"/>
        <pt x="281" y="101" on="1"/>
        <pt x="281" y="268" on="1"/>
        <pt x="186" y="242" on="1"/>
        <pt x="147" y="231" on="0"/>
        <pt x="121" y="198" on="0"/>
      </contour>
      <contour>
        <pt x="56" y="561" on="1"/>
        <pt x="113" y="580" on="0"/>
        <pt x="201" y="580" on="1"/>
        <pt x="372" y="580" on="0"/>
        <pt x="372" y="425" on="1"/>
        <pt x="372" y="0" on="1"/>
        <pt x="282" y="0" on="1"/>
        <pt x="282" y="41" on="1"/>
        <pt x="238" y="-3" on="0"/>
        <pt x="166" y="-3" on="1"/>
        <pt x="28" y="-3" on="0"/>
        <pt x="28" y="136" on="1"/>
        <pt x="28" y="169" on="1"/>
        <pt x="28" y="225" on="0"/>
        <pt x="86" y="294" on="0"/>
        <pt x="150" y="312" on="1"/>
        <pt x="281" y="348" on="1"/>
        <pt x="281" y="425" on="1"/>
        <pt x="281" y="462" on="0"/>
        <pt x="241" y="495" on="0"/>
        <pt x="112" y="495" on="0"/>
        <pt x="56" y="475" on="1"/>
      </contour>
    </TTGlyph>
    <TTGlyph name="asciicircum" xMin="2" yMin="385" xMax="348" yMax="685">
      <contour>
        <pt x="348" y="385" on="1"/>
        <pt x="256" y="385" on="1"/>
        <pt x="175" y="630" on="1"/>
        <pt x="94" y="385" on="1"/>
        <pt x="2" y="385" on="1"/>
        <pt x="118" y="685" on="1"/>
        <pt x="233" y="685" on="1"/>
      </contour>
    </TTGlyph>
    <TTGlyph name="asciitilde" xMin="24" yMin="276" xMax="460" yMax="408">
      <contour>
        <pt x="460" y="370" on="1"/>
        <pt x="460" y="323" on="0"/>
        <pt x="435" y="296" on="1"/>
        <pt x="389" y="246" on="0"/>
        <pt x="292" y="280" on="1"/>
        <pt x="188" y="321" on="1"/>
        <pt x="151" y="339" on="0"/>
        <pt x="100" y="317" on="0"/>
        <pt x="107" y="276" on="1"/>
        <pt x="27" y="276" on="1"/>
        <pt x="24" y="295" on="0"/>
        <pt x="24" y="314" on="1"/>
        <pt x="24" y="361" on="0"/>
        <pt x="50" y="388" on="1"/>
        <pt x="95" y="438" on="0"/>
        <pt x="192" y="404" on="1"/>
        <pt x="296" y="363" on="1"/>
        <pt x="335" y="345" on="0"/>
        <pt x="383" y="367" on="0"/>
        <pt x="376" y="408" on="1"/>
        <pt x="456" y="408" on="1"/>
        <pt x="460" y="391" on="0"/>
      </contour>
    </TTGlyph>
    <TTGlyph name="asterisk" xMin="51" yMin="407" xMax="464" yMax="800">
      <contour>
        <pt x="215" y="703" on="1"/>
        <pt x="215" y="800" on="1"/>
        <pt x="299" y="800" on="1"/>
        <pt x="299" y="703" on="1"/>
        <pt x="299" y="668" on="0"/>
        <pt x="291" y="644" on="1"/>
        <pt x="313" y="659" on="0"/>
        <pt x="345" y="670" on="1"/>
        <pt x="438" y="700" on="1"/>
        <pt x="464" y="620" on="1"/>
        <pt x="372" y="590" on="1"/>
        <pt x="339" y="579" on="0"/>
        <pt x="312" y="579" on="1"/>
        <pt x="332" y="565" on="0"/>
        <pt x="354" y="536" on="1"/>
        <pt x="411" y="457" on="1"/>
        <pt x="343" y="407" on="1"/>
        <pt x="285" y="486" on="1"/>
        <pt x="265" y="515" on="0"/>
        <pt x="257" y="538" on="1"/>
        <pt x="249" y="515" on="0"/>
        <pt x="229" y="486" on="1"/>
        <pt x="172" y="407" on="1"/>
        <pt x="104" y="457" on="1"/>
        <pt x="161" y="536" on="1"/>
        <pt x="183" y="565" on="0"/>
        <pt x="203" y="579" on="1"/>
        <pt x="176" y="579" on="0"/>
        <pt x="143" y="590" on="1"/>
        <pt x="51" y="620" on="1"/>
        <pt x="76" y="700" on="1"/>
        <pt x="169" y="670" on="1"/>
        <pt x="201" y="659" on="0"/>
        <pt x="223" y="644" on="1"/>
        <pt x="215" y="668" on="0"/>
      </contour>
    </TTGlyph>
    <TTGlyph name="at" xMin="69" yMin="-121" xMax="814" yMax="675">
      <contour>
        <pt x="530" y="-121" on="1"/>
        <pt x="442" y="-121" on="1"/>
        <pt x="238" y="-121" on="0"/>
        <pt x="69" y="82" on="0"/>
        <pt x="69" y="471" on="0"/>
        <pt x="240" y="675" on="0"/>
        <pt x="442" y="675" on="1"/>
        <pt x="654" y="675" on="0"/>
        <pt x="736" y="570" on="1"/>
        <pt x="778" y="517" on="0"/>
        <pt x="814" y="379" on="0"/>
        <pt x="814" y="284" on="1"/>
        <pt x="814" y="144" on="0"/>
        <pt x="726" y="22" on="0"/>
        <pt x="556" y="22" on="0"/>
        <pt x="523" y="75" on="1"/>
        <pt x="484" y="48" on="0"/>
        <pt x="420" y="48" on="1"/>
        <pt x="295" y="48" on="0"/>
        <pt x="295" y="162" on="1"/>
        <pt x="295" y="180" on="1"/>
        <pt x="295" y="230" on="0"/>
        <pt x="346" y="285" on="0"/>
        <pt x="399" y="303" on="1"/>
        <pt x="501" y="337" on="1"/>
        <pt x="501" y="393" on="1"/>
        <pt x="501" y="422" on="0"/>
        <pt x="474" y="451" on="0"/>
        <pt x="392" y="451" on="0"/>
        <pt x="316" y="433" on="1"/>
        <pt x="316" y="501" on="1"/>
        <pt x="376" y="517" on="0"/>
        <pt x="438" y="517" on="1"/>
        <pt x="576" y="517" on="0"/>
        <pt x="576" y="396" on="1"/>
        <pt x="576" y="168" on="1"/>
        <pt x="576" y="128" on="0"/>
        <pt x="609" y="94" on="0"/>
        <pt x="690" y="94" on="0"/>
        <pt x="733" y="177" on="0"/>
        <pt x="733" y="364" on="0"/>
        <pt x="709" y="472" on="0"/>
        <pt x="678" y="516" on="1"/>
        <pt x="619" y="601" on="0"/>
        <pt x="442" y="601" on="1"/>
        <pt x="266" y="601" on="0"/>
        <pt x="205" y="512" on="1"/>
        <pt x="174" y="467" on="0"/>
        <pt x="150" y="356" on="0"/>
        <pt x="150" y="198" on="0"/>
        <pt x="175" y="87" on="0"/>
        <pt x="206" y="42" on="1"/>
        <pt x="268" y="-46" on="0"/>
        <pt x="442" y="-46" on="1"/>
        <pt x="530" y="-46" on="1"/>
      </contour>
      <contour>
        <pt x="372" y="182" on="1"/>
        <pt x="372" y="161" on="1"/>
        <pt x="372" y="113" on="0"/>
        <pt x="427" y="113" on="1"/>
        <pt x="467" y="113" on="0"/>
        <pt x="501" y="135" on="1"/>
        <pt x="501" y="268" on="1"/>
        <pt x="428" y="245" on="1"/>
        <pt x="397" y="235" on="0"/>
        <pt x="372" y="211" on="0"/>
      </contour>
    </TTGlyph>
    <TTGlyph name="atilde" xMin="28" yMin="-3" xMax="372" yMax="721">
      <contour>
        <pt x="283" y="721" on="1"/>
        <pt x="342" y="721" on="1"/>
        <pt x="342" y="710" on="1"/>
        <pt x="340" y="627" on="0"/>
        <pt x="269" y="627" on="1"/>
        <pt x="243" y="627" on="0"/>
        <pt x="175" y="667" on="0"/>
        <pt x="162" y="667" on="1"/>
        <pt x="140" y="667" on="0"/>
        <pt x="140" y="634" on="1"/>
        <pt x="140" y="625" on="1"/>
        <pt x="81" y="625" on="1"/>
        <pt x="81" y="635" on="1"/>
        <pt x="83" y="719" on="0"/>
        <pt x="155" y="719" on="1"/>
        <pt x="183" y="719" on="0"/>
        <pt x="251" y="679" on="0"/>
        <pt x="261" y="679" on="1"/>
        <pt x="283" y="679" on="0"/>
        <pt x="283" y="712" on="1"/>
      </contour>
      <contour>
        <pt x="121" y="165" on="1"/>
        <pt x="121" y="135" on="1"/>
        <pt x="121" y="102" on="0"/>
        <pt x="152" y="70" on="0"/>
        <pt x="243" y="70" on="0"/>
        <pt x="281" y="101" on="1"/>
        <pt x="281" y="268" on="1"/>
        <pt x="186" y="242" on="1"/>
        <pt x="147" y="231" on="0"/>
        <pt x="121" y="198" on="0"/>
      </contour>
      <contour>
        <pt x="56" y="561" on="1"/>
        <pt x="113" y="580" on="0"/>
        <pt x="201" y="580" on="1"/>
        <pt x="372" y="580" on="0"/>
        <pt x="372" y="425" on="1"/>
        <pt x="372" y="0" on="1"/>
        <pt x="282" y="0" on="1"/>
        <pt x="282" y="41" on="1"/>
        <pt x="238" y="-3" on="0"/>
        <pt x="166" y="-3" on="1"/>
        <pt x="28" y="-3" on="0"/>
        <pt x="28" y="136" on="1"/>
        <pt x="28" y="169" on="1"/>
        <pt x="28" y="225" on="0"/>
        <pt x="86" y="294" on="0"/>
        <pt x="150" y="312" on="1"/>
        <pt x="281" y="348" on="1"/>
        <pt x="281" y="425" on="1"/>
        <pt x="281" y="462" on="0"/>
        <pt x="241" y="495" on="0"/>
        <pt x="112" y="495" on="0"/>
        <pt x="56" y="475" on="1"/>
      </contour>
    </TTGlyph>
    <TTGlyph name="b" xMin="62" yMin="0" xMax="400" yMax="728">
      <contour>
        <pt x="305" y="431" on="1"/>
        <pt x="305" y="490" on="0"/>
        <pt x="244" y="490" on="1"/>
        <pt x="208" y="490" on="0"/>
        <pt x="156" y="470" on="1"/>
        <pt x="156" y="86" on="1"/>
        <pt x="227" y="86" on="1"/>
        <pt x="305" y="86" on="0"/>
        <pt x="305" y="158" on="1"/>
      </contour>
      <contour>
        <pt x="62" y="728" on="1"/>
        <pt x="156" y="728" on="1"/>
        <pt x="156" y="556" on="1"/>
        <pt x="210" y="578" on="0"/>
        <pt x="329" y="578" on="0"/>
        <pt x="400" y="511" on="0"/>
        <pt x="400" y="447" on="1"/>
        <pt x="400" y="148" on="1"/>
        <pt x="400" y="76" on="0"/>
        <pt x="318" y="0" on="0"/>
        <pt x="250" y="0" on="1"/>
        <pt x="62" y="0" on="1"/>
      </contour>
    </TTGlyph>
    <TTGlyph name="backslash" xMin="35" yMin="-148" xMax="390" yMax="810">
      <contour>
        <pt x="35" y="810" on="1"/>
        <pt x="120" y="810" on="1"/>
        <pt x="390" y="-148" on="1"/>
        <pt x="304" y="-148" on="1"/>
      </contour>
    </TTGlyph>
    <TTGlyph name="bar" xMin="72" yMin="-162" xMax="140" yMax="826">
      <contour>
        <pt x="72" y="826" on="1"/>
        <pt x="140" y="826" on="1"/>
        <pt x="140" y="-162" on="1"/>
        <pt x="72" y="-162" on="1"/>
      </contour>
    </TTGlyph>
    <TTGlyph name="braceleft" xMin="57" yMin="-146" xMax="310" yMax="803">
      <contour>
        <pt x="217" y="664" on="1"/>
        <pt x="217" y="463" on="1"/>
        <pt x="217" y="402" on="0"/>
        <pt x="179" y="337" on="0"/>
        <pt x="129" y="329" on="1"/>
        <pt x="180" y="322" on="0"/>
        <pt x="217" y="259" on="0"/>
        <pt x="217" y="198" on="1"/>
        <pt x="217" y="-8" on="1"/>
        <pt x="217" y="-66" on="0"/>
        <pt x="286" y="-66" on="1"/>
        <pt x="310" y="-66" on="1"/>
        <pt x="310" y="-146" on="1"/>
        <pt x="281" y="-146" on="1"/>
        <pt x="211" y="-146" on="0"/>
        <pt x="135" y="-70" on="0"/>
        <pt x="135" y="-4" on="1"/>
        <pt x="135" y="221" on="1"/>
        <pt x="135" y="253" on="0"/>
        <pt x="97" y="288" on="0"/>
        <pt x="61" y="288" on="1"/>
        <pt x="57" y="288" on="1"/>
        <pt x="57" y="369" on="1"/>
        <pt x="61" y="369" on="1"/>
        <pt x="97" y="369" on="0"/>
        <pt x="135" y="404" on="0"/>
        <pt x="135" y="436" on="1"/>
        <pt x="135" y="661" on="1"/>
        <pt x="135" y="726" on="0"/>
        <pt x="212" y="803" on="0"/>
        <pt x="281" y="803" on="1"/>
        <pt x="310" y="803" on="1"/>
        <pt x="310" y="722" on="1"/>
        <pt x="286" y="722" on="1"/>
        <pt x="217" y="722" on="0"/>
      </contour>
    </TTGlyph>
    <TTGlyph name="braceright" xMin="56" yMin="-146" xMax="309" yMax="803">
      <contour>
        <pt x="306" y="369" on="1"/>
        <pt x="309" y="369" on="1"/>
        <pt x="309" y="288" on="1"/>
        <pt x="306" y="288" on="1"/>
        <pt x="270" y="288" on="0"/>
        <pt x="232" y="253" on="0"/>
        <pt x="232" y="221" on="1"/>
        <pt x="232" y="-4" on="1"/>
        <pt x="232" y="-70" on="0"/>
        <pt x="155" y="-146" on="0"/>
        <pt x="85" y="-146" on="1"/>
        <pt x="56" y="-146" on="1"/>
        <pt x="56" y="-66" on="1"/>
        <pt x="80" y="-66" on="1"/>
        <pt x="149" y="-66" on="0"/>
        <pt x="149" y="-8" on="1"/>
        <pt x="149" y="198" on="1"/>
        <pt x="149" y="259" on="0"/>
        <pt x="187" y="322" on="0"/>
        <pt x="237" y="329" on="1"/>
        <pt x="187" y="337" on="0"/>
        <pt x="149" y="402" on="0"/>
        <pt x="149" y="463" on="1"/>
        <pt x="149" y="664" on="1"/>
        <pt x="149" y="722" on="0"/>
        <pt x="80" y="722" on="1"/>
        <pt x="56" y="722" on="1"/>
        <pt x="56" y="803" on="1"/>
        <pt x="85" y="803" on="1"/>
        <pt x="155" y="803" on="0"/>
        <pt x="232" y="726" on="0"/>
        <pt x="232" y="661" on="1"/>
        <pt x="232" y="436" on="1"/>
        <pt x="232" y="404" on="0"/>
        <pt x="270" y="369" on="0"/>
      </contour>
    </TTGlyph>
    <TTGlyph name="bracketleft" xMin="84" yMin="-148" xMax="284" yMax="810">
      <contour>
        <pt x="162" y="-73" on="1"/>
        <pt x="284" y="-73" on="1"/>
        <pt x="284" y="-148" on="1"/>
        <pt x="84" y="-148" on="1"/>
        <pt x="84" y="810" on="1"/>
        <pt x="284" y="810" on="1"/>
        <pt x="284" y="736" on="1"/>
        <pt x="162" y="736" on="1"/>
      </contour>
    </TTGlyph>
    <TTGlyph name="bracketright" xMin="34" yMin="-148" xMax="235" yMax="810">
      <contour>
        <pt x="34" y="810" on="1"/>
        <pt x="235" y="810" on="1"/>
        <pt x="235" y="-148" on="1"/>
        <pt x="34" y="-148" on="1"/>
        <pt x="34" y="-73" on="1"/>
        <pt x="156" y="-73" on="1"/>
        <pt x="156" y="736" on="1"/>
        <pt x="34" y="736" on="1"/>
      </contour>
    </TTGlyph>
    <TTGlyph name="breve" xMin="62" yMin="619" xMax="288" yMax="728">
      <contour>
        <pt x="226" y="619" on="0"/>
        <pt x="124" y="619" on="0"/>
        <pt x="63" y="680" on="0"/>
        <pt x="62" y="728" on="1"/>
        <pt x="120" y="728" on="1"/>
        <pt x="121" y="702" on="0"/>
        <pt x="149" y="671" on="0"/>
        <pt x="201" y="671" on="0"/>
        <pt x="229" y="702" on="0"/>
        <pt x="230" y="728" on="1"/>
        <pt x="288" y="728" on="1"/>
        <pt x="287" y="680" on="0"/>
      </contour>
    </TTGlyph>
    <TTGlyph name="brokenbar" xMin="72" yMin="-162" xMax="140" yMax="826">
      <contour>
        <pt x="72" y="220" on="1"/>
        <pt x="140" y="220" on="1"/>
        <pt x="140" y="-162" on="1"/>
        <pt x="72" y="-162" on="1"/>
      </contour>
      <contour>
        <pt x="72" y="826" on="1"/>
        <pt x="140" y="826" on="1"/>
        <pt x="140" y="445" on="1"/>
        <pt x="72" y="445" on="1"/>
      </contour>
    </TTGlyph>
    <TTGlyph name="bullet" xMin="51" yMin="249" xMax="212" yMax="409">
      <contour>
        <pt x="51" y="249" on="0"/>
        <pt x="51" y="409" on="0"/>
        <pt x="212" y="409" on="0"/>
        <pt x="212" y="249" on="0"/>
      </contour>
    </TTGlyph>
    <TTGlyph name="c" xMin="52" yMin="-5" xMax="341" yMax="580">
      <contour>
        <pt x="52" y="428" on="1"/>
        <pt x="52" y="580" on="0"/>
        <pt x="228" y="580" on="1"/>
        <pt x="291" y="580" on="0"/>
        <pt x="340" y="566" on="1"/>
        <pt x="340" y="479" on="1"/>
        <pt x="290" y="493" on="0"/>
        <pt x="187" y="493" on="0"/>
        <pt x="146" y="459" on="0"/>
        <pt x="146" y="422" on="1"/>
        <pt x="146" y="152" on="1"/>
        <pt x="146" y="115" on="0"/>
        <pt x="187" y="81" on="0"/>
        <pt x="293" y="81" on="0"/>
        <pt x="341" y="97" on="1"/>
        <pt x="341" y="9" on="1"/>
        <pt x="283" y="-5" on="0"/>
        <pt x="228" y="-5" on="1"/>
        <pt x="52" y="-5" on="0"/>
        <pt x="52" y="147" on="1"/>
      </contour>
    </TTGlyph>
    <TTGlyph name="cacute" xMin="52" yMin="-5" xMax="341" yMax="728">
      <contour>
        <pt x="52" y="428" on="1"/>
        <pt x="52" y="580" on="0"/>
        <pt x="228" y="580" on="1"/>
        <pt x="291" y="580" on="0"/>
        <pt x="340" y="566" on="1"/>
        <pt x="340" y="479" on="1"/>
        <pt x="290" y="493" on="0"/>
        <pt x="187" y="493" on="0"/>
        <pt x="146" y="459" on="0"/>
        <pt x="146" y="422" on="1"/>
        <pt x="146" y="152" on="1"/>
        <pt x="146" y="115" on="0"/>
        <pt x="187" y="81" on="0"/>
        <pt x="293" y="81" on="0"/>
        <pt x="341" y="97" on="1"/>
        <pt x="341" y="9" on="1"/>
        <pt x="283" y="-5" on="0"/>
        <pt x="228" y="-5" on="1"/>
        <pt x="52" y="-5" on="0"/>
        <pt x="52" y="147" on="1"/>
      </contour>
      <contour>
        <pt x="238" y="728" on="1"/>
        <pt x="318" y="728" on="1"/>
        <pt x="254" y="619" on="1"/>
        <pt x="198" y="619" on="1"/>
      </contour>
    </TTGlyph>
    <TTGlyph name="caron" xMin="85" yMin="619" xMax="264" yMax="728">
      <contour>
        <pt x="212" y="728" on="1"/>
        <pt x="264" y="728" on="1"/>
        <pt x="211" y="619" on="1"/>
        <pt x="138" y="619" on="1"/>
        <pt x="85" y="728" on="1"/>
        <pt x="137" y="728" on="1"/>
        <pt x="175" y="668" on="1"/>
      </contour>
    </TTGlyph>
    <TTGlyph name="ccaron" xMin="52" yMin="-5" xMax="341" yMax="728">
      <contour>
        <pt x="146" y="422" on="1"/>
        <pt x="146" y="152" on="1"/>
        <pt x="146" y="115" on="0"/>
        <pt x="187" y="81" on="0"/>
        <pt x="293" y="81" on="0"/>
        <pt x="341" y="97" on="1"/>
        <pt x="341" y="9" on="1"/>
        <pt x="283" y="-5" on="0"/>
        <pt x="228" y="-5" on="1"/>
        <pt x="52" y="-5" on="0"/>
        <pt x="52" y="147" on="1"/>
        <pt x="52" y="428" on="1"/>
        <pt x="52" y="580" on="0"/>
        <pt x="228" y="580" on="1"/>
        <pt x="291" y="580" on="0"/>
        <pt x="340" y="566" on="1"/>
        <pt x="340" y="479" on="1"/>
        <pt x="290" y="493" on="0"/>
        <pt x="187" y="493" on="0"/>
        <pt x="146" y="459" on="0"/>
      </contour>
      <contour>
        <pt x="186" y="619" on="1"/>
        <pt x="133" y="728" on="1"/>
        <pt x="185" y="728" on="1"/>
        <pt x="223" y="668" on="1"/>
        <pt x="260" y="728" on="1"/>
        <pt x="312" y="728" on="1"/>
        <pt x="259" y="619" on="1"/>
      </contour>
    </TTGlyph>
    <TTGlyph name="ccedilla" xMin="52" yMin="-184" xMax="341" yMax="580">
      <contour>
        <pt x="250" y="-42" on="0"/>
        <pt x="288" y="-75" on="0"/>
        <pt x="288" y="-144" on="0"/>
        <pt x="237" y="-184" on="0"/>
        <pt x="168" y="-184" on="0"/>
        <pt x="145" y="-178" on="1"/>
        <pt x="145" y="-130" on="1"/>
        <pt x="161" y="-137" on="0"/>
        <pt x="185" y="-137" on="1"/>
        <pt x="231" y="-137" on="0"/>
        <pt x="231" y="-104" on="1"/>
        <pt x="231" y="-73" on="0"/>
        <pt x="184" y="-71" on="1"/>
        <pt x="171" y="-71" on="1"/>
        <pt x="186" y="-3" on="1"/>
        <pt x="52" y="14" on="0"/>
        <pt x="52" y="147" on="1"/>
        <pt x="52" y="428" on="1"/>
        <pt x="52" y="580" on="0"/>
        <pt x="228" y="580" on="1"/>
        <pt x="291" y="580" on="0"/>
        <pt x="340" y="566" on="1"/>
        <pt x="340" y="479" on="1"/>
        <pt x="290" y="493" on="0"/>
        <pt x="187" y="493" on="0"/>
        <pt x="146" y="459" on="0"/>
        <pt x="146" y="422" on="1"/>
        <pt x="146" y="152" on="1"/>
        <pt x="146" y="115" on="0"/>
        <pt x="187" y="81" on="0"/>
        <pt x="293" y="81" on="0"/>
        <pt x="341" y="97" on="1"/>
        <pt x="341" y="9" on="1"/>
        <pt x="283" y="-5" on="0"/>
        <pt x="231" y="-5" on="1"/>
        <pt x="223" y="-40" on="1"/>
      </contour>
    </TTGlyph>
    <TTGlyph name="cedilla" xMin="103" yMin="-184" xMax="246" yMax="6">
      <contour>
        <pt x="208" y="-42" on="0"/>
        <pt x="246" y="-75" on="0"/>
        <pt x="246" y="-144" on="0"/>
        <pt x="195" y="-184" on="0"/>
        <pt x="126" y="-184" on="0"/>
        <pt x="103" y="-178" on="1"/>
        <pt x="103" y="-130" on="1"/>
        <pt x="119" y="-137" on="0"/>
        <pt x="143" y="-137" on="1"/>
        <pt x="189" y="-137" on="0"/>
        <pt x="189" y="-104" on="1"/>
        <pt x="189" y="-73" on="0"/>
        <pt x="142" y="-71" on="1"/>
        <pt x="129" y="-71" on="1"/>
        <pt x="146" y="6" on="1"/>
        <pt x="191" y="6" on="1"/>
        <pt x="181" y="-40" on="1"/>
      </contour>
    </TTGlyph>
    <TTGlyph name="cent" xMin="58" yMin="-74" xMax="347" yMax="654">
      <contour>
        <pt x="273" y="-74" on="1"/>
        <pt x="186" y="-74" on="1"/>
        <pt x="186" y="-2" on="1"/>
        <pt x="58" y="17" on="0"/>
        <pt x="58" y="147" on="1"/>
        <pt x="58" y="428" on="1"/>
        <pt x="58" y="560" on="0"/>
        <pt x="188" y="577" on="1"/>
        <pt x="188" y="654" on="1"/>
        <pt x="275" y="654" on="1"/>
        <pt x="275" y="579" on="1"/>
        <pt x="317" y="575" on="0"/>
        <pt x="346" y="566" on="1"/>
        <pt x="346" y="479" on="1"/>
        <pt x="296" y="493" on="0"/>
        <pt x="193" y="493" on="0"/>
        <pt x="152" y="459" on="0"/>
        <pt x="152" y="422" on="1"/>
        <pt x="152" y="152" on="1"/>
        <pt x="152" y="115" on="0"/>
        <pt x="193" y="81" on="0"/>
        <pt x="299" y="81" on="0"/>
        <pt x="347" y="97" on="1"/>
        <pt x="347" y="9" on="1"/>
        <pt x="306" y="-1" on="0"/>
        <pt x="273" y="-4" on="1"/>
      </contour>
    </TTGlyph>
    <TTGlyph name="circumflex" xMin="85" yMin="619" xMax="264" yMax="728">
      <contour>
        <pt x="264" y="619" on="1"/>
        <pt x="212" y="619" on="1"/>
        <pt x="175" y="679" on="1"/>
        <pt x="137" y="619" on="1"/>
        <pt x="85" y="619" on="1"/>
        <pt x="138" y="728" on="1"/>
        <pt x="211" y="728" on="1"/>
      </contour>
    </TTGlyph>
    <TTGlyph name="colon" xMin="34" yMin="-7" xMax="144" yMax="454">
      <contour>
        <pt x="34" y="-7" on="0"/>
        <pt x="34" y="103" on="0"/>
        <pt x="144" y="103" on="0"/>
        <pt x="144" y="-7" on="0"/>
      </contour>
      <contour>
        <pt x="144" y="343" on="0"/>
        <pt x="34" y="343" on="0"/>
        <pt x="34" y="454" on="0"/>
        <pt x="144" y="454" on="0"/>
      </contour>
    </TTGlyph>
    <TTGlyph name="comma" xMin="9" yMin="-128" xMax="142" yMax="102">
      <contour>
        <pt x="98" y="102" on="1"/>
        <pt x="142" y="102" on="0"/>
        <pt x="142" y="63" on="1"/>
        <pt x="142" y="12" on="0"/>
        <pt x="62" y="-128" on="1"/>
        <pt x="9" y="-128" on="1"/>
        <pt x="51" y="102" on="1"/>
      </contour>
    </TTGlyph>
    <TTGlyph name="commaaccent" xMin="130" yMin="-192" xMax="219" yMax="-61">
      <contour>
        <pt x="190" y="-61" on="1"/>
        <pt x="219" y="-61" on="0"/>
        <pt x="219" y="-122" on="0"/>
        <pt x="169" y="-192" on="1"/>
        <pt x="130" y="-192" on="1"/>
        <pt x="157" y="-61" on="1"/>
      </contour>
    </TTGlyph>
    <TTGlyph name="copyright" xMin="43" yMin="0" xMax="649" yMax="656">
      <contour>
        <pt x="572" y="243" on="1"/>
        <pt x="576" y="278" on="0"/>
        <pt x="576" y="379" on="0"/>
        <pt x="569" y="448" on="0"/>
        <pt x="542" y="519" on="0"/>
        <pt x="518" y="540" on="1"/>
        <pt x="464" y="586" on="0"/>
        <pt x="347" y="586" on="1"/>
        <pt x="197" y="586" on="0"/>
        <pt x="154" y="512" on="1"/>
        <pt x="131" y="473" on="0"/>
        <pt x="117" y="392" on="0"/>
        <pt x="117" y="276" on="0"/>
        <pt x="125" y="207" on="0"/>
        <pt x="153" y="137" on="0"/>
        <pt x="178" y="116" on="1"/>
        <pt x="233" y="70" on="0"/>
        <pt x="347" y="70" on="1"/>
        <pt x="460" y="70" on="0"/>
        <pt x="514" y="117" on="1"/>
        <pt x="560" y="156" on="0"/>
      </contour>
      <contour>
        <pt x="226" y="385" on="1"/>
        <pt x="226" y="445" on="0"/>
        <pt x="288" y="507" on="0"/>
        <pt x="359" y="507" on="1"/>
        <pt x="402" y="507" on="0"/>
        <pt x="434" y="499" on="1"/>
        <pt x="434" y="433" on="1"/>
        <pt x="394" y="443" on="0"/>
        <pt x="320" y="443" on="0"/>
        <pt x="297" y="414" on="0"/>
        <pt x="297" y="383" on="1"/>
        <pt x="297" y="273" on="1"/>
        <pt x="297" y="253" on="0"/>
        <pt x="303" y="231" on="0"/>
        <pt x="332" y="214" on="0"/>
        <pt x="399" y="214" on="0"/>
        <pt x="434" y="223" on="1"/>
        <pt x="434" y="157" on="1"/>
        <pt x="386" y="149" on="0"/>
        <pt x="359" y="149" on="1"/>
        <pt x="288" y="149" on="0"/>
        <pt x="226" y="212" on="0"/>
        <pt x="226" y="272" on="1"/>
      </contour>
      <contour>
        <pt x="43" y="327" on="1"/>
        <pt x="43" y="403" on="0"/>
        <pt x="70" y="516" on="0"/>
        <pt x="102" y="562" on="1"/>
        <pt x="169" y="656" on="0"/>
        <pt x="347" y="656" on="1"/>
        <pt x="527" y="656" on="0"/>
        <pt x="592" y="563" on="1"/>
        <pt x="624" y="517" on="0"/>
        <pt x="649" y="405" on="0"/>
        <pt x="649" y="252" on="0"/>
        <pt x="621" y="140" on="0"/>
        <pt x="588" y="94" on="1"/>
        <pt x="522" y="0" on="0"/>
        <pt x="347" y="0" on="1"/>
        <pt x="169" y="0" on="0"/>
        <pt x="104" y="93" on="1"/>
        <pt x="43" y="179" on="0"/>
      </contour>
    </TTGlyph>
    <TTGlyph name="currency" xMin="30" yMin="112" xMax="433" yMax="566">
      <contour>
        <pt x="401" y="384" on="1"/>
        <pt x="401" y="294" on="1"/>
        <pt x="401" y="248" on="0"/>
        <pt x="386" y="214" on="1"/>
        <pt x="432" y="169" on="1"/>
        <pt x="375" y="112" on="1"/>
        <pt x="331" y="156" on="1"/>
        <pt x="294" y="135" on="0"/>
        <pt x="170" y="135" on="0"/>
        <pt x="131" y="156" on="1"/>
        <pt x="87" y="112" on="1"/>
        <pt x="30" y="169" on="1"/>
        <pt x="76" y="214" on="1"/>
        <pt x="61" y="248" on="0"/>
        <pt x="61" y="294" on="1"/>
        <pt x="61" y="384" on="1"/>
        <pt x="61" y="430" on="0"/>
        <pt x="76" y="464" on="1"/>
        <pt x="31" y="509" on="1"/>
        <pt x="88" y="566" on="1"/>
        <pt x="132" y="522" on="1"/>
        <pt x="170" y="543" on="0"/>
        <pt x="293" y="543" on="0"/>
        <pt x="332" y="522" on="1"/>
        <pt x="376" y="566" on="1"/>
        <pt x="433" y="509" on="1"/>
        <pt x="386" y="463" on="1"/>
        <pt x="401" y="430" on="0"/>
      </contour>
      <contour>
        <pt x="152" y="382" on="1"/>
        <pt x="152" y="296" on="1"/>
        <pt x="152" y="256" on="0"/>
        <pt x="187" y="217" on="0"/>
        <pt x="275" y="217" on="0"/>
        <pt x="310" y="256" on="0"/>
        <pt x="310" y="296" on="1"/>
        <pt x="310" y="382" on="1"/>
        <pt x="310" y="422" on="0"/>
        <pt x="275" y="460" on="0"/>
        <pt x="187" y="460" on="0"/>
        <pt x="152" y="422" on="0"/>
      </contour>
    </TTGlyph>
    <TTGlyph name="d" xMin="52" yMin="-3" xMax="390" yMax="728">
      <contour>
        <pt x="295" y="490" on="1"/>
        <pt x="227" y="490" on="1"/>
        <pt x="146" y="490" on="0"/>
        <pt x="146" y="414" on="1"/>
        <pt x="146" y="149" on="1"/>
        <pt x="146" y="82" on="0"/>
        <pt x="212" y="82" on="1"/>
        <pt x="265" y="82" on="0"/>
        <pt x="295" y="110" on="1"/>
      </contour>
      <contour>
        <pt x="295" y="728" on="1"/>
        <pt x="390" y="728" on="1"/>
        <pt x="390" y="0" on="1"/>
        <pt x="297" y="0" on="1"/>
        <pt x="297" y="36" on="1"/>
        <pt x="256" y="-3" on="0"/>
        <pt x="122" y="-3" on="0"/>
        <pt x="52" y="70" on="0"/>
        <pt x="52" y="138" on="1"/>
        <pt x="52" y="417" on="1"/>
        <pt x="52" y="491" on="0"/>
        <pt x="138" y="575" on="0"/>
        <pt x="215" y="575" on="1"/>
        <pt x="295" y="575" on="1"/>
      </contour>
    </TTGlyph>
    <TTGlyph name="dagger" xMin="40" yMin="-29" xMax="326" yMax="794">
      <contour>
        <pt x="140" y="794" on="1"/>
        <pt x="226" y="794" on="1"/>
        <pt x="219" y="649" on="1"/>
        <pt x="268" y="656" on="0"/>
        <pt x="326" y="656" on="1"/>
        <pt x="326" y="582" on="1"/>
        <pt x="284" y="582" on="0"/>
        <pt x="219" y="589" on="1"/>
        <pt x="226" y="512" on="0"/>
        <pt x="226" y="431" on="1"/>
        <pt x="226" y="-29" on="1"/>
        <pt x="140" y="-29" on="1"/>
        <pt x="140" y="431" on="1"/>
        <pt x="140" y="489" on="0"/>
        <pt x="147" y="589" on="1"/>
        <pt x="101" y="582" on="0"/>
        <pt x="40" y="582" on="1"/>
        <pt x="40" y="656" on="1"/>
        <pt x="86" y="656" on="0"/>
        <pt x="147" y="649" on="1"/>
        <pt x="140" y="726" on="0"/>
      </contour>
    </TTGlyph>
    <TTGlyph name="daggerdbl" xMin="39" yMin="-29" xMax="325" yMax="794">
      <contour>
        <pt x="139" y="794" on="1"/>
        <pt x="225" y="794" on="1"/>
        <pt x="218" y="649" on="1"/>
        <pt x="264" y="656" on="0"/>
        <pt x="325" y="656" on="1"/>
        <pt x="325" y="582" on="1"/>
        <pt x="279" y="582" on="0"/>
        <pt x="218" y="589" on="1"/>
        <pt x="222" y="385" on="0"/>
        <pt x="218" y="176" on="1"/>
        <pt x="264" y="183" on="0"/>
        <pt x="325" y="183" on="1"/>
        <pt x="325" y="109" on="1"/>
        <pt x="264" y="109" on="0"/>
        <pt x="218" y="116" on="1"/>
        <pt x="225" y="62" on="0"/>
        <pt x="225" y="-29" on="1"/>
        <pt x="139" y="-29" on="1"/>
        <pt x="139" y="60" on="0"/>
        <pt x="146" y="116" on="1"/>
        <pt x="100" y="109" on="0"/>
        <pt x="39" y="109" on="1"/>
        <pt x="39" y="183" on="1"/>
        <pt x="100" y="183" on="0"/>
        <pt x="146" y="176" on="1"/>
        <pt x="142" y="384" on="0"/>
        <pt x="146" y="589" on="1"/>
        <pt x="100" y="582" on="0"/>
        <pt x="39" y="582" on="1"/>
        <pt x="39" y="656" on="1"/>
        <pt x="85" y="656" on="0"/>
        <pt x="146" y="649" on="1"/>
        <pt x="139" y="726" on="0"/>
      </contour>
    </TTGlyph>
    <TTGlyph name="dcaron" xMin="52" yMin="-3" xMax="518" yMax="728">
      <contour>
        <pt x="488" y="727" on="1"/>
        <pt x="518" y="727" on="0"/>
        <pt x="518" y="699" on="1"/>
        <pt x="518" y="668" on="0"/>
        <pt x="468" y="595" on="1"/>
        <pt x="429" y="595" on="1"/>
        <pt x="455" y="727" on="1"/>
      </contour>
      <contour>
        <pt x="295" y="490" on="1"/>
        <pt x="227" y="490" on="1"/>
        <pt x="146" y="490" on="0"/>
        <pt x="146" y="414" on="1"/>
        <pt x="146" y="149" on="1"/>
        <pt x="146" y="82" on="0"/>
        <pt x="212" y="82" on="1"/>
        <pt x="265" y="82" on="0"/>
        <pt x="295" y="110" on="1"/>
      </contour>
      <contour>
        <pt x="295" y="728" on="1"/>
        <pt x="390" y="728" on="1"/>
        <pt x="390" y="0" on="1"/>
        <pt x="297" y="0" on="1"/>
        <pt x="297" y="36" on="1"/>
        <pt x="256" y="-3" on="0"/>
        <pt x="122" y="-3" on="0"/>
        <pt x="52" y="70" on="0"/>
        <pt x="52" y="138" on="1"/>
        <pt x="52" y="417" on="1"/>
        <pt x="52" y="491" on="0"/>
        <pt x="138" y="575" on="0"/>
        <pt x="215" y="575" on="1"/>
        <pt x="295" y="575" on="1"/>
      </contour>
    </TTGlyph>
    <TTGlyph name="dcroat" xMin="53" yMin="-3" xMax="431" yMax="728">
      <contour>
        <pt x="431" y="681" on="1"/>
        <pt x="431" y="630" on="1"/>
        <pt x="391" y="630" on="1"/>
        <pt x="391" y="0" on="1"/>
        <pt x="298" y="0" on="1"/>
        <pt x="298" y="36" on="1"/>
        <pt x="257" y="-3" on="0"/>
        <pt x="123" y="-3" on="0"/>
        <pt x="53" y="70" on="0"/>
        <pt x="53" y="138" on="1"/>
        <pt x="53" y="417" on="1"/>
        <pt x="53" y="491" on="0"/>
        <pt x="139" y="575" on="0"/>
        <pt x="216" y="575" on="1"/>
        <pt x="296" y="575" on="1"/>
        <pt x="296" y="630" on="1"/>
        <pt x="171" y="630" on="1"/>
        <pt x="171" y="681" on="1"/>
        <pt x="296" y="681" on="1"/>
        <pt x="296" y="728" on="1"/>
        <pt x="391" y="728" on="1"/>
        <pt x="391" y="681" on="1"/>
      </contour>
      <contour>
        <pt x="296" y="490" on="1"/>
        <pt x="228" y="490" on="1"/>
        <pt x="147" y="490" on="0"/>
        <pt x="147" y="414" on="1"/>
        <pt x="147" y="149" on="1"/>
        <pt x="147" y="82" on="0"/>
        <pt x="213" y="82" on="1"/>
        <pt x="266" y="82" on="0"/>
        <pt x="296" y="110" on="1"/>
      </contour>
    </TTGlyph>
    <TTGlyph name="degree" xMin="49" yMin="502" xMax="345" yMax="813">
      <contour>
        <pt x="268" y="616" on="0"/>
        <pt x="268" y="698" on="0"/>
        <pt x="238" y="740" on="0"/>
        <pt x="156" y="740" on="0"/>
        <pt x="126" y="698" on="0"/>
        <pt x="126" y="616" on="0"/>
        <pt x="156" y="574" on="0"/>
        <pt x="238" y="574" on="0"/>
      </contour>
      <contour>
        <pt x="120" y="502" on="0"/>
        <pt x="49" y="586" on="0"/>
        <pt x="49" y="729" on="0"/>
        <pt x="120" y="813" on="0"/>
        <pt x="274" y="813" on="0"/>
        <pt x="345" y="729" on="0"/>
        <pt x="345" y="586" on="0"/>
        <pt x="274" y="502" on="0"/>
      </contour>
    </TTGlyph>
    <TTGlyph name="dieresis" xMin="58" yMin="630" xMax="292" yMax="715">
      <contour>
        <pt x="292" y="630" on="0"/>
        <pt x="204" y="630" on="0"/>
        <pt x="204" y="715" on="0"/>
        <pt x="292" y="715" on="0"/>
      </contour>
      <contour>
        <pt x="146" y="630" on="0"/>
        <pt x="58" y="630" on="0"/>
        <pt x="58" y="715" on="0"/>
        <pt x="146" y="715" on="0"/>
      </contour>
    </TTGlyph>
    <TTGlyph name="divide" xMin="40" yMin="102" xMax="414" yMax="548">
      <contour>
        <pt x="177" y="445" on="0"/>
        <pt x="177" y="548" on="0"/>
        <pt x="280" y="548" on="0"/>
        <pt x="280" y="445" on="0"/>
      </contour>
      <contour>
        <pt x="177" y="102" on="0"/>
        <pt x="177" y="205" on="0"/>
        <pt x="280" y="205" on="0"/>
        <pt x="280" y="102" on="0"/>
      </contour>
      <contour>
        <pt x="40" y="365" on="1"/>
        <pt x="414" y="365" on="1"/>
        <pt x="414" y="286" on="1"/>
        <pt x="40" y="286" on="1"/>
      </contour>
    </TTGlyph>
    <TTGlyph name="dollar" xMin="26" yMin="-68" xMax="375" yMax="739">
      <contour>
        <pt x="375" y="203" on="1"/>
        <pt x="375" y="147" on="1"/>
        <pt x="375" y="22" on="0"/>
        <pt x="235" y="0" on="1"/>
        <pt x="235" y="-68" on="1"/>
        <pt x="147" y="-68" on="1"/>
        <pt x="147" y="-4" on="1"/>
        <pt x="77" y="-1" on="0"/>
        <pt x="32" y="16" on="1"/>
        <pt x="32" y="106" on="1"/>
        <pt x="98" y="82" on="0"/>
        <pt x="171" y="82" on="1"/>
        <pt x="280" y="82" on="0"/>
        <pt x="280" y="156" on="1"/>
        <pt x="280" y="190" on="1"/>
        <pt x="280" y="220" on="0"/>
        <pt x="258" y="253" on="0"/>
        <pt x="228" y="269" on="1"/>
        <pt x="115" y="331" on="1"/>
        <pt x="26" y="379" on="0"/>
        <pt x="26" y="474" on="1"/>
        <pt x="26" y="534" on="1"/>
        <pt x="26" y="657" on="0"/>
        <pt x="156" y="679" on="1"/>
        <pt x="156" y="739" on="1"/>
        <pt x="244" y="739" on="1"/>
        <pt x="244" y="682" on="1"/>
        <pt x="304" y="679" on="0"/>
        <pt x="345" y="665" on="1"/>
        <pt x="345" y="575" on="1"/>
        <pt x="291" y="596" on="0"/>
        <pt x="214" y="596" on="1"/>
        <pt x="121" y="596" on="0"/>
        <pt x="121" y="527" on="1"/>
        <pt x="121" y="488" on="1"/>
        <pt x="121" y="456" on="0"/>
        <pt x="146" y="419" on="0"/>
        <pt x="178" y="401" on="1"/>
        <pt x="294" y="336" on="1"/>
        <pt x="375" y="292" on="0"/>
      </contour>
    </TTGlyph>
    <TTGlyph name="dotaccent" xMin="130" yMin="646" xMax="218" yMax="731">
      <contour>
        <pt x="218" y="646" on="0"/>
        <pt x="130" y="646" on="0"/>
        <pt x="130" y="731" on="0"/>
        <pt x="218" y="731" on="0"/>
      </contour>
    </TTGlyph>
    <TTGlyph name="dotlessi" xMin="62" yMin="0" xMax="156" yMax="568">
      <contour>
        <pt x="62" y="568" on="1"/>
        <pt x="156" y="568" on="1"/>
        <pt x="156" y="0" on="1"/>
        <pt x="62" y="0" on="1"/>
      </contour>
    </TTGlyph>
    <TTGlyph name="dvDDH_DDHA" xMin="-29" yMin="-286" xMax="460" yMax="656">
      <contour>
        <pt x="246" y="-78" on="1"/>
        <pt x="223" y="-78" on="0"/>
        <pt x="207" y="-86" on="1"/>
        <pt x="207" y="-17" on="1"/>
        <pt x="229" y="-9" on="0"/>
        <pt x="259" y="-9" on="1"/>
        <pt x="318" y="-9" on="0"/>
        <pt x="386" y="-71" on="0"/>
        <pt x="386" y="-132" on="1"/>
        <pt x="386" y="-146" on="1"/>
        <pt x="386" y="-286" on="0"/>
        <pt x="51" y="-286" on="0"/>
        <pt x="51" y="-144" on="1"/>
        <pt x="51" y="2" on="1"/>
        <pt x="51" y="72" on="0"/>
        <pt x="94" y="103" on="1"/>
        <pt x="52" y="140" on="0"/>
        <pt x="52" y="209" on="1"/>
        <pt x="52" y="371" on="1"/>
        <pt x="52" y="438" on="0"/>
        <pt x="128" y="502" on="0"/>
        <pt x="208" y="502" on="1"/>
        <pt x="263" y="502" on="1"/>
        <pt x="263" y="582" on="1"/>
        <pt x="-29" y="582" on="1"/>
        <pt x="-29" y="656" on="1"/>
        <pt x="460" y="656" on="1"/>
        <pt x="460" y="582" on="1"/>
        <pt x="348" y="582" on="1"/>
        <pt x="348" y="427" on="1"/>
        <pt x="208" y="427" on="1"/>
        <pt x="169" y="427" on="0"/>
        <pt x="138" y="399" on="0"/>
        <pt x="138" y="369" on="1"/>
        <pt x="138" y="211" on="1"/>
        <pt x="138" y="178" on="0"/>
        <pt x="173" y="142" on="0"/>
        <pt x="267" y="142" on="0"/>
        <pt x="303" y="177" on="0"/>
        <pt x="303" y="210" on="1"/>
        <pt x="303" y="220" on="1"/>
        <pt x="303" y="276" on="0"/>
        <pt x="247" y="276" on="1"/>
        <pt x="225" y="276" on="0"/>
        <pt x="209" y="268" on="1"/>
        <pt x="209" y="337" on="1"/>
        <pt x="230" y="345" on="0"/>
        <pt x="260" y="345" on="1"/>
        <pt x="319" y="345" on="0"/>
        <pt x="387" y="283" on="0"/>
        <pt x="387" y="222" on="1"/>
        <pt x="387" y="207" on="1"/>
        <pt x="387" y="67" on="0"/>
        <pt x="220" y="67" on="1"/>
        <pt x="213" y="67" on="1"/>
        <pt x="169" y="67" on="0"/>
        <pt x="137" y="35" on="0"/>
        <pt x="137" y="0" on="1"/>
        <pt x="137" y="-142" on="1"/>
        <pt x="137" y="-175" on="0"/>
        <pt x="172" y="-211" on="0"/>
        <pt x="266" y="-211" on="0"/>
        <pt x="301" y="-176" on="0"/>
        <pt x="301" y="-143" on="1"/>
        <pt x="301" y="-135" on="1"/>
        <pt x="301" y="-78" on="0"/>
      </contour>
    </TTGlyph>
    <TTGlyph name="dvDD_GA" xMin="-29" yMin="-185" xMax="459" yMax="656">
      <contour>
        <pt x="359" y="433" on="1"/>
        <pt x="200" y="433" on="1"/>
        <pt x="166" y="433" on="0"/>
        <pt x="138" y="412" on="0"/>
        <pt x="138" y="387" on="1"/>
        <pt x="138" y="382" on="1"/>
        <pt x="138" y="357" on="0"/>
        <pt x="165" y="336" on="0"/>
        <pt x="200" y="336" on="1"/>
        <pt x="234" y="336" on="1"/>
        <pt x="314" y="336" on="0"/>
        <pt x="389" y="280" on="0"/>
        <pt x="389" y="215" on="1"/>
        <pt x="389" y="201" on="1"/>
        <pt x="389" y="136" on="0"/>
        <pt x="347" y="105" on="1"/>
        <pt x="347" y="-185" on="1"/>
        <pt x="265" y="-185" on="1"/>
        <pt x="265" y="77" on="1"/>
        <pt x="238" y="74" on="0"/>
        <pt x="206" y="74" on="1"/>
        <pt x="188" y="74" on="1"/>
        <pt x="188" y="28" on="1"/>
        <pt x="188" y="-41" on="0"/>
        <pt x="132" y="-102" on="0"/>
        <pt x="60" y="-102" on="1"/>
        <pt x="22" y="-100" on="1"/>
        <pt x="22" y="-23" on="1"/>
        <pt x="39" y="-25" on="0"/>
        <pt x="49" y="-25" on="1"/>
        <pt x="85" y="-25" on="0"/>
        <pt x="106" y="2" on="0"/>
        <pt x="106" y="34" on="1"/>
        <pt x="106" y="81" on="1"/>
        <pt x="82" y="83" on="0"/>
        <pt x="45" y="91" on="1"/>
        <pt x="45" y="165" on="1"/>
        <pt x="136" y="148" on="0"/>
        <pt x="257" y="148" on="0"/>
        <pt x="300" y="171" on="0"/>
        <pt x="300" y="204" on="1"/>
        <pt x="300" y="216" on="1"/>
        <pt x="300" y="242" on="0"/>
        <pt x="271" y="265" on="0"/>
        <pt x="234" y="265" on="1"/>
        <pt x="202" y="265" on="1"/>
        <pt x="125" y="265" on="0"/>
        <pt x="49" y="316" on="0"/>
        <pt x="49" y="381" on="1"/>
        <pt x="49" y="388" on="1"/>
        <pt x="49" y="502" on="0"/>
        <pt x="203" y="502" on="1"/>
        <pt x="269" y="502" on="1"/>
        <pt x="269" y="582" on="1"/>
        <pt x="-29" y="582" on="1"/>
        <pt x="-29" y="656" on="1"/>
        <pt x="459" y="656" on="1"/>
        <pt x="459" y="582" on="1"/>
        <pt x="359" y="582" on="1"/>
      </contour>
    </TTGlyph>
    <TTGlyph name="dvMatraI.a33" xMin="-29" yMin="0" xMax="1320" yMax="886">
      <contour>
        <pt x="65" y="656" on="1"/>
        <pt x="65" y="681" on="1"/>
        <pt x="65" y="800" on="0"/>
        <pt x="164" y="846" on="1"/>
        <pt x="254" y="886" on="0"/>
        <pt x="422" y="886" on="1"/>
        <pt x="750" y="886" on="0"/>
        <pt x="1320" y="828" on="1"/>
        <pt x="1320" y="749" on="1"/>
        <pt x="747" y="806" on="0"/>
        <pt x="427" y="806" on="1"/>
        <pt x="290" y="806" on="0"/>
        <pt x="224" y="782" on="1"/>
        <pt x="151" y="756" on="0"/>
        <pt x="151" y="680" on="1"/>
        <pt x="151" y="656" on="1"/>
        <pt x="242" y="656" on="1"/>
        <pt x="242" y="582" on="1"/>
        <pt x="150" y="582" on="1"/>
        <pt x="150" y="0" on="1"/>
        <pt x="63" y="0" on="1"/>
        <pt x="63" y="582" on="1"/>
        <pt x="-29" y="582" on="1"/>
        <pt x="-29" y="656" on="1"/>
      </contour>
    </TTGlyph>
    <TTGlyph name="dvMatraI.a34" xMin="-29" yMin="0" xMax="1345" yMax="886">
      <contour>
        <pt x="65" y="656" on="1"/>
        <pt x="65" y="681" on="1"/>
        <pt x="65" y="800" on="0"/>
        <pt x="165" y="846" on="1"/>
        <pt x="255" y="886" on="0"/>
        <pt x="426" y="886" on="1"/>
        <pt x="780" y="886" on="0"/>
        <pt x="1345" y="827" on="1"/>
        <pt x="1345" y="749" on="1"/>
        <pt x="732" y="806" on="0"/>
        <pt x="431" y="806" on="1"/>
        <pt x="287" y="806" on="0"/>
        <pt x="151" y="753" on="0"/>
        <pt x="151" y="680" on="1"/>
        <pt x="151" y="656" on="1"/>
        <pt x="242" y="656" on="1"/>
        <pt x="242" y="582" on="1"/>
        <pt x="150" y="582" on="1"/>
        <pt x="150" y="0" on="1"/>
        <pt x="63" y="0" on="1"/>
        <pt x="63" y="582" on="1"/>
        <pt x="-29" y="582" on="1"/>
        <pt x="-29" y="656" on="1"/>
      </contour>
    </TTGlyph>
    <TTGlyph name="dvMatraI.a35" xMin="-29" yMin="0" xMax="1370" yMax="886">
      <contour>
        <pt x="65" y="656" on="1"/>
        <pt x="65" y="681" on="1"/>
        <pt x="65" y="802" on="0"/>
        <pt x="167" y="846" on="1"/>
        <pt x="260" y="886" on="0"/>
        <pt x="431" y="886" on="1"/>
        <pt x="804" y="886" on="0"/>
        <pt x="1370" y="827" on="1"/>
        <pt x="1370" y="749" on="1"/>
        <pt x="751" y="806" on="0"/>
        <pt x="435" y="806" on="1"/>
        <pt x="289" y="806" on="0"/>
        <pt x="151" y="754" on="0"/>
        <pt x="151" y="680" on="1"/>
        <pt x="151" y="656" on="1"/>
        <pt x="242" y="656" on="1"/>
        <pt x="242" y="582" on="1"/>
        <pt x="150" y="582" on="1"/>
        <pt x="150" y="0" on="1"/>
        <pt x="63" y="0" on="1"/>
        <pt x="63" y="582" on="1"/>
        <pt x="-29" y="582" on="1"/>
        <pt x="-29" y="656" on="1"/>
      </contour>
    </TTGlyph>
    <TTGlyph name="dvMatraI.a36" xMin="-29" yMin="0" xMax="1395" yMax="886">
      <contour>
        <pt x="65" y="656" on="1"/>
        <pt x="65" y="681" on="1"/>
        <pt x="65" y="821" on="0"/>
        <pt x="209" y="862" on="1"/>
        <pt x="296" y="886" on="0"/>
        <pt x="434" y="886" on="1"/>
        <pt x="803" y="886" on="0"/>
        <pt x="1395" y="827" on="1"/>
        <pt x="1395" y="749" on="1"/>
        <pt x="784" y="806" on="0"/>
        <pt x="439" y="806" on="1"/>
        <pt x="291" y="806" on="0"/>
        <pt x="151" y="754" on="0"/>
        <pt x="151" y="680" on="1"/>
        <pt x="151" y="656" on="1"/>
        <pt x="242" y="656" on="1"/>
        <pt x="242" y="582" on="1"/>
        <pt x="150" y="582" on="1"/>
        <pt x="150" y="0" on="1"/>
        <pt x="63" y="0" on="1"/>
        <pt x="63" y="582" on="1"/>
        <pt x="-29" y="582" on="1"/>
        <pt x="-29" y="656" on="1"/>
      </contour>
    </TTGlyph>
    <TTGlyph name="dvMatraI.a37" xMin="-29" yMin="0" xMax="1420" yMax="886">
      <contour>
        <pt x="65" y="656" on="1"/>
        <pt x="65" y="681" on="1"/>
        <pt x="65" y="802" on="0"/>
        <pt x="169" y="846" on="1"/>
        <pt x="264" y="886" on="0"/>
        <pt x="439" y="886" on="1"/>
        <pt x="844" y="886" on="0"/>
        <pt x="1420" y="827" on="1"/>
        <pt x="1420" y="749" on="1"/>
        <pt x="793" y="806" on="0"/>
        <pt x="444" y="806" on="1"/>
        <pt x="301" y="806" on="0"/>
        <pt x="230" y="783" on="1"/>
        <pt x="151" y="758" on="0"/>
        <pt x="151" y="680" on="1"/>
        <pt x="151" y="656" on="1"/>
        <pt x="242" y="656" on="1"/>
        <pt x="242" y="582" on="1"/>
        <pt x="150" y="582" on="1"/>
        <pt x="150" y="0" on="1"/>
        <pt x="63" y="0" on="1"/>
        <pt x="63" y="582" on="1"/>
        <pt x="-29" y="582" on="1"/>
        <pt x="-29" y="656" on="1"/>
      </contour>
    </TTGlyph>
    <TTGlyph name="dvMatraI.a38" xMin="-29" yMin="0" xMax="1444" yMax="886">
      <contour>
        <pt x="65" y="656" on="1"/>
        <pt x="65" y="680" on="1"/>
        <pt x="65" y="802" on="0"/>
        <pt x="170" y="846" on="1"/>
        <pt x="266" y="886" on="0"/>
        <pt x="442" y="886" on="1"/>
        <pt x="842" y="886" on="0"/>
        <pt x="1444" y="827" on="1"/>
        <pt x="1444" y="749" on="1"/>
        <pt x="765" y="806" on="0"/>
        <pt x="447" y="806" on="1"/>
        <pt x="295" y="806" on="0"/>
        <pt x="151" y="754" on="0"/>
        <pt x="151" y="679" on="1"/>
        <pt x="151" y="656" on="1"/>
        <pt x="242" y="656" on="1"/>
        <pt x="242" y="582" on="1"/>
        <pt x="150" y="582" on="1"/>
        <pt x="150" y="0" on="1"/>
        <pt x="63" y="0" on="1"/>
        <pt x="63" y="582" on="1"/>
        <pt x="-29" y="582" on="1"/>
        <pt x="-29" y="656" on="1"/>
      </contour>
    </TTGlyph>
    <TTGlyph name="dvMatraI.a39" xMin="-29" yMin="0" xMax="1470" yMax="886">
      <contour>
        <pt x="65" y="656" on="1"/>
        <pt x="65" y="680" on="1"/>
        <pt x="65" y="802" on="0"/>
        <pt x="171" y="846" on="1"/>
        <pt x="267" y="886" on="0"/>
        <pt x="447" y="886" on="1"/>
        <pt x="849" y="886" on="0"/>
        <pt x="1470" y="827" on="1"/>
        <pt x="1470" y="749" on="1"/>
        <pt x="828" y="806" on="0"/>
        <pt x="452" y="806" on="1"/>
        <pt x="263" y="806" on="0"/>
        <pt x="202" y="770" on="1"/>
        <pt x="151" y="739" on="0"/>
        <pt x="151" y="679" on="1"/>
        <pt x="151" y="656" on="1"/>
        <pt x="242" y="656" on="1"/>
        <pt x="242" y="582" on="1"/>
        <pt x="150" y="582" on="1"/>
        <pt x="150" y="0" on="1"/>
        <pt x="63" y="0" on="1"/>
        <pt x="63" y="582" on="1"/>
        <pt x="-29" y="582" on="1"/>
        <pt x="-29" y="656" on="1"/>
      </contour>
    </TTGlyph>
    <TTGlyph name="dvMatraI.a40" xMin="-29" yMin="0" xMax="1494" yMax="886">
      <contour>
        <pt x="65" y="656" on="1"/>
        <pt x="65" y="680" on="1"/>
        <pt x="65" y="802" on="0"/>
        <pt x="172" y="846" on="1"/>
        <pt x="270" y="886" on="0"/>
        <pt x="451" y="886" on="1"/>
        <pt x="857" y="886" on="0"/>
        <pt x="1494" y="827" on="1"/>
        <pt x="1494" y="749" on="1"/>
        <pt x="818" y="806" on="0"/>
        <pt x="456" y="806" on="1"/>
        <pt x="306" y="806" on="0"/>
        <pt x="234" y="784" on="1"/>
        <pt x="151" y="757" on="0"/>
        <pt x="151" y="679" on="1"/>
        <pt x="151" y="656" on="1"/>
        <pt x="242" y="656" on="1"/>
        <pt x="242" y="582" on="1"/>
        <pt x="150" y="582" on="1"/>
        <pt x="150" y="0" on="1"/>
        <pt x="63" y="0" on="1"/>
        <pt x="63" y="582" on="1"/>
        <pt x="-29" y="582" on="1"/>
        <pt x="-29" y="656" on="1"/>
      </contour>
    </TTGlyph>
    <TTGlyph name="dvMatraI.a41" xMin="-29" yMin="0" xMax="1519" yMax="886">
      <contour>
        <pt x="65" y="656" on="1"/>
        <pt x="65" y="680" on="1"/>
        <pt x="65" y="777" on="0"/>
        <pt x="134" y="826" on="1"/>
        <pt x="198" y="870" on="0"/>
        <pt x="324" y="881" on="1"/>
        <pt x="380" y="886" on="0"/>
        <pt x="455" y="886" on="1"/>
        <pt x="859" y="886" on="0"/>
        <pt x="1519" y="826" on="1"/>
        <pt x="1519" y="748" on="1"/>
        <pt x="836" y="806" on="0"/>
        <pt x="459" y="806" on="1"/>
        <pt x="311" y="806" on="0"/>
        <pt x="234" y="783" on="1"/>
        <pt x="151" y="758" on="0"/>
        <pt x="151" y="678" on="1"/>
        <pt x="151" y="656" on="1"/>
        <pt x="242" y="656" on="1"/>
        <pt x="242" y="582" on="1"/>
        <pt x="150" y="582" on="1"/>
        <pt x="150" y="0" on="1"/>
        <pt x="63" y="0" on="1"/>
        <pt x="63" y="582" on="1"/>
        <pt x="-29" y="582" on="1"/>
        <pt x="-29" y="656" on="1"/>
      </contour>
    </TTGlyph>
    <TTGlyph name="dvMatraI.a42" xMin="-29" yMin="0" xMax="1544" yMax="886">
      <contour>
        <pt x="65" y="656" on="1"/>
        <pt x="65" y="680" on="1"/>
        <pt x="65" y="803" on="0"/>
        <pt x="175" y="847" on="1"/>
        <pt x="230" y="869" on="0"/>
        <pt x="364" y="886" on="0"/>
        <pt x="459" y="886" on="1"/>
        <pt x="874" y="886" on="0"/>
        <pt x="1544" y="826" on="1"/>
        <pt x="1544" y="748" on="1"/>
        <pt x="875" y="806" on="0"/>
        <pt x="464" y="806" on="1"/>
        <pt x="309" y="806" on="0"/>
        <pt x="236" y="784" on="1"/>
        <pt x="151" y="757" on="0"/>
        <pt x="151" y="678" on="1"/>
        <pt x="151" y="656" on="1"/>
        <pt x="242" y="656" on="1"/>
        <pt x="242" y="582" on="1"/>
        <pt x="150" y="582" on="1"/>
        <pt x="150" y="0" on="1"/>
        <pt x="63" y="0" on="1"/>
        <pt x="63" y="582" on="1"/>
        <pt x="-29" y="582" on="1"/>
        <pt x="-29" y="656" on="1"/>
      </contour>
    </TTGlyph>
    <TTGlyph name="dvMatraI.a43" xMin="-29" yMin="0" xMax="1569" yMax="886">
      <contour>
        <pt x="65" y="656" on="1"/>
        <pt x="65" y="680" on="1"/>
        <pt x="65" y="777" on="0"/>
        <pt x="136" y="826" on="1"/>
        <pt x="201" y="870" on="0"/>
        <pt x="330" y="881" on="1"/>
        <pt x="387" y="886" on="0"/>
        <pt x="463" y="886" on="1"/>
        <pt x="887" y="886" on="0"/>
        <pt x="1569" y="826" on="1"/>
        <pt x="1569" y="748" on="1"/>
        <pt x="873" y="806" on="0"/>
        <pt x="468" y="806" on="1"/>
        <pt x="267" y="806" on="0"/>
        <pt x="206" y="771" on="1"/>
        <pt x="151" y="740" on="0"/>
        <pt x="151" y="678" on="1"/>
        <pt x="151" y="656" on="1"/>
        <pt x="242" y="656" on="1"/>
        <pt x="242" y="582" on="1"/>
        <pt x="150" y="582" on="1"/>
        <pt x="150" y="0" on="1"/>
        <pt x="63" y="0" on="1"/>
        <pt x="63" y="582" on="1"/>
        <pt x="-29" y="582" on="1"/>
        <pt x="-29" y="656" on="1"/>
      </contour>
    </TTGlyph>
    <TTGlyph name="dvMatraI.a44" xMin="-29" yMin="0" xMax="1595" yMax="886">
      <contour>
        <pt x="65" y="656" on="1"/>
        <pt x="65" y="679" on="1"/>
        <pt x="65" y="803" on="0"/>
        <pt x="178" y="847" on="1"/>
        <pt x="234" y="869" on="0"/>
        <pt x="371" y="886" on="0"/>
        <pt x="468" y="886" on="1"/>
        <pt x="917" y="886" on="0"/>
        <pt x="1595" y="826" on="1"/>
        <pt x="1595" y="748" on="1"/>
        <pt x="901" y="806" on="0"/>
        <pt x="472" y="806" on="1"/>
        <pt x="317" y="806" on="0"/>
        <pt x="240" y="784" on="1"/>
        <pt x="151" y="759" on="0"/>
        <pt x="151" y="678" on="1"/>
        <pt x="151" y="656" on="1"/>
        <pt x="242" y="656" on="1"/>
        <pt x="242" y="582" on="1"/>
        <pt x="150" y="582" on="1"/>
        <pt x="150" y="0" on="1"/>
        <pt x="63" y="0" on="1"/>
        <pt x="63" y="582" on="1"/>
        <pt x="-29" y="582" on="1"/>
        <pt x="-29" y="656" on="1"/>
      </contour>
    </TTGlyph>
    <TTGlyph name="dvMatraI.a45" xMin="-29" yMin="0" xMax="1619" yMax="886">
      <contour>
        <pt x="65" y="656" on="1"/>
        <pt x="65" y="679" on="1"/>
        <pt x="65" y="803" on="0"/>
        <pt x="178" y="847" on="1"/>
        <pt x="279" y="886" on="0"/>
        <pt x="472" y="886" on="1"/>
        <pt x="920" y="886" on="0"/>
        <pt x="1619" y="826" on="1"/>
        <pt x="1619" y="748" on="1"/>
        <pt x="918" y="806" on="0"/>
        <pt x="477" y="806" on="1"/>
        <pt x="319" y="806" on="0"/>
        <pt x="240" y="784" on="1"/>
        <pt x="151" y="759" on="0"/>
        <pt x="151" y="678" on="1"/>
        <pt x="151" y="656" on="1"/>
        <pt x="242" y="656" on="1"/>
        <pt x="242" y="582" on="1"/>
        <pt x="150" y="582" on="1"/>
        <pt x="150" y="0" on="1"/>
        <pt x="63" y="0" on="1"/>
        <pt x="63" y="582" on="1"/>
        <pt x="-29" y="582" on="1"/>
        <pt x="-29" y="656" on="1"/>
      </contour>
    </TTGlyph>
    <TTGlyph name="dvMatraI.a46" xMin="-29" yMin="0" xMax="1644" yMax="886">
      <contour>
        <pt x="65" y="656" on="1"/>
        <pt x="65" y="679" on="1"/>
        <pt x="65" y="803" on="0"/>
        <pt x="180" y="847" on="1"/>
        <pt x="237" y="869" on="0"/>
        <pt x="377" y="886" on="0"/>
        <pt x="476" y="886" on="1"/>
        <pt x="953" y="886" on="0"/>
        <pt x="1644" y="825" on="1"/>
        <pt x="1644" y="747" on="1"/>
        <pt x="948" y="806" on="0"/>
        <pt x="481" y="806" on="1"/>
        <pt x="322" y="806" on="0"/>
        <pt x="242" y="784" on="1"/>
        <pt x="151" y="759" on="0"/>
        <pt x="151" y="677" on="1"/>
        <pt x="151" y="656" on="1"/>
        <pt x="242" y="656" on="1"/>
        <pt x="242" y="582" on="1"/>
        <pt x="150" y="582" on="1"/>
        <pt x="150" y="0" on="1"/>
        <pt x="63" y="0" on="1"/>
        <pt x="63" y="582" on="1"/>
        <pt x="-29" y="582" on="1"/>
        <pt x="-29" y="656" on="1"/>
      </contour>
    </TTGlyph>
    <TTGlyph name="dvMatraI.a47" xMin="-29" yMin="0" xMax="1668" yMax="886">
      <contour>
        <pt x="65" y="656" on="1"/>
        <pt x="65" y="679" on="1"/>
        <pt x="65" y="804" on="0"/>
        <pt x="180" y="847" on="1"/>
        <pt x="239" y="869" on="0"/>
        <pt x="379" y="886" on="0"/>
        <pt x="480" y="886" on="1"/>
        <pt x="965" y="886" on="0"/>
        <pt x="1668" y="825" on="1"/>
        <pt x="1668" y="747" on="1"/>
        <pt x="933" y="806" on="0"/>
        <pt x="485" y="806" on="1"/>
        <pt x="272" y="806" on="0"/>
        <pt x="209" y="772" on="1"/>
        <pt x="151" y="741" on="0"/>
        <pt x="151" y="677" on="1"/>
        <pt x="151" y="656" on="1"/>
        <pt x="242" y="656" on="1"/>
        <pt x="242" y="582" on="1"/>
        <pt x="150" y="582" on="1"/>
        <pt x="150" y="0" on="1"/>
        <pt x="63" y="0" on="1"/>
        <pt x="63" y="582" on="1"/>
        <pt x="-29" y="582" on="1"/>
        <pt x="-29" y="656" on="1"/>
      </contour>
    </TTGlyph>
    <TTGlyph name="dvMatraI.a48" xMin="-29" yMin="0" xMax="1694" yMax="886">
      <contour>
        <pt x="65" y="656" on="1"/>
        <pt x="65" y="679" on="1"/>
        <pt x="65" y="803" on="0"/>
        <pt x="182" y="847" on="1"/>
        <pt x="241" y="869" on="0"/>
        <pt x="383" y="886" on="0"/>
        <pt x="485" y="886" on="1"/>
        <pt x="957" y="886" on="0"/>
        <pt x="1694" y="825" on="1"/>
        <pt x="1694" y="747" on="1"/>
        <pt x="934" y="806" on="0"/>
        <pt x="489" y="806" on="1"/>
        <pt x="274" y="806" on="0"/>
        <pt x="210" y="772" on="1"/>
        <pt x="151" y="741" on="0"/>
        <pt x="151" y="677" on="1"/>
        <pt x="151" y="656" on="1"/>
        <pt x="242" y="656" on="1"/>
        <pt x="242" y="582" on="1"/>
        <pt x="150" y="582" on="1"/>
        <pt x="150" y="0" on="1"/>
        <pt x="63" y="0" on="1"/>
        <pt x="63" y="582" on="1"/>
        <pt x="-29" y="582" on="1"/>
        <pt x="-29" y="656" on="1"/>
      </contour>
    </TTGlyph>
    <TTGlyph name="dvMatraI.a49" xMin="-29" yMin="0" xMax="1718" yMax="886">
      <contour>
        <pt x="65" y="656" on="1"/>
        <pt x="65" y="678" on="1"/>
        <pt x="65" y="777" on="0"/>
        <pt x="140" y="826" on="1"/>
        <pt x="232" y="886" on="0"/>
        <pt x="488" y="886" on="1"/>
        <pt x="986" y="886" on="0"/>
        <pt x="1718" y="825" on="1"/>
        <pt x="1718" y="747" on="1"/>
        <pt x="975" y="806" on="0"/>
        <pt x="493" y="806" on="1"/>
        <pt x="311" y="806" on="0"/>
        <pt x="244" y="784" on="1"/>
        <pt x="180" y="763" on="0"/>
        <pt x="162" y="726" on="1"/>
        <pt x="151" y="705" on="0"/>
        <pt x="151" y="677" on="1"/>
        <pt x="151" y="656" on="1"/>
        <pt x="242" y="656" on="1"/>
        <pt x="242" y="582" on="1"/>
        <pt x="150" y="582" on="1"/>
        <pt x="150" y="0" on="1"/>
        <pt x="63" y="0" on="1"/>
        <pt x="63" y="582" on="1"/>
        <pt x="-29" y="582" on="1"/>
        <pt x="-29" y="656" on="1"/>
      </contour>
    </TTGlyph>
    <TTGlyph name="dvMatraI.a50" xMin="-29" yMin="0" xMax="1793" yMax="886">
      <contour>
        <pt x="65" y="656" on="1"/>
        <pt x="65" y="677" on="1"/>
        <pt x="65" y="805" on="0"/>
        <pt x="186" y="848" on="1"/>
        <pt x="248" y="870" on="0"/>
        <pt x="394" y="886" on="0"/>
        <pt x="501" y="886" on="1"/>
        <pt x="1034" y="886" on="0"/>
        <pt x="1793" y="824" on="1"/>
        <pt x="1793" y="746" on="1"/>
        <pt x="1003" y="806" on="0"/>
        <pt x="506" y="806" on="1"/>
        <pt x="312" y="806" on="0"/>
        <pt x="247" y="785" on="1"/>
        <pt x="181" y="764" on="0"/>
        <pt x="162" y="726" on="1"/>
        <pt x="151" y="705" on="0"/>
        <pt x="151" y="676" on="1"/>
        <pt x="151" y="656" on="1"/>
        <pt x="242" y="656" on="1"/>
        <pt x="242" y="582" on="1"/>
        <pt x="150" y="582" on="1"/>
        <pt x="150" y="0" on="1"/>
        <pt x="63" y="0" on="1"/>
        <pt x="63" y="582" on="1"/>
        <pt x="-29" y="582" on="1"/>
        <pt x="-29" y="656" on="1"/>
      </contour>
    </TTGlyph>
    <TTGlyph name="dvNG_GA" xMin="-29" yMin="-185" xMax="519" yMax="656">
      <contour>
        <pt x="-29" y="656" on="1"/>
        <pt x="519" y="656" on="1"/>
        <pt x="519" y="582" on="1"/>
        <pt x="359" y="582" on="1"/>
        <pt x="359" y="433" on="1"/>
        <pt x="200" y="433" on="1"/>
        <pt x="166" y="433" on="0"/>
        <pt x="138" y="412" on="0"/>
        <pt x="138" y="387" on="1"/>
        <pt x="138" y="383" on="1"/>
        <pt x="138" y="357" on="0"/>
        <pt x="165" y="336" on="0"/>
        <pt x="200" y="336" on="1"/>
        <pt x="234" y="336" on="1"/>
        <pt x="314" y="336" on="0"/>
        <pt x="389" y="280" on="0"/>
        <pt x="389" y="215" on="1"/>
        <pt x="389" y="201" on="1"/>
        <pt x="389" y="136" on="0"/>
        <pt x="347" y="105" on="1"/>
        <pt x="347" y="-185" on="1"/>
        <pt x="265" y="-185" on="1"/>
        <pt x="265" y="77" on="1"/>
        <pt x="238" y="74" on="0"/>
        <pt x="206" y="74" on="1"/>
        <pt x="188" y="74" on="1"/>
        <pt x="188" y="28" on="1"/>
        <pt x="188" y="-41" on="0"/>
        <pt x="132" y="-102" on="0"/>
        <pt x="60" y="-102" on="1"/>
        <pt x="22" y="-100" on="1"/>
        <pt x="22" y="-23" on="1"/>
        <pt x="39" y="-25" on="0"/>
        <pt x="49" y="-25" on="1"/>
        <pt x="85" y="-25" on="0"/>
        <pt x="106" y="2" on="0"/>
        <pt x="106" y="34" on="1"/>
        <pt x="106" y="81" on="1"/>
        <pt x="82" y="83" on="0"/>
        <pt x="45" y="91" on="1"/>
        <pt x="45" y="165" on="1"/>
        <pt x="136" y="148" on="0"/>
        <pt x="257" y="148" on="0"/>
        <pt x="300" y="171" on="0"/>
        <pt x="300" y="204" on="1"/>
        <pt x="300" y="217" on="1"/>
        <pt x="300" y="242" on="0"/>
        <pt x="270" y="265" on="0"/>
        <pt x="234" y="265" on="1"/>
        <pt x="202" y="265" on="1"/>
        <pt x="125" y="265" on="0"/>
        <pt x="49" y="316" on="0"/>
        <pt x="49" y="381" on="1"/>
        <pt x="49" y="388" on="1"/>
        <pt x="49" y="502" on="0"/>
        <pt x="203" y="502" on="1"/>
        <pt x="269" y="502" on="1"/>
        <pt x="269" y="582" on="1"/>
        <pt x="-29" y="582" on="1"/>
      </contour>
      <contour>
        <pt x="370" y="318" on="0"/>
        <pt x="370" y="418" on="0"/>
        <pt x="471" y="418" on="0"/>
        <pt x="471" y="318" on="0"/>
      </contour>
    </TTGlyph>
    <TTGlyph name="dvNG_MA" xMin="-29" yMin="-150" xMax="679" yMax="656">
      <contour>
        <pt x="679" y="656" on="1"/>
        <pt x="679" y="582" on="1"/>
        <pt x="583" y="582" on="1"/>
        <pt x="583" y="-150" on="1"/>
        <pt x="497" y="-150" on="1"/>
        <pt x="497" y="-33" on="1"/>
        <pt x="353" y="-33" on="1"/>
        <pt x="353" y="-86" on="1"/>
        <pt x="268" y="-86" on="1"/>
        <pt x="268" y="80" on="1"/>
        <pt x="244" y="76" on="0"/>
        <pt x="132" y="76" on="0"/>
        <pt x="47" y="94" on="1"/>
        <pt x="47" y="170" on="1"/>
        <pt x="138" y="153" on="0"/>
        <pt x="260" y="153" on="0"/>
        <pt x="304" y="177" on="0"/>
        <pt x="304" y="210" on="1"/>
        <pt x="304" y="216" on="1"/>
        <pt x="304" y="242" on="0"/>
        <pt x="274" y="265" on="0"/>
        <pt x="238" y="265" on="1"/>
        <pt x="204" y="265" on="1"/>
        <pt x="127" y="265" on="0"/>
        <pt x="51" y="316" on="0"/>
        <pt x="51" y="381" on="1"/>
        <pt x="51" y="388" on="1"/>
        <pt x="51" y="502" on="0"/>
        <pt x="206" y="502" on="1"/>
        <pt x="272" y="502" on="1"/>
        <pt x="272" y="582" on="1"/>
        <pt x="-29" y="582" on="1"/>
        <pt x="-29" y="656" on="1"/>
      </contour>
      <contour>
        <pt x="497" y="42" on="1"/>
        <pt x="497" y="582" on="1"/>
        <pt x="361" y="582" on="1"/>
        <pt x="361" y="433" on="1"/>
        <pt x="202" y="433" on="1"/>
        <pt x="168" y="433" on="0"/>
        <pt x="140" y="411" on="0"/>
        <pt x="140" y="387" on="1"/>
        <pt x="140" y="382" on="1"/>
        <pt x="140" y="357" on="0"/>
        <pt x="167" y="336" on="0"/>
        <pt x="202" y="336" on="1"/>
        <pt x="238" y="336" on="1"/>
        <pt x="318" y="336" on="0"/>
        <pt x="393" y="280" on="0"/>
        <pt x="393" y="215" on="1"/>
        <pt x="393" y="207" on="1"/>
        <pt x="393" y="145" on="0"/>
        <pt x="354" y="112" on="1"/>
        <pt x="354" y="42" on="1"/>
      </contour>
      <contour>
        <pt x="376" y="324" on="0"/>
        <pt x="376" y="412" on="0"/>
        <pt x="464" y="412" on="0"/>
        <pt x="464" y="324" on="0"/>
      </contour>
    </TTGlyph>
    <TTGlyph name="dvNY_CA" xMin="-29" yMin="0" xMax="892" yMax="656">
      <contour>
        <pt x="476" y="332" on="1"/>
        <pt x="476" y="377" on="0"/>
        <pt x="485" y="406" on="1"/>
        <pt x="392" y="406" on="1"/>
        <pt x="392" y="484" on="1"/>
        <pt x="665" y="484" on="1"/>
        <pt x="665" y="409" on="1"/>
        <pt x="574" y="409" on="1"/>
        <pt x="563" y="384" on="0"/>
        <pt x="563" y="331" on="1"/>
        <pt x="563" y="203" on="1"/>
        <pt x="563" y="137" on="0"/>
        <pt x="641" y="137" on="1"/>
        <pt x="681" y="137" on="0"/>
        <pt x="713" y="148" on="1"/>
        <pt x="713" y="582" on="1"/>
        <pt x="-29" y="582" on="1"/>
        <pt x="-29" y="656" on="1"/>
        <pt x="892" y="656" on="1"/>
        <pt x="892" y="582" on="1"/>
        <pt x="800" y="582" on="1"/>
        <pt x="800" y="0" on="1"/>
        <pt x="713" y="0" on="1"/>
        <pt x="713" y="71" on="1"/>
        <pt x="675" y="59" on="0"/>
        <pt x="629" y="59" on="1"/>
        <pt x="476" y="59" on="0"/>
        <pt x="476" y="201" on="1"/>
        <pt x="476" y="226" on="1"/>
        <pt x="319" y="226" on="1"/>
        <pt x="319" y="177" on="1"/>
        <pt x="319" y="113" on="0"/>
        <pt x="237" y="39" on="0"/>
        <pt x="151" y="39" on="1"/>
        <pt x="99" y="39" on="0"/>
        <pt x="58" y="54" on="1"/>
        <pt x="58" y="133" on="1"/>
        <pt x="105" y="118" on="0"/>
        <pt x="195" y="118" on="0"/>
        <pt x="232" y="155" on="0"/>
        <pt x="232" y="190" on="1"/>
        <pt x="232" y="352" on="1"/>
        <pt x="232" y="387" on="0"/>
        <pt x="196" y="423" on="0"/>
        <pt x="105" y="423" on="0"/>
        <pt x="63" y="409" on="1"/>
        <pt x="63" y="488" on="1"/>
        <pt x="104" y="503" on="0"/>
        <pt x="151" y="503" on="1"/>
        <pt x="319" y="503" on="0"/>
        <pt x="319" y="357" on="1"/>
        <pt x="319" y="301" on="1"/>
        <pt x="476" y="301" on="1"/>
      </contour>
    </TTGlyph>
    <TTGlyph name="dvSHA_MatraVocalicR" xMin="21" yMin="-270" xMax="619" yMax="661">
      <contour>
        <pt x="527" y="582" on="1"/>
        <pt x="527" y="-73" on="1"/>
        <pt x="485" y="-64" on="0"/>
        <pt x="408" y="-64" on="0"/>
        <pt x="375" y="-88" on="0"/>
        <pt x="375" y="-165" on="0"/>
        <pt x="408" y="-191" on="0"/>
        <pt x="434" y="-191" on="1"/>
        <pt x="476" y="-191" on="0"/>
        <pt x="530" y="-182" on="1"/>
        <pt x="530" y="-261" on="1"/>
        <pt x="490" y="-270" on="0"/>
        <pt x="441" y="-270" on="1"/>
        <pt x="290" y="-270" on="0"/>
        <pt x="290" y="-126" on="1"/>
        <pt x="290" y="15" on="0"/>
        <pt x="440" y="15" on="1"/>
        <pt x="440" y="115" on="1"/>
        <pt x="208" y="285" on="1"/>
        <pt x="124" y="207" on="1"/>
        <pt x="21" y="221" on="1"/>
        <pt x="143" y="335" on="1"/>
        <pt x="95" y="372" on="0"/>
        <pt x="56" y="437" on="0"/>
        <pt x="56" y="491" on="1"/>
        <pt x="56" y="525" on="1"/>
        <pt x="56" y="661" on="0"/>
        <pt x="344" y="661" on="0"/>
        <pt x="344" y="525" on="1"/>
        <pt x="344" y="491" on="1"/>
        <pt x="344" y="441" on="0"/>
        <pt x="308" y="381" on="0"/>
        <pt x="265" y="341" on="1"/>
        <pt x="367" y="267" on="1"/>
        <pt x="377" y="260" on="0"/>
        <pt x="440" y="208" on="1"/>
        <pt x="440" y="656" on="1"/>
        <pt x="619" y="656" on="1"/>
        <pt x="619" y="582" on="1"/>
      </contour>
      <contour>
        <pt x="261" y="483" on="1"/>
        <pt x="261" y="525" on="1"/>
        <pt x="261" y="555" on="0"/>
        <pt x="236" y="585" on="0"/>
        <pt x="166" y="585" on="0"/>
        <pt x="141" y="555" on="0"/>
        <pt x="141" y="525" on="1"/>
        <pt x="141" y="483" on="1"/>
        <pt x="141" y="463" on="0"/>
        <pt x="161" y="428" on="0"/>
        <pt x="179" y="411" on="0"/>
        <pt x="201" y="393" on="1"/>
        <pt x="203" y="395" on="0"/>
        <pt x="226" y="414" on="0"/>
        <pt x="244" y="431" on="0"/>
        <pt x="261" y="464" on="0"/>
      </contour>
    </TTGlyph>
    <TTGlyph name="dvSH_CA.aSimp" xMin="57" yMin="-2" xMax="925" yMax="661">
      <contour>
        <pt x="371" y="521" on="1"/>
        <pt x="371" y="384" on="1"/>
        <pt x="371" y="247" on="0"/>
        <pt x="221" y="247" on="1"/>
        <pt x="180" y="247" on="0"/>
        <pt x="144" y="259" on="1"/>
        <pt x="144" y="161" on="1"/>
        <pt x="144" y="77" on="0"/>
        <pt x="248" y="77" on="1"/>
        <pt x="300" y="77" on="0"/>
        <pt x="364" y="97" on="1"/>
        <pt x="364" y="17" on="1"/>
        <pt x="307" y="-2" on="0"/>
        <pt x="152" y="-2" on="0"/>
        <pt x="57" y="86" on="0"/>
        <pt x="57" y="159" on="1"/>
        <pt x="57" y="404" on="1"/>
        <pt x="144" y="404" on="1"/>
        <pt x="144" y="336" on="1"/>
        <pt x="177" y="325" on="0"/>
        <pt x="215" y="325" on="1"/>
        <pt x="284" y="325" on="0"/>
        <pt x="284" y="386" on="1"/>
        <pt x="284" y="519" on="1"/>
        <pt x="284" y="581" on="0"/>
        <pt x="214" y="581" on="1"/>
        <pt x="174" y="581" on="0"/>
        <pt x="144" y="547" on="0"/>
        <pt x="144" y="495" on="0"/>
        <pt x="147" y="480" on="1"/>
        <pt x="60" y="480" on="1"/>
        <pt x="57" y="498" on="0"/>
        <pt x="57" y="521" on="1"/>
        <pt x="57" y="588" on="0"/>
        <pt x="135" y="661" on="0"/>
        <pt x="293" y="661" on="0"/>
        <pt x="371" y="588" on="0"/>
      </contour>
      <contour>
        <pt x="510" y="332" on="1"/>
        <pt x="510" y="374" on="0"/>
        <pt x="518" y="406" on="1"/>
        <pt x="445" y="406" on="1"/>
        <pt x="445" y="484" on="1"/>
        <pt x="698" y="484" on="1"/>
        <pt x="698" y="409" on="1"/>
        <pt x="607" y="409" on="1"/>
        <pt x="597" y="384" on="0"/>
        <pt x="597" y="331" on="1"/>
        <pt x="597" y="203" on="1"/>
        <pt x="597" y="169" on="0"/>
        <pt x="634" y="137" on="0"/>
        <pt x="714" y="137" on="0"/>
        <pt x="747" y="148" on="1"/>
        <pt x="747" y="582" on="1"/>
        <pt x="415" y="582" on="1"/>
        <pt x="415" y="656" on="1"/>
        <pt x="925" y="656" on="1"/>
        <pt x="925" y="582" on="1"/>
        <pt x="834" y="582" on="1"/>
        <pt x="834" y="0" on="1"/>
        <pt x="747" y="0" on="1"/>
        <pt x="747" y="71" on="1"/>
        <pt x="708" y="59" on="0"/>
        <pt x="663" y="59" on="1"/>
        <pt x="510" y="59" on="0"/>
        <pt x="510" y="201" on="1"/>
      </contour>
    </TTGlyph>
    <TTGlyph name="dvSH_LA.aSimp" xMin="57" yMin="-2" xMax="1065" yMax="661">
      <contour>
        <pt x="371" y="521" on="1"/>
        <pt x="371" y="384" on="1"/>
        <pt x="371" y="247" on="0"/>
        <pt x="221" y="247" on="1"/>
        <pt x="180" y="247" on="0"/>
        <pt x="144" y="259" on="1"/>
        <pt x="144" y="161" on="1"/>
        <pt x="144" y="77" on="0"/>
        <pt x="248" y="77" on="1"/>
        <pt x="300" y="77" on="0"/>
        <pt x="364" y="97" on="1"/>
        <pt x="364" y="17" on="1"/>
        <pt x="307" y="-2" on="0"/>
        <pt x="152" y="-2" on="0"/>
        <pt x="57" y="86" on="0"/>
        <pt x="57" y="159" on="1"/>
        <pt x="57" y="404" on="1"/>
        <pt x="144" y="404" on="1"/>
        <pt x="144" y="336" on="1"/>
        <pt x="177" y="325" on="0"/>
        <pt x="215" y="325" on="1"/>
        <pt x="284" y="325" on="0"/>
        <pt x="284" y="386" on="1"/>
        <pt x="284" y="519" on="1"/>
        <pt x="284" y="581" on="0"/>
        <pt x="214" y="581" on="1"/>
        <pt x="174" y="581" on="0"/>
        <pt x="144" y="547" on="0"/>
        <pt x="144" y="495" on="0"/>
        <pt x="147" y="480" on="1"/>
        <pt x="60" y="480" on="1"/>
        <pt x="57" y="498" on="0"/>
        <pt x="57" y="521" on="1"/>
        <pt x="57" y="588" on="0"/>
        <pt x="135" y="661" on="0"/>
        <pt x="293" y="661" on="0"/>
        <pt x="371" y="588" on="0"/>
      </contour>
      <contour>
        <pt x="454" y="162" on="1"/>
        <pt x="454" y="344" on="1"/>
        <pt x="454" y="411" on="0"/>
        <pt x="529" y="484" on="0"/>
        <pt x="679" y="484" on="0"/>
        <pt x="712" y="436" on="1"/>
        <pt x="746" y="483" on="0"/>
        <pt x="820" y="483" on="1"/>
        <pt x="858" y="483" on="0"/>
        <pt x="886" y="472" on="1"/>
        <pt x="886" y="582" on="1"/>
        <pt x="439" y="582" on="1"/>
        <pt x="439" y="656" on="1"/>
        <pt x="1065" y="656" on="1"/>
        <pt x="1065" y="582" on="1"/>
        <pt x="973" y="582" on="1"/>
        <pt x="973" y="0" on="1"/>
        <pt x="886" y="0" on="1"/>
        <pt x="886" y="392" on="1"/>
        <pt x="864" y="404" on="0"/>
        <pt x="826" y="404" on="1"/>
        <pt x="757" y="404" on="0"/>
        <pt x="757" y="343" on="1"/>
        <pt x="757" y="209" on="1"/>
        <pt x="670" y="209" on="1"/>
        <pt x="670" y="343" on="1"/>
        <pt x="670" y="372" on="0"/>
        <pt x="641" y="404" on="0"/>
        <pt x="568" y="404" on="0"/>
        <pt x="540" y="372" on="0"/>
        <pt x="540" y="342" on="1"/>
        <pt x="540" y="164" on="1"/>
        <pt x="540" y="123" on="0"/>
        <pt x="580" y="79" on="0"/>
        <pt x="633" y="79" on="1"/>
        <pt x="661" y="79" on="0"/>
        <pt x="691" y="83" on="1"/>
        <pt x="691" y="5" on="1"/>
        <pt x="664" y="0" on="0"/>
        <pt x="630" y="0" on="1"/>
        <pt x="538" y="0" on="0"/>
        <pt x="454" y="81" on="0"/>
      </contour>
    </TTGlyph>
    <TTGlyph name="dvSH_VA.aSimp" xMin="57" yMin="-2" xMax="874" yMax="661">
      <contour>
        <pt x="371" y="521" on="1"/>
        <pt x="371" y="384" on="1"/>
        <pt x="371" y="247" on="0"/>
        <pt x="221" y="247" on="1"/>
        <pt x="180" y="247" on="0"/>
        <pt x="144" y="259" on="1"/>
        <pt x="144" y="161" on="1"/>
        <pt x="144" y="77" on="0"/>
        <pt x="248" y="77" on="1"/>
        <pt x="300" y="77" on="0"/>
        <pt x="364" y="97" on="1"/>
        <pt x="364" y="17" on="1"/>
        <pt x="307" y="-2" on="0"/>
        <pt x="152" y="-2" on="0"/>
        <pt x="57" y="86" on="0"/>
        <pt x="57" y="159" on="1"/>
        <pt x="57" y="404" on="1"/>
        <pt x="144" y="404" on="1"/>
        <pt x="144" y="336" on="1"/>
        <pt x="177" y="325" on="0"/>
        <pt x="215" y="325" on="1"/>
        <pt x="284" y="325" on="0"/>
        <pt x="284" y="386" on="1"/>
        <pt x="284" y="519" on="1"/>
        <pt x="284" y="581" on="0"/>
        <pt x="214" y="581" on="1"/>
        <pt x="174" y="581" on="0"/>
        <pt x="144" y="547" on="0"/>
        <pt x="144" y="495" on="0"/>
        <pt x="147" y="480" on="1"/>
        <pt x="60" y="480" on="1"/>
        <pt x="57" y="498" on="0"/>
        <pt x="57" y="521" on="1"/>
        <pt x="57" y="588" on="0"/>
        <pt x="135" y="661" on="0"/>
        <pt x="293" y="661" on="0"/>
        <pt x="371" y="588" on="0"/>
      </contour>
      <contour>
        <pt x="622" y="430" on="1"/>
        <pt x="542" y="430" on="0"/>
        <pt x="542" y="365" on="1"/>
        <pt x="542" y="206" on="1"/>
        <pt x="542" y="140" on="0"/>
        <pt x="622" y="140" on="1"/>
        <pt x="670" y="140" on="0"/>
        <pt x="698" y="151" on="1"/>
        <pt x="698" y="420" on="1"/>
        <pt x="670" y="430" on="0"/>
      </contour>
      <contour>
        <pt x="695" y="582" on="1"/>
        <pt x="413" y="582" on="1"/>
        <pt x="413" y="656" on="1"/>
        <pt x="874" y="656" on="1"/>
        <pt x="874" y="582" on="1"/>
        <pt x="782" y="582" on="1"/>
        <pt x="782" y="0" on="1"/>
        <pt x="695" y="0" on="1"/>
        <pt x="695" y="75" on="1"/>
        <pt x="655" y="64" on="0"/>
        <pt x="611" y="64" on="1"/>
        <pt x="457" y="64" on="0"/>
        <pt x="457" y="204" on="1"/>
        <pt x="457" y="366" on="1"/>
        <pt x="457" y="432" on="0"/>
        <pt x="533" y="505" on="0"/>
        <pt x="611" y="505" on="1"/>
        <pt x="658" y="505" on="0"/>
        <pt x="695" y="495" on="1"/>
      </contour>
    </TTGlyph>
    <TTGlyph name="dvTTH_TTHA" xMin="-29" yMin="-156" xMax="469" yMax="656">
      <contour>
        <pt x="469" y="582" on="1"/>
        <pt x="264" y="582" on="1"/>
        <pt x="264" y="503" on="1"/>
        <pt x="382" y="488" on="0"/>
        <pt x="382" y="370" on="1"/>
        <pt x="382" y="272" on="1"/>
        <pt x="382" y="208" on="0"/>
        <pt x="335" y="176" on="1"/>
        <pt x="382" y="144" on="0"/>
        <pt x="382" y="78" on="1"/>
        <pt x="382" y="-20" on="1"/>
        <pt x="382" y="-86" on="0"/>
        <pt x="301" y="-156" on="0"/>
        <pt x="141" y="-156" on="0"/>
        <pt x="59" y="-86" on="0"/>
        <pt x="59" y="-20" on="1"/>
        <pt x="59" y="78" on="1"/>
        <pt x="59" y="144" on="0"/>
        <pt x="106" y="176" on="1"/>
        <pt x="59" y="208" on="0"/>
        <pt x="59" y="272" on="1"/>
        <pt x="59" y="369" on="1"/>
        <pt x="59" y="488" on="0"/>
        <pt x="177" y="503" on="1"/>
        <pt x="177" y="582" on="1"/>
        <pt x="-29" y="582" on="1"/>
        <pt x="-29" y="656" on="1"/>
        <pt x="469" y="656" on="1"/>
      </contour>
      <contour>
        <pt x="298" y="-17" on="1"/>
        <pt x="298" y="76" on="1"/>
        <pt x="298" y="139" on="0"/>
        <pt x="221" y="139" on="1"/>
        <pt x="178" y="139" on="0"/>
        <pt x="144" y="107" on="0"/>
        <pt x="144" y="76" on="1"/>
        <pt x="144" y="-17" on="1"/>
        <pt x="144" y="-81" on="0"/>
        <pt x="298" y="-81" on="0"/>
      </contour>
      <contour>
        <pt x="298" y="274" on="1"/>
        <pt x="298" y="368" on="1"/>
        <pt x="298" y="431" on="0"/>
        <pt x="144" y="431" on="0"/>
        <pt x="144" y="368" on="1"/>
        <pt x="144" y="274" on="1"/>
        <pt x="144" y="211" on="0"/>
        <pt x="298" y="211" on="0"/>
      </contour>
    </TTGlyph>
    <TTGlyph name="dvTT_GA" xMin="-29" yMin="-198" xMax="428" yMax="656">
      <contour>
        <pt x="338" y="419" on="1"/>
        <pt x="217" y="419" on="1"/>
        <pt x="136" y="419" on="0"/>
        <pt x="136" y="350" on="1"/>
        <pt x="136" y="200" on="1"/>
        <pt x="136" y="123" on="0"/>
        <pt x="236" y="123" on="1"/>
        <pt x="296" y="123" on="0"/>
        <pt x="358" y="139" on="1"/>
        <pt x="358" y="60" on="1"/>
        <pt x="344" y="56" on="0"/>
        <pt x="336" y="54" on="1"/>
        <pt x="336" y="-198" on="1"/>
        <pt x="254" y="-198" on="1"/>
        <pt x="254" y="44" on="1"/>
        <pt x="232" y="44" on="1"/>
        <pt x="205" y="44" on="0"/>
        <pt x="177" y="49" on="1"/>
        <pt x="177" y="15" on="1"/>
        <pt x="177" y="-54" on="0"/>
        <pt x="120" y="-116" on="0"/>
        <pt x="49" y="-116" on="1"/>
        <pt x="11" y="-113" on="1"/>
        <pt x="11" y="-36" on="1"/>
        <pt x="27" y="-38" on="0"/>
        <pt x="38" y="-38" on="1"/>
        <pt x="74" y="-38" on="0"/>
        <pt x="95" y="-11" on="0"/>
        <pt x="95" y="21" on="1"/>
        <pt x="95" y="86" on="1"/>
        <pt x="49" y="126" on="0"/>
        <pt x="49" y="199" on="1"/>
        <pt x="49" y="355" on="1"/>
        <pt x="49" y="498" on="0"/>
        <pt x="209" y="498" on="1"/>
        <pt x="251" y="498" on="1"/>
        <pt x="251" y="582" on="1"/>
        <pt x="-29" y="582" on="1"/>
        <pt x="-29" y="656" on="1"/>
        <pt x="428" y="656" on="1"/>
        <pt x="428" y="582" on="1"/>
        <pt x="338" y="582" on="1"/>
      </contour>
    </TTGlyph>
    <TTGlyph name="dvT_KH_NA" xMin="-29" yMin="-4" xMax="1421" yMax="656">
      <contour>
        <pt x="504" y="519" on="1"/>
        <pt x="504" y="556" on="0"/>
        <pt x="492" y="582" on="1"/>
        <pt x="-29" y="582" on="1"/>
        <pt x="-29" y="656" on="1"/>
        <pt x="1421" y="656" on="1"/>
        <pt x="1421" y="582" on="1"/>
        <pt x="1329" y="582" on="1"/>
        <pt x="1329" y="0" on="1"/>
        <pt x="1242" y="0" on="1"/>
        <pt x="1242" y="403" on="1"/>
        <pt x="1126" y="403" on="1"/>
        <pt x="1136" y="373" on="0"/>
        <pt x="1136" y="337" on="1"/>
        <pt x="1136" y="193" on="1"/>
        <pt x="1136" y="58" on="0"/>
        <pt x="993" y="58" on="1"/>
        <pt x="887" y="58" on="0"/>
        <pt x="860" y="131" on="1"/>
        <pt x="830" y="119" on="0"/>
        <pt x="784" y="119" on="1"/>
        <pt x="704" y="119" on="0"/>
        <pt x="637" y="182" on="0"/>
        <pt x="637" y="253" on="1"/>
        <pt x="637" y="364" on="1"/>
        <pt x="637" y="432" on="0"/>
        <pt x="705" y="499" on="0"/>
        <pt x="865" y="499" on="0"/>
        <pt x="898" y="460" on="1"/>
        <pt x="933" y="483" on="0"/>
        <pt x="993" y="483" on="1"/>
        <pt x="1242" y="483" on="1"/>
        <pt x="1242" y="582" on="1"/>
        <pt x="576" y="582" on="1"/>
        <pt x="586" y="561" on="0"/>
        <pt x="586" y="519" on="1"/>
        <pt x="586" y="398" on="1"/>
        <pt x="586" y="249" on="0"/>
        <pt x="437" y="249" on="1"/>
        <pt x="410" y="249" on="0"/>
        <pt x="376" y="255" on="1"/>
        <pt x="376" y="182" on="1"/>
        <pt x="376" y="75" on="0"/>
        <pt x="520" y="75" on="1"/>
        <pt x="589" y="75" on="0"/>
        <pt x="652" y="94" on="1"/>
        <pt x="652" y="12" on="1"/>
        <pt x="590" y="-4" on="0"/>
        <pt x="514" y="-4" on="1"/>
        <pt x="408" y="-4" on="0"/>
        <pt x="292" y="90" on="0"/>
        <pt x="292" y="181" on="1"/>
        <pt x="292" y="407" on="1"/>
        <pt x="238" y="411" on="0"/>
        <pt x="222" y="411" on="1"/>
        <pt x="134" y="411" on="0"/>
        <pt x="134" y="340" on="1"/>
        <pt x="134" y="138" on="1"/>
        <pt x="134" y="108" on="0"/>
        <pt x="168" y="79" on="0"/>
        <pt x="209" y="80" on="1"/>
        <pt x="209" y="-1" on="1"/>
        <pt x="186" y="-1" on="1"/>
        <pt x="47" y="-4" on="0"/>
        <pt x="47" y="132" on="1"/>
        <pt x="47" y="342" on="1"/>
        <pt x="47" y="411" on="0"/>
        <pt x="133" y="491" on="0"/>
        <pt x="290" y="491" on="0"/>
        <pt x="376" y="477" on="1"/>
        <pt x="376" y="331" on="1"/>
        <pt x="410" y="327" on="0"/>
        <pt x="440" y="327" on="1"/>
        <pt x="504" y="327" on="0"/>
        <pt x="504" y="399" on="1"/>
      </contour>
      <contour>
        <pt x="717" y="364" on="1"/>
        <pt x="717" y="253" on="1"/>
        <pt x="717" y="223" on="0"/>
        <pt x="745" y="194" on="0"/>
        <pt x="822" y="194" on="0"/>
        <pt x="850" y="223" on="0"/>
        <pt x="850" y="253" on="1"/>
        <pt x="850" y="364" on="1"/>
        <pt x="850" y="394" on="0"/>
        <pt x="822" y="424" on="0"/>
        <pt x="745" y="424" on="0"/>
        <pt x="717" y="394" on="0"/>
      </contour>
      <contour>
        <pt x="1053" y="193" on="1"/>
        <pt x="1053" y="335" on="1"/>
        <pt x="1053" y="363" on="0"/>
        <pt x="1043" y="403" on="1"/>
        <pt x="993" y="403" on="1"/>
        <pt x="960" y="403" on="0"/>
        <pt x="934" y="375" on="0"/>
        <pt x="934" y="347" on="1"/>
        <pt x="934" y="193" on="1"/>
        <pt x="934" y="165" on="0"/>
        <pt x="960" y="137" on="0"/>
        <pt x="1027" y="137" on="0"/>
        <pt x="1053" y="165" on="0"/>
      </contour>
    </TTGlyph>
    <TTGlyph name="dvT_S_NA" xMin="-29" yMin="-5" xMax="1259" yMax="656">
      <contour>
        <pt x="502" y="519" on="1"/>
        <pt x="502" y="559" on="0"/>
        <pt x="493" y="582" on="1"/>
        <pt x="-29" y="582" on="1"/>
        <pt x="-29" y="656" on="1"/>
        <pt x="1259" y="656" on="1"/>
        <pt x="1259" y="582" on="1"/>
        <pt x="1167" y="582" on="1"/>
        <pt x="1167" y="0" on="1"/>
        <pt x="1080" y="0" on="1"/>
        <pt x="1080" y="403" on="1"/>
        <pt x="964" y="403" on="1"/>
        <pt x="974" y="373" on="0"/>
        <pt x="974" y="337" on="1"/>
        <pt x="974" y="193" on="1"/>
        <pt x="974" y="58" on="0"/>
        <pt x="688" y="58" on="0"/>
        <pt x="688" y="193" on="1"/>
        <pt x="688" y="281" on="1"/>
        <pt x="553" y="281" on="1"/>
        <pt x="516" y="244" on="0"/>
        <pt x="440" y="244" on="1"/>
        <pt x="406" y="244" on="0"/>
        <pt x="376" y="252" on="1"/>
        <pt x="376" y="153" on="1"/>
        <pt x="376" y="74" on="0"/>
        <pt x="482" y="74" on="1"/>
        <pt x="538" y="74" on="0"/>
        <pt x="604" y="94" on="1"/>
        <pt x="604" y="14" on="1"/>
        <pt x="545" y="-5" on="0"/>
        <pt x="385" y="-5" on="0"/>
        <pt x="289" y="77" on="0"/>
        <pt x="289" y="151" on="1"/>
        <pt x="289" y="408" on="1"/>
        <pt x="250" y="411" on="0"/>
        <pt x="222" y="411" on="1"/>
        <pt x="134" y="411" on="0"/>
        <pt x="134" y="340" on="1"/>
        <pt x="134" y="138" on="1"/>
        <pt x="134" y="108" on="0"/>
        <pt x="168" y="79" on="0"/>
        <pt x="209" y="80" on="1"/>
        <pt x="209" y="-1" on="1"/>
        <pt x="186" y="-1" on="1"/>
        <pt x="47" y="-4" on="0"/>
        <pt x="47" y="132" on="1"/>
        <pt x="47" y="342" on="1"/>
        <pt x="47" y="411" on="0"/>
        <pt x="133" y="491" on="0"/>
        <pt x="290" y="491" on="0"/>
        <pt x="376" y="477" on="1"/>
        <pt x="376" y="329" on="1"/>
        <pt x="408" y="321" on="0"/>
        <pt x="431" y="321" on="1"/>
        <pt x="502" y="321" on="0"/>
        <pt x="502" y="383" on="1"/>
      </contour>
      <contour>
        <pt x="891" y="193" on="1"/>
        <pt x="891" y="335" on="1"/>
        <pt x="891" y="363" on="0"/>
        <pt x="881" y="403" on="1"/>
        <pt x="831" y="403" on="1"/>
        <pt x="798" y="403" on="0"/>
        <pt x="772" y="375" on="0"/>
        <pt x="772" y="347" on="1"/>
        <pt x="772" y="193" on="1"/>
        <pt x="772" y="165" on="0"/>
        <pt x="798" y="137" on="0"/>
        <pt x="865" y="137" on="0"/>
        <pt x="891" y="165" on="0"/>
      </contour>
      <contour>
        <pt x="1080" y="483" on="1"/>
        <pt x="1080" y="582" on="1"/>
        <pt x="580" y="582" on="1"/>
        <pt x="587" y="561" on="0"/>
        <pt x="587" y="519" on="1"/>
        <pt x="587" y="383" on="1"/>
        <pt x="587" y="374" on="0"/>
        <pt x="585" y="356" on="1"/>
        <pt x="688" y="356" on="1"/>
        <pt x="691" y="483" on="0"/>
        <pt x="831" y="483" on="1"/>
      </contour>
    </TTGlyph>
    <TTGlyph name="e" xMin="52" yMin="-5" xMax="390" yMax="585">
      <contour>
        <pt x="52" y="152" on="1"/>
        <pt x="52" y="428" on="1"/>
        <pt x="52" y="500" on="0"/>
        <pt x="136" y="585" on="0"/>
        <pt x="308" y="585" on="0"/>
        <pt x="390" y="500" on="0"/>
        <pt x="390" y="428" on="1"/>
        <pt x="390" y="245" on="1"/>
        <pt x="144" y="245" on="1"/>
        <pt x="144" y="157" on="1"/>
        <pt x="144" y="117" on="0"/>
        <pt x="193" y="79" on="0"/>
        <pt x="316" y="79" on="0"/>
        <pt x="374" y="97" on="1"/>
        <pt x="374" y="11" on="1"/>
        <pt x="314" y="-5" on="0"/>
        <pt x="246" y="-5" on="1"/>
        <pt x="52" y="-5" on="0"/>
      </contour>
      <contour>
        <pt x="144" y="321" on="1"/>
        <pt x="301" y="321" on="1"/>
        <pt x="301" y="427" on="1"/>
        <pt x="301" y="505" on="0"/>
        <pt x="144" y="505" on="0"/>
        <pt x="144" y="427" on="1"/>
      </contour>
    </TTGlyph>
    <TTGlyph name="eacute" xMin="52" yMin="-5" xMax="390" yMax="728">
      <contour>
        <pt x="52" y="152" on="1"/>
        <pt x="52" y="428" on="1"/>
        <pt x="52" y="500" on="0"/>
        <pt x="136" y="585" on="0"/>
        <pt x="308" y="585" on="0"/>
        <pt x="390" y="500" on="0"/>
        <pt x="390" y="428" on="1"/>
        <pt x="390" y="245" on="1"/>
        <pt x="144" y="245" on="1"/>
        <pt x="144" y="157" on="1"/>
        <pt x="144" y="117" on="0"/>
        <pt x="193" y="79" on="0"/>
        <pt x="316" y="79" on="0"/>
        <pt x="374" y="97" on="1"/>
        <pt x="374" y="11" on="1"/>
        <pt x="314" y="-5" on="0"/>
        <pt x="246" y="-5" on="1"/>
        <pt x="52" y="-5" on="0"/>
      </contour>
      <contour>
        <pt x="144" y="321" on="1"/>
        <pt x="301" y="321" on="1"/>
        <pt x="301" y="427" on="1"/>
        <pt x="301" y="505" on="0"/>
        <pt x="144" y="505" on="0"/>
        <pt x="144" y="427" on="1"/>
      </contour>
      <contour>
        <pt x="316" y="728" on="1"/>
        <pt x="252" y="619" on="1"/>
        <pt x="196" y="619" on="1"/>
        <pt x="236" y="728" on="1"/>
      </contour>
    </TTGlyph>
    <TTGlyph name="ecaron" xMin="52" yMin="-5" xMax="390" yMax="728">
      <contour>
        <pt x="52" y="152" on="1"/>
        <pt x="52" y="428" on="1"/>
        <pt x="52" y="500" on="0"/>
        <pt x="136" y="585" on="0"/>
        <pt x="308" y="585" on="0"/>
        <pt x="390" y="500" on="0"/>
        <pt x="390" y="428" on="1"/>
        <pt x="390" y="245" on="1"/>
        <pt x="144" y="245" on="1"/>
        <pt x="144" y="157" on="1"/>
        <pt x="144" y="117" on="0"/>
        <pt x="193" y="79" on="0"/>
        <pt x="316" y="79" on="0"/>
        <pt x="374" y="97" on="1"/>
        <pt x="374" y="11" on="1"/>
        <pt x="314" y="-5" on="0"/>
        <pt x="246" y="-5" on="1"/>
        <pt x="52" y="-5" on="0"/>
      </contour>
      <contour>
        <pt x="144" y="321" on="1"/>
        <pt x="301" y="321" on="1"/>
        <pt x="301" y="427" on="1"/>
        <pt x="301" y="505" on="0"/>
        <pt x="144" y="505" on="0"/>
        <pt x="144" y="427" on="1"/>
      </contour>
      <contour>
        <pt x="188" y="619" on="1"/>
        <pt x="135" y="728" on="1"/>
        <pt x="187" y="728" on="1"/>
        <pt x="225" y="668" on="1"/>
        <pt x="262" y="728" on="1"/>
        <pt x="314" y="728" on="1"/>
        <pt x="261" y="619" on="1"/>
      </contour>
    </TTGlyph>
    <TTGlyph name="ecircumflex" xMin="52" yMin="-5" xMax="390" yMax="728">
      <contour>
        <pt x="52" y="152" on="1"/>
        <pt x="52" y="428" on="1"/>
        <pt x="52" y="500" on="0"/>
        <pt x="136" y="585" on="0"/>
        <pt x="308" y="585" on="0"/>
        <pt x="390" y="500" on="0"/>
        <pt x="390" y="428" on="1"/>
        <pt x="390" y="245" on="1"/>
        <pt x="144" y="245" on="1"/>
        <pt x="144" y="157" on="1"/>
        <pt x="144" y="117" on="0"/>
        <pt x="193" y="79" on="0"/>
        <pt x="316" y="79" on="0"/>
        <pt x="374" y="97" on="1"/>
        <pt x="374" y="11" on="1"/>
        <pt x="314" y="-5" on="0"/>
        <pt x="246" y="-5" on="1"/>
        <pt x="52" y="-5" on="0"/>
      </contour>
      <contour>
        <pt x="144" y="321" on="1"/>
        <pt x="301" y="321" on="1"/>
        <pt x="301" y="427" on="1"/>
        <pt x="301" y="505" on="0"/>
        <pt x="144" y="505" on="0"/>
        <pt x="144" y="427" on="1"/>
      </contour>
      <contour>
        <pt x="228" y="679" on="1"/>
        <pt x="190" y="619" on="1"/>
        <pt x="138" y="619" on="1"/>
        <pt x="191" y="728" on="1"/>
        <pt x="264" y="728" on="1"/>
        <pt x="317" y="619" on="1"/>
        <pt x="265" y="619" on="1"/>
      </contour>
    </TTGlyph>
    <TTGlyph name="edieresis" xMin="52" yMin="-5" xMax="390" yMax="715">
      <contour>
        <pt x="52" y="152" on="1"/>
        <pt x="52" y="428" on="1"/>
        <pt x="52" y="500" on="0"/>
        <pt x="136" y="585" on="0"/>
        <pt x="308" y="585" on="0"/>
        <pt x="390" y="500" on="0"/>
        <pt x="390" y="428" on="1"/>
        <pt x="390" y="245" on="1"/>
        <pt x="144" y="245" on="1"/>
        <pt x="144" y="157" on="1"/>
        <pt x="144" y="117" on="0"/>
        <pt x="193" y="79" on="0"/>
        <pt x="316" y="79" on="0"/>
        <pt x="374" y="97" on="1"/>
        <pt x="374" y="11" on="1"/>
        <pt x="314" y="-5" on="0"/>
        <pt x="246" y="-5" on="1"/>
        <pt x="52" y="-5" on="0"/>
      </contour>
      <contour>
        <pt x="144" y="321" on="1"/>
        <pt x="301" y="321" on="1"/>
        <pt x="301" y="427" on="1"/>
        <pt x="301" y="505" on="0"/>
        <pt x="144" y="505" on="0"/>
        <pt x="144" y="427" on="1"/>
      </contour>
      <contour>
        <pt x="196" y="630" on="0"/>
        <pt x="108" y="630" on="0"/>
        <pt x="108" y="715" on="0"/>
        <pt x="196" y="715" on="0"/>
      </contour>
      <contour>
        <pt x="342" y="630" on="0"/>
        <pt x="254" y="630" on="0"/>
        <pt x="254" y="715" on="0"/>
        <pt x="342" y="715" on="0"/>
      </contour>
    </TTGlyph>
    <TTGlyph name="edotaccent" xMin="52" yMin="-5" xMax="390" yMax="731">
      <contour>
        <pt x="52" y="152" on="1"/>
        <pt x="52" y="428" on="1"/>
        <pt x="52" y="500" on="0"/>
        <pt x="136" y="585" on="0"/>
        <pt x="308" y="585" on="0"/>
        <pt x="390" y="500" on="0"/>
        <pt x="390" y="428" on="1"/>
        <pt x="390" y="245" on="1"/>
        <pt x="144" y="245" on="1"/>
        <pt x="144" y="157" on="1"/>
        <pt x="144" y="117" on="0"/>
        <pt x="193" y="79" on="0"/>
        <pt x="316" y="79" on="0"/>
        <pt x="374" y="97" on="1"/>
        <pt x="374" y="11" on="1"/>
        <pt x="314" y="-5" on="0"/>
        <pt x="246" y="-5" on="1"/>
        <pt x="52" y="-5" on="0"/>
      </contour>
      <contour>
        <pt x="144" y="321" on="1"/>
        <pt x="301" y="321" on="1"/>
        <pt x="301" y="427" on="1"/>
        <pt x="301" y="505" on="0"/>
        <pt x="144" y="505" on="0"/>
        <pt x="144" y="427" on="1"/>
      </contour>
      <contour>
        <pt x="269" y="646" on="0"/>
        <pt x="181" y="646" on="0"/>
        <pt x="181" y="731" on="0"/>
        <pt x="269" y="731" on="0"/>
      </contour>
    </TTGlyph>
</ttFont>
